G04*
G04 #@! TF.GenerationSoftware,Altium Limited,Altium Designer,19.1.7 (138)*
G04*
G04 Layer_Physical_Order=2*
G04 Layer_Color=16711680*
%FSLAX24Y24*%
%MOIN*%
G70*
G01*
G75*
%ADD12C,0.0100*%
%ADD57C,0.0394*%
%ADD58R,0.0394X0.0394*%
%ADD59C,0.0630*%
%ADD60C,0.0728*%
%ADD61R,0.0728X0.0728*%
%ADD62C,0.0500*%
%ADD63C,0.1200*%
%ADD64R,0.1550X0.0500*%
G36*
X5600Y36850D02*
Y36428D01*
X5550Y36404D01*
X5486Y36453D01*
X5373Y36499D01*
X5252Y36515D01*
X5131Y36499D01*
X5018Y36453D01*
X4921Y36378D01*
X4847Y36281D01*
X4800Y36168D01*
X4784Y36047D01*
X4800Y35926D01*
X4847Y35813D01*
X4921Y35716D01*
X5018Y35642D01*
X5131Y35595D01*
X5252Y35579D01*
X5373Y35595D01*
X5486Y35642D01*
X5550Y35691D01*
X5600Y35666D01*
Y35428D01*
X5550Y35404D01*
X5486Y35453D01*
X5373Y35499D01*
X5252Y35515D01*
X5131Y35499D01*
X5018Y35453D01*
X4921Y35378D01*
X4847Y35281D01*
X4800Y35168D01*
X4784Y35047D01*
X4800Y34926D01*
X4847Y34813D01*
X4921Y34716D01*
X5018Y34642D01*
X5131Y34595D01*
X5252Y34579D01*
X5373Y34595D01*
X5486Y34642D01*
X5550Y34691D01*
X5600Y34666D01*
Y34428D01*
X5550Y34404D01*
X5486Y34453D01*
X5373Y34499D01*
X5252Y34515D01*
X5131Y34499D01*
X5018Y34453D01*
X4921Y34378D01*
X4847Y34281D01*
X4800Y34168D01*
X4784Y34047D01*
X4800Y33926D01*
X4847Y33813D01*
X4921Y33716D01*
X5018Y33642D01*
X5131Y33595D01*
X5252Y33579D01*
X5373Y33595D01*
X5486Y33642D01*
X5550Y33691D01*
X5600Y33666D01*
Y33428D01*
X5550Y33404D01*
X5486Y33453D01*
X5373Y33499D01*
X5252Y33515D01*
X5131Y33499D01*
X5018Y33453D01*
X4921Y33378D01*
X4847Y33281D01*
X4800Y33168D01*
X4784Y33047D01*
X4800Y32926D01*
X4847Y32813D01*
X4921Y32716D01*
X5018Y32642D01*
X5131Y32595D01*
X5252Y32579D01*
X5373Y32595D01*
X5486Y32642D01*
X5550Y32691D01*
X5600Y32666D01*
Y32428D01*
X5550Y32404D01*
X5486Y32453D01*
X5373Y32499D01*
X5252Y32515D01*
X5131Y32499D01*
X5018Y32453D01*
X4921Y32378D01*
X4847Y32281D01*
X4800Y32168D01*
X4784Y32047D01*
X4800Y31926D01*
X4847Y31813D01*
X4921Y31716D01*
X5018Y31642D01*
X5131Y31595D01*
X5252Y31579D01*
X5373Y31595D01*
X5486Y31642D01*
X5583Y31716D01*
X5657Y31813D01*
X5704Y31926D01*
X5720Y32047D01*
X5712Y32112D01*
X5745Y32150D01*
X20909D01*
X20950Y32109D01*
Y31446D01*
X20950Y31412D01*
X20907Y31382D01*
X20877Y31406D01*
X20791Y31441D01*
X20750Y31446D01*
Y31150D01*
X21046D01*
X21041Y31191D01*
X21006Y31277D01*
X20950Y31350D01*
X20948Y31351D01*
X20966Y31400D01*
X20995Y31400D01*
X25900D01*
X25904Y31404D01*
X25950Y31385D01*
Y30112D01*
X25908Y30084D01*
X25891Y30091D01*
X25850Y30096D01*
Y29750D01*
Y29404D01*
X25891Y29409D01*
X25908Y29416D01*
X25950Y29388D01*
Y8850D01*
X5600D01*
X4050Y7300D01*
X2853D01*
Y9087D01*
X3435Y9669D01*
X3459Y9659D01*
X3550Y9647D01*
X3641Y9659D01*
X3727Y9694D01*
X3800Y9750D01*
X3856Y9823D01*
X3891Y9909D01*
X3903Y10000D01*
X3891Y10091D01*
X3856Y10177D01*
X3800Y10250D01*
X3727Y10306D01*
X3641Y10341D01*
X3550Y10353D01*
X3459Y10341D01*
X3373Y10306D01*
X3300Y10250D01*
X3244Y10177D01*
X3209Y10091D01*
X3197Y10000D01*
X3209Y9909D01*
X3219Y9885D01*
X2592Y9258D01*
X2559Y9209D01*
X2547Y9150D01*
Y7300D01*
X740D01*
X730Y7350D01*
X777Y7369D01*
X850Y7425D01*
X906Y7498D01*
X941Y7583D01*
X946Y7625D01*
X254D01*
X259Y7583D01*
X294Y7498D01*
X350Y7425D01*
X423Y7369D01*
X470Y7350D01*
X460Y7300D01*
X0D01*
Y38600D01*
X463D01*
X484Y38550D01*
X446Y38458D01*
X438Y38400D01*
X850D01*
X1262D01*
X1254Y38458D01*
X1216Y38550D01*
X1237Y38600D01*
X3850D01*
X5600Y36850D01*
D02*
G37*
G36*
X27531Y42469D02*
Y69D01*
X27524Y50D01*
X0D01*
Y6050D01*
X12000D01*
Y7500D01*
X16200D01*
Y8500D01*
X26520D01*
X26650Y32058D01*
X26520Y32187D01*
X26483Y32150D01*
X21350D01*
Y33850D01*
X21245Y33955D01*
X13801D01*
Y33451D01*
X13500Y33150D01*
X5900D01*
Y34182D01*
X5918Y34225D01*
X5950Y34227D01*
X5950Y34224D01*
X5959Y34159D01*
X5994Y34073D01*
X6050Y34000D01*
X6123Y33944D01*
X6209Y33909D01*
X6250Y33904D01*
Y34250D01*
Y34596D01*
X6209Y34591D01*
X6123Y34556D01*
X6050Y34500D01*
X5994Y34427D01*
X5959Y34341D01*
X5950Y34276D01*
X5950Y34273D01*
X5918Y34275D01*
X5900Y34318D01*
Y38950D01*
X1092D01*
X1076Y39000D01*
X1146Y39054D01*
X1212Y39141D01*
X1254Y39242D01*
X1269Y39350D01*
X1254Y39458D01*
X1212Y39559D01*
X1146Y39646D01*
X1059Y39712D01*
X958Y39754D01*
X850Y39769D01*
X742Y39754D01*
X641Y39712D01*
X554Y39646D01*
X488Y39559D01*
X446Y39458D01*
X431Y39350D01*
X446Y39242D01*
X488Y39141D01*
X554Y39054D01*
X624Y39000D01*
X608Y38950D01*
X0D01*
Y42497D01*
X27496Y42504D01*
X27531Y42469D01*
D02*
G37*
%LPC*%
G36*
X1262Y38300D02*
X900D01*
Y37938D01*
X958Y37946D01*
X1059Y37988D01*
X1146Y38054D01*
X1212Y38141D01*
X1254Y38242D01*
X1262Y38300D01*
D02*
G37*
G36*
X800D02*
X438D01*
X446Y38242D01*
X488Y38141D01*
X554Y38054D01*
X641Y37988D01*
X742Y37946D01*
X800Y37938D01*
Y38300D01*
D02*
G37*
G36*
X850Y37769D02*
X742Y37754D01*
X641Y37712D01*
X554Y37646D01*
X488Y37559D01*
X446Y37458D01*
X431Y37350D01*
X446Y37242D01*
X488Y37141D01*
X554Y37054D01*
X641Y36988D01*
X742Y36946D01*
X850Y36931D01*
X958Y36946D01*
X1059Y36988D01*
X1146Y37054D01*
X1212Y37141D01*
X1254Y37242D01*
X1269Y37350D01*
X1254Y37458D01*
X1212Y37559D01*
X1146Y37646D01*
X1059Y37712D01*
X958Y37754D01*
X850Y37769D01*
D02*
G37*
G36*
X2368Y37216D02*
Y36920D01*
X2665D01*
X2659Y36961D01*
X2624Y37046D01*
X2568Y37119D01*
X2495Y37175D01*
X2410Y37211D01*
X2368Y37216D01*
D02*
G37*
G36*
X2268D02*
X2227Y37211D01*
X2142Y37175D01*
X2069Y37119D01*
X2012Y37046D01*
X1977Y36961D01*
X1972Y36920D01*
X2268D01*
Y37216D01*
D02*
G37*
G36*
X2665Y36820D02*
X2368D01*
Y36523D01*
X2410Y36529D01*
X2495Y36564D01*
X2568Y36620D01*
X2624Y36693D01*
X2659Y36778D01*
X2665Y36820D01*
D02*
G37*
G36*
X2268D02*
X1972D01*
X1977Y36778D01*
X2012Y36693D01*
X2069Y36620D01*
X2142Y36564D01*
X2227Y36529D01*
X2268Y36523D01*
Y36820D01*
D02*
G37*
G36*
X4716Y36511D02*
X3788D01*
Y35583D01*
X4716D01*
Y36511D01*
D02*
G37*
G36*
X4252Y35515D02*
X4131Y35499D01*
X4018Y35453D01*
X3921Y35378D01*
X3847Y35281D01*
X3800Y35168D01*
X3784Y35047D01*
X3800Y34926D01*
X3847Y34813D01*
X3921Y34716D01*
X4018Y34642D01*
X4131Y34595D01*
X4252Y34579D01*
X4373Y34595D01*
X4486Y34642D01*
X4583Y34716D01*
X4657Y34813D01*
X4704Y34926D01*
X4720Y35047D01*
X4704Y35168D01*
X4657Y35281D01*
X4583Y35378D01*
X4486Y35453D01*
X4373Y35499D01*
X4252Y35515D01*
D02*
G37*
G36*
Y34515D02*
X4131Y34499D01*
X4018Y34453D01*
X3921Y34378D01*
X3847Y34281D01*
X3800Y34168D01*
X3784Y34047D01*
X3800Y33926D01*
X3847Y33813D01*
X3921Y33716D01*
X4018Y33642D01*
X4131Y33595D01*
X4252Y33579D01*
X4373Y33595D01*
X4486Y33642D01*
X4583Y33716D01*
X4657Y33813D01*
X4704Y33926D01*
X4720Y34047D01*
X4704Y34168D01*
X4657Y34281D01*
X4583Y34378D01*
X4486Y34453D01*
X4373Y34499D01*
X4252Y34515D01*
D02*
G37*
G36*
Y33515D02*
X4131Y33499D01*
X4018Y33453D01*
X3921Y33378D01*
X3847Y33281D01*
X3800Y33168D01*
X3784Y33047D01*
X3800Y32926D01*
X3847Y32813D01*
X3921Y32716D01*
X4018Y32642D01*
X4131Y32595D01*
X4252Y32579D01*
X4373Y32595D01*
X4486Y32642D01*
X4583Y32716D01*
X4657Y32813D01*
X4704Y32926D01*
X4720Y33047D01*
X4704Y33168D01*
X4657Y33281D01*
X4583Y33378D01*
X4486Y33453D01*
X4373Y33499D01*
X4252Y33515D01*
D02*
G37*
G36*
Y32515D02*
X4131Y32499D01*
X4018Y32453D01*
X3921Y32378D01*
X3847Y32281D01*
X3800Y32168D01*
X3784Y32047D01*
X3800Y31926D01*
X3847Y31813D01*
X3921Y31716D01*
X4018Y31642D01*
X4131Y31595D01*
X4252Y31579D01*
X4373Y31595D01*
X4486Y31642D01*
X4583Y31716D01*
X4657Y31813D01*
X4704Y31926D01*
X4720Y32047D01*
X4704Y32168D01*
X4657Y32281D01*
X4583Y32378D01*
X4486Y32453D01*
X4373Y32499D01*
X4252Y32515D01*
D02*
G37*
G36*
X20650Y31446D02*
X20609Y31441D01*
X20523Y31406D01*
X20450Y31350D01*
X20394Y31277D01*
X20359Y31191D01*
X20354Y31150D01*
X20650D01*
Y31446D01*
D02*
G37*
G36*
X18850D02*
Y31150D01*
X19146D01*
X19141Y31191D01*
X19106Y31277D01*
X19050Y31350D01*
X18977Y31406D01*
X18891Y31441D01*
X18850Y31446D01*
D02*
G37*
G36*
X18750D02*
X18709Y31441D01*
X18623Y31406D01*
X18550Y31350D01*
X18494Y31277D01*
X18459Y31191D01*
X18454Y31150D01*
X18750D01*
Y31446D01*
D02*
G37*
G36*
X16950D02*
Y31150D01*
X17246D01*
X17241Y31191D01*
X17206Y31277D01*
X17150Y31350D01*
X17077Y31406D01*
X16991Y31441D01*
X16950Y31446D01*
D02*
G37*
G36*
X16850D02*
X16809Y31441D01*
X16723Y31406D01*
X16650Y31350D01*
X16594Y31277D01*
X16559Y31191D01*
X16554Y31150D01*
X16850D01*
Y31446D01*
D02*
G37*
G36*
X15050D02*
Y31150D01*
X15346D01*
X15341Y31191D01*
X15306Y31277D01*
X15250Y31350D01*
X15177Y31406D01*
X15091Y31441D01*
X15050Y31446D01*
D02*
G37*
G36*
X14950D02*
X14909Y31441D01*
X14823Y31406D01*
X14750Y31350D01*
X14694Y31277D01*
X14659Y31191D01*
X14654Y31150D01*
X14950D01*
Y31446D01*
D02*
G37*
G36*
X4302Y31509D02*
Y31097D01*
X4714D01*
X4704Y31168D01*
X4657Y31281D01*
X4583Y31378D01*
X4486Y31453D01*
X4373Y31499D01*
X4302Y31509D01*
D02*
G37*
G36*
X4202D02*
X4131Y31499D01*
X4018Y31453D01*
X3921Y31378D01*
X3847Y31281D01*
X3800Y31168D01*
X3790Y31097D01*
X4202D01*
Y31509D01*
D02*
G37*
G36*
X21046Y31050D02*
X20750D01*
Y30754D01*
X20791Y30759D01*
X20877Y30794D01*
X20950Y30850D01*
X21006Y30923D01*
X21041Y31009D01*
X21046Y31050D01*
D02*
G37*
G36*
X20650D02*
X20354D01*
X20359Y31009D01*
X20394Y30923D01*
X20450Y30850D01*
X20523Y30794D01*
X20609Y30759D01*
X20650Y30754D01*
Y31050D01*
D02*
G37*
G36*
X19146D02*
X18850D01*
Y30754D01*
X18891Y30759D01*
X18977Y30794D01*
X19050Y30850D01*
X19106Y30923D01*
X19141Y31009D01*
X19146Y31050D01*
D02*
G37*
G36*
X18750D02*
X18454D01*
X18459Y31009D01*
X18494Y30923D01*
X18550Y30850D01*
X18623Y30794D01*
X18709Y30759D01*
X18750Y30754D01*
Y31050D01*
D02*
G37*
G36*
X17246D02*
X16950D01*
Y30754D01*
X16991Y30759D01*
X17077Y30794D01*
X17150Y30850D01*
X17206Y30923D01*
X17241Y31009D01*
X17246Y31050D01*
D02*
G37*
G36*
X16850D02*
X16554D01*
X16559Y31009D01*
X16594Y30923D01*
X16650Y30850D01*
X16723Y30794D01*
X16809Y30759D01*
X16850Y30754D01*
Y31050D01*
D02*
G37*
G36*
X15346D02*
X15050D01*
Y30754D01*
X15091Y30759D01*
X15177Y30794D01*
X15250Y30850D01*
X15306Y30923D01*
X15341Y31009D01*
X15346Y31050D01*
D02*
G37*
G36*
X14950D02*
X14654D01*
X14659Y31009D01*
X14694Y30923D01*
X14750Y30850D01*
X14823Y30794D01*
X14909Y30759D01*
X14950Y30754D01*
Y31050D01*
D02*
G37*
G36*
X4714Y30997D02*
X4302D01*
Y30586D01*
X4373Y30595D01*
X4486Y30642D01*
X4583Y30716D01*
X4657Y30813D01*
X4704Y30926D01*
X4714Y30997D01*
D02*
G37*
G36*
X4202D02*
X3790D01*
X3800Y30926D01*
X3847Y30813D01*
X3921Y30716D01*
X4018Y30642D01*
X4131Y30595D01*
X4202Y30586D01*
Y30997D01*
D02*
G37*
G36*
X5252Y31515D02*
X5131Y31499D01*
X5018Y31453D01*
X4921Y31378D01*
X4847Y31281D01*
X4800Y31168D01*
X4784Y31047D01*
X4800Y30926D01*
X4847Y30813D01*
X4921Y30716D01*
X5018Y30642D01*
X5131Y30595D01*
X5252Y30579D01*
X5373Y30595D01*
X5486Y30642D01*
X5583Y30716D01*
X5657Y30813D01*
X5704Y30926D01*
X5720Y31047D01*
X5704Y31168D01*
X5657Y31281D01*
X5583Y31378D01*
X5486Y31453D01*
X5373Y31499D01*
X5252Y31515D01*
D02*
G37*
G36*
X4302Y30509D02*
Y30097D01*
X4714D01*
X4704Y30168D01*
X4657Y30281D01*
X4583Y30378D01*
X4486Y30453D01*
X4373Y30499D01*
X4302Y30509D01*
D02*
G37*
G36*
X4202D02*
X4131Y30499D01*
X4018Y30453D01*
X3921Y30378D01*
X3847Y30281D01*
X3800Y30168D01*
X3790Y30097D01*
X4202D01*
Y30509D01*
D02*
G37*
G36*
X25750Y30096D02*
X25709Y30091D01*
X25623Y30056D01*
X25550Y30000D01*
X25494Y29927D01*
X25459Y29841D01*
X25454Y29800D01*
X25750D01*
Y30096D01*
D02*
G37*
G36*
X4714Y29997D02*
X4302D01*
Y29586D01*
X4373Y29595D01*
X4486Y29642D01*
X4583Y29716D01*
X4657Y29813D01*
X4704Y29926D01*
X4714Y29997D01*
D02*
G37*
G36*
X4202D02*
X3790D01*
X3800Y29926D01*
X3847Y29813D01*
X3921Y29716D01*
X4018Y29642D01*
X4131Y29595D01*
X4202Y29586D01*
Y29997D01*
D02*
G37*
G36*
X25750Y29700D02*
X25454D01*
X25459Y29659D01*
X25469Y29635D01*
X24850Y29016D01*
Y28700D01*
X25146D01*
X25141Y28741D01*
X25106Y28827D01*
X25100Y28834D01*
X25685Y29419D01*
X25709Y29409D01*
X25750Y29404D01*
Y29700D01*
D02*
G37*
G36*
X21300Y30953D02*
X21209Y30941D01*
X21123Y30906D01*
X21050Y30850D01*
X20994Y30777D01*
X20959Y30691D01*
X20947Y30600D01*
X20959Y30509D01*
X20994Y30423D01*
X21050Y30350D01*
X21123Y30294D01*
X21147Y30285D01*
Y29613D01*
X20715Y29181D01*
X20691Y29191D01*
X20600Y29203D01*
X20509Y29191D01*
X20423Y29156D01*
X20350Y29100D01*
X20294Y29027D01*
X20259Y28941D01*
X20247Y28850D01*
X20259Y28759D01*
X20266Y28742D01*
X20238Y28700D01*
X13452D01*
X13452Y30600D01*
X13444Y30639D01*
X13422Y30672D01*
X13389Y30694D01*
X13350Y30702D01*
X12362D01*
X12346Y30699D01*
X12330Y30697D01*
X12327Y30695D01*
X12323Y30694D01*
X12310Y30685D01*
X12295Y30677D01*
X12293Y30674D01*
X12290Y30672D01*
X12289Y30671D01*
X12233Y30651D01*
X12227Y30656D01*
X12141Y30691D01*
X12050Y30703D01*
X11959Y30691D01*
X11873Y30656D01*
X11851Y30657D01*
X11811Y30671D01*
X11810Y30672D01*
X11807Y30674D01*
X11805Y30677D01*
X11790Y30685D01*
X11777Y30694D01*
X11773Y30695D01*
X11770Y30697D01*
X11754Y30699D01*
X11738Y30702D01*
X10412D01*
X10396Y30699D01*
X10380Y30697D01*
X10377Y30695D01*
X10373Y30694D01*
X10360Y30685D01*
X10345Y30677D01*
X10343Y30674D01*
X10340Y30672D01*
X10339Y30671D01*
X10283Y30651D01*
X10277Y30656D01*
X10191Y30691D01*
X10100Y30703D01*
X10009Y30691D01*
X9923Y30656D01*
X9901Y30657D01*
X9861Y30671D01*
X9860Y30672D01*
X9857Y30674D01*
X9855Y30677D01*
X9840Y30685D01*
X9827Y30694D01*
X9823Y30695D01*
X9820Y30697D01*
X9804Y30699D01*
X9788Y30702D01*
X8512D01*
X8496Y30699D01*
X8480Y30697D01*
X8477Y30695D01*
X8473Y30694D01*
X8460Y30685D01*
X8445Y30677D01*
X8443Y30674D01*
X8440Y30672D01*
X8439Y30671D01*
X8383Y30651D01*
X8377Y30656D01*
X8291Y30691D01*
X8200Y30703D01*
X8109Y30691D01*
X8023Y30656D01*
X8001Y30657D01*
X7961Y30671D01*
X7960Y30672D01*
X7957Y30674D01*
X7955Y30677D01*
X7940Y30685D01*
X7927Y30694D01*
X7923Y30695D01*
X7920Y30697D01*
X7904Y30699D01*
X7888Y30702D01*
X6612D01*
X6596Y30699D01*
X6580Y30697D01*
X6577Y30695D01*
X6573Y30694D01*
X6560Y30685D01*
X6545Y30677D01*
X6543Y30674D01*
X6540Y30672D01*
X6539Y30671D01*
X6483Y30651D01*
X6477Y30656D01*
X6391Y30691D01*
X6300Y30703D01*
X6209Y30691D01*
X6123Y30656D01*
X6101Y30657D01*
X6061Y30671D01*
X6060Y30672D01*
X6057Y30674D01*
X6055Y30677D01*
X6040Y30685D01*
X6027Y30694D01*
X6023Y30695D01*
X6020Y30697D01*
X6004Y30699D01*
X5988Y30702D01*
X5745D01*
X5726Y30698D01*
X5706Y30694D01*
X5706Y30694D01*
X5706Y30694D01*
X5690Y30683D01*
X5673Y30673D01*
X5673Y30672D01*
X5673Y30672D01*
X5662Y30656D01*
X5651Y30640D01*
X5651Y30639D01*
X5651Y30639D01*
X5647Y30620D01*
X5643Y30601D01*
X5641Y30380D01*
X5594Y30364D01*
X5583Y30378D01*
X5486Y30453D01*
X5373Y30499D01*
X5252Y30515D01*
X5131Y30499D01*
X5018Y30453D01*
X4921Y30378D01*
X4847Y30281D01*
X4800Y30168D01*
X4784Y30047D01*
X4800Y29926D01*
X4847Y29813D01*
X4921Y29716D01*
X5018Y29642D01*
X5131Y29595D01*
X5252Y29579D01*
X5373Y29595D01*
X5486Y29642D01*
X5583Y29716D01*
X5589Y29724D01*
X5637Y29708D01*
X5634Y29389D01*
X5587Y29373D01*
X5583Y29378D01*
X5486Y29453D01*
X5373Y29499D01*
X5252Y29515D01*
X5131Y29499D01*
X5018Y29453D01*
X4921Y29378D01*
X4847Y29281D01*
X4800Y29168D01*
X4784Y29047D01*
X4800Y28926D01*
X4847Y28813D01*
X4921Y28716D01*
X5018Y28642D01*
X5131Y28595D01*
X5252Y28579D01*
X5373Y28595D01*
X5486Y28642D01*
X5550Y28691D01*
X5600Y28666D01*
Y28454D01*
X5599Y28453D01*
X3689D01*
X3631Y28441D01*
X3581Y28408D01*
X3042Y27869D01*
X3009Y27819D01*
X2997Y27761D01*
Y25149D01*
X3009Y25091D01*
X3042Y25041D01*
X3833Y24250D01*
X3800Y24168D01*
X3784Y24047D01*
X3800Y23926D01*
X3847Y23813D01*
X3921Y23716D01*
X4018Y23642D01*
X4131Y23595D01*
X4252Y23579D01*
X4373Y23595D01*
X4486Y23642D01*
X4583Y23716D01*
X4657Y23813D01*
X4704Y23926D01*
X4720Y24047D01*
X4704Y24168D01*
X4657Y24281D01*
X4583Y24378D01*
X4486Y24453D01*
X4373Y24499D01*
X4252Y24515D01*
X4131Y24499D01*
X4050Y24466D01*
X3303Y25213D01*
Y25715D01*
X3349Y25734D01*
X3833Y25250D01*
X3800Y25168D01*
X3784Y25047D01*
X3800Y24926D01*
X3847Y24813D01*
X3921Y24716D01*
X4018Y24642D01*
X4131Y24595D01*
X4252Y24579D01*
X4373Y24595D01*
X4486Y24642D01*
X4583Y24716D01*
X4657Y24813D01*
X4704Y24926D01*
X4720Y25047D01*
X4704Y25168D01*
X4657Y25281D01*
X4583Y25378D01*
X4486Y25453D01*
X4373Y25499D01*
X4252Y25515D01*
X4131Y25499D01*
X4050Y25466D01*
X3665Y25851D01*
X3689Y25897D01*
X3703Y25894D01*
X3813D01*
X3847Y25813D01*
X3921Y25716D01*
X4018Y25642D01*
X4131Y25595D01*
X4252Y25579D01*
X4373Y25595D01*
X4486Y25642D01*
X4583Y25716D01*
X4657Y25813D01*
X4704Y25926D01*
X4720Y26047D01*
X4704Y26168D01*
X4657Y26281D01*
X4583Y26378D01*
X4486Y26453D01*
X4373Y26499D01*
X4252Y26515D01*
X4131Y26499D01*
X4018Y26453D01*
X3921Y26378D01*
X3847Y26281D01*
X3813Y26200D01*
X3766D01*
X3703Y26263D01*
Y27532D01*
X3918Y27747D01*
X4670D01*
X4689Y27701D01*
X4500Y27511D01*
X3788D01*
Y26583D01*
X4716D01*
Y27295D01*
X4968Y27547D01*
X5121D01*
X5131Y27499D01*
X5018Y27453D01*
X4921Y27378D01*
X4847Y27281D01*
X4800Y27168D01*
X4784Y27047D01*
X4800Y26926D01*
X4847Y26813D01*
X4921Y26716D01*
X5018Y26642D01*
X5131Y26595D01*
X5252Y26579D01*
X5373Y26595D01*
X5486Y26642D01*
X5550Y26691D01*
X5600Y26666D01*
Y26428D01*
X5550Y26404D01*
X5486Y26453D01*
X5373Y26499D01*
X5252Y26515D01*
X5131Y26499D01*
X5018Y26453D01*
X4921Y26378D01*
X4847Y26281D01*
X4800Y26168D01*
X4784Y26047D01*
X4800Y25926D01*
X4847Y25813D01*
X4921Y25716D01*
X5018Y25642D01*
X5131Y25595D01*
X5252Y25579D01*
X5373Y25595D01*
X5486Y25642D01*
X5550Y25691D01*
X5600Y25666D01*
Y25428D01*
X5550Y25404D01*
X5486Y25453D01*
X5373Y25499D01*
X5252Y25515D01*
X5131Y25499D01*
X5018Y25453D01*
X4921Y25378D01*
X4847Y25281D01*
X4800Y25168D01*
X4784Y25047D01*
X4800Y24926D01*
X4847Y24813D01*
X4921Y24716D01*
X5018Y24642D01*
X5131Y24595D01*
X5252Y24579D01*
X5373Y24595D01*
X5486Y24642D01*
X5550Y24691D01*
X5600Y24666D01*
Y24428D01*
X5550Y24404D01*
X5486Y24453D01*
X5373Y24499D01*
X5252Y24515D01*
X5131Y24499D01*
X5018Y24453D01*
X4921Y24378D01*
X4847Y24281D01*
X4800Y24168D01*
X4784Y24047D01*
X4800Y23926D01*
X4847Y23813D01*
X4921Y23716D01*
X5018Y23642D01*
X5131Y23595D01*
X5252Y23579D01*
X5373Y23595D01*
X5486Y23642D01*
X5550Y23691D01*
X5600Y23666D01*
Y23428D01*
X5550Y23404D01*
X5486Y23453D01*
X5373Y23499D01*
X5252Y23515D01*
X5131Y23499D01*
X5018Y23453D01*
X4921Y23378D01*
X4847Y23281D01*
X4800Y23168D01*
X4784Y23047D01*
X4800Y22926D01*
X4847Y22813D01*
X4921Y22716D01*
X5018Y22642D01*
X5131Y22595D01*
X5252Y22579D01*
X5373Y22595D01*
X5486Y22642D01*
X5550Y22691D01*
X5600Y22666D01*
Y22428D01*
X5550Y22404D01*
X5486Y22453D01*
X5373Y22499D01*
X5302Y22509D01*
Y22047D01*
Y21586D01*
X5373Y21595D01*
X5486Y21642D01*
X5550Y21691D01*
X5600Y21666D01*
Y21428D01*
X5550Y21404D01*
X5486Y21453D01*
X5373Y21499D01*
X5252Y21515D01*
X5131Y21499D01*
X5018Y21453D01*
X4921Y21378D01*
X4847Y21281D01*
X4800Y21168D01*
X4784Y21047D01*
X4800Y20926D01*
X4847Y20813D01*
X4921Y20716D01*
X5018Y20642D01*
X5131Y20595D01*
X5252Y20579D01*
X5373Y20595D01*
X5486Y20642D01*
X5550Y20691D01*
X5600Y20666D01*
Y20428D01*
X5550Y20404D01*
X5486Y20453D01*
X5373Y20499D01*
X5252Y20515D01*
X5131Y20499D01*
X5018Y20453D01*
X4921Y20378D01*
X4847Y20281D01*
X4800Y20168D01*
X4784Y20047D01*
X4800Y19926D01*
X4847Y19813D01*
X4921Y19716D01*
X5018Y19642D01*
X5131Y19595D01*
X5252Y19579D01*
X5373Y19595D01*
X5454Y19629D01*
X5600Y19483D01*
Y19428D01*
X5596Y19424D01*
X5595Y19424D01*
X5595Y19423D01*
X5547Y19415D01*
X5531Y19418D01*
X5531Y19418D01*
X5486Y19453D01*
X5373Y19499D01*
X5252Y19515D01*
X5131Y19499D01*
X5018Y19453D01*
X4921Y19378D01*
X4847Y19281D01*
X4800Y19168D01*
X4784Y19047D01*
X4800Y18926D01*
X4847Y18813D01*
X4921Y18716D01*
X5018Y18642D01*
X5131Y18595D01*
X5252Y18579D01*
X5373Y18595D01*
X5454Y18629D01*
X5600Y18483D01*
Y18428D01*
X5550Y18404D01*
X5486Y18453D01*
X5373Y18499D01*
X5252Y18515D01*
X5131Y18499D01*
X5018Y18453D01*
X4921Y18378D01*
X4847Y18281D01*
X4800Y18168D01*
X4784Y18047D01*
X4800Y17926D01*
X4847Y17813D01*
X4921Y17716D01*
X5018Y17642D01*
X5131Y17595D01*
X5252Y17579D01*
X5373Y17595D01*
X5454Y17629D01*
X5600Y17483D01*
Y17428D01*
X5550Y17404D01*
X5486Y17453D01*
X5373Y17499D01*
X5252Y17515D01*
X5131Y17499D01*
X5018Y17453D01*
X4921Y17378D01*
X4847Y17281D01*
X4800Y17168D01*
X4784Y17047D01*
X4800Y16926D01*
X4847Y16813D01*
X4921Y16716D01*
X5018Y16642D01*
X5131Y16595D01*
X5252Y16579D01*
X5373Y16595D01*
X5454Y16629D01*
X5600Y16483D01*
Y16428D01*
X5550Y16404D01*
X5486Y16453D01*
X5373Y16499D01*
X5252Y16515D01*
X5131Y16499D01*
X5018Y16453D01*
X4921Y16378D01*
X4847Y16281D01*
X4800Y16168D01*
X4784Y16047D01*
X4800Y15926D01*
X4847Y15813D01*
X4921Y15716D01*
X5018Y15642D01*
X5131Y15595D01*
X5252Y15579D01*
X5373Y15595D01*
X5486Y15642D01*
X5563Y15701D01*
X5613Y15676D01*
Y15418D01*
X5563Y15394D01*
X5486Y15453D01*
X5373Y15499D01*
X5252Y15515D01*
X5131Y15499D01*
X5018Y15453D01*
X4921Y15378D01*
X4847Y15281D01*
X4800Y15168D01*
X4784Y15047D01*
X4800Y14926D01*
X4847Y14813D01*
X4921Y14716D01*
X5018Y14642D01*
X5131Y14595D01*
X5252Y14579D01*
X5373Y14595D01*
X5486Y14642D01*
X5563Y14701D01*
X5613Y14676D01*
Y14418D01*
X5563Y14394D01*
X5486Y14453D01*
X5373Y14499D01*
X5252Y14515D01*
X5131Y14499D01*
X5018Y14453D01*
X4921Y14378D01*
X4847Y14281D01*
X4800Y14168D01*
X4784Y14047D01*
X4800Y13926D01*
X4847Y13813D01*
X4921Y13716D01*
X5018Y13642D01*
X5131Y13595D01*
X5252Y13579D01*
X5373Y13595D01*
X5486Y13642D01*
X5563Y13701D01*
X5613Y13676D01*
Y13418D01*
X5563Y13393D01*
X5486Y13453D01*
X5373Y13499D01*
X5252Y13515D01*
X5131Y13499D01*
X5018Y13453D01*
X4921Y13378D01*
X4847Y13281D01*
X4800Y13168D01*
X4784Y13047D01*
X4800Y12926D01*
X4847Y12813D01*
X4921Y12716D01*
X5018Y12642D01*
X5131Y12595D01*
X5252Y12579D01*
X5373Y12595D01*
X5486Y12642D01*
X5583Y12716D01*
X5640Y12790D01*
X5702Y12799D01*
X6609Y11892D01*
X6659Y11859D01*
X6698Y11851D01*
X6698Y11850D01*
Y11608D01*
X6697Y11600D01*
X6698Y11592D01*
Y11350D01*
X6706Y11311D01*
X6728Y11278D01*
X6761Y11256D01*
X6800Y11248D01*
X7042D01*
X7050Y11247D01*
X7058Y11248D01*
X7992D01*
X8000Y11247D01*
X8008Y11248D01*
X8350D01*
X8389Y11256D01*
X8422Y11278D01*
X8444Y11311D01*
X8452Y11350D01*
Y11847D01*
X22454D01*
X22459Y11809D01*
X22494Y11723D01*
X22550Y11650D01*
X22623Y11594D01*
X22709Y11559D01*
X22800Y11547D01*
X22891Y11559D01*
X22977Y11594D01*
X23050Y11650D01*
X23106Y11723D01*
X23141Y11809D01*
X23153Y11900D01*
X23141Y11991D01*
X23106Y12077D01*
X23050Y12150D01*
X22977Y12206D01*
X22891Y12241D01*
X22800Y12253D01*
X22709Y12241D01*
X22623Y12206D01*
X22555Y12153D01*
X19858D01*
X19836Y12198D01*
X19856Y12223D01*
X19891Y12309D01*
X19903Y12400D01*
X19891Y12491D01*
X19856Y12577D01*
X19800Y12650D01*
X19727Y12706D01*
X19641Y12741D01*
X19550Y12753D01*
X19459Y12741D01*
X19373Y12706D01*
X19300Y12650D01*
X19244Y12577D01*
X19235Y12553D01*
X18279D01*
X17981Y12851D01*
X18000Y12897D01*
X20465D01*
X20500Y12850D01*
X20573Y12794D01*
X20659Y12759D01*
X20750Y12747D01*
X20841Y12759D01*
X20927Y12794D01*
X21000Y12850D01*
X21056Y12923D01*
X21091Y13009D01*
X21103Y13100D01*
X21091Y13191D01*
X21056Y13277D01*
X21000Y13350D01*
X20927Y13406D01*
X20841Y13441D01*
X20750Y13453D01*
X20659Y13441D01*
X20573Y13406D01*
X20500Y13350D01*
X20444Y13277D01*
X20414Y13203D01*
X16650D01*
X16591Y13191D01*
X16542Y13158D01*
X16387Y13003D01*
X6779D01*
X6519Y13263D01*
Y16400D01*
X21800D01*
X21900Y16500D01*
Y16669D01*
X21950Y16694D01*
X22018Y16642D01*
X22131Y16595D01*
X22252Y16579D01*
X22373Y16595D01*
X22486Y16642D01*
X22583Y16716D01*
X22657Y16813D01*
X22704Y16926D01*
X22720Y17047D01*
X22704Y17168D01*
X22657Y17281D01*
X22583Y17378D01*
X22486Y17453D01*
X22373Y17499D01*
X22252Y17515D01*
X22131Y17499D01*
X22018Y17453D01*
X21950Y17401D01*
X21900Y17425D01*
Y17669D01*
X21950Y17694D01*
X22018Y17642D01*
X22131Y17595D01*
X22252Y17579D01*
X22373Y17595D01*
X22486Y17642D01*
X22583Y17716D01*
X22657Y17813D01*
X22704Y17926D01*
X22720Y18047D01*
X22704Y18168D01*
X22657Y18281D01*
X22583Y18378D01*
X22486Y18453D01*
X22373Y18499D01*
X22252Y18515D01*
X22131Y18499D01*
X22018Y18453D01*
X21950Y18401D01*
X21900Y18425D01*
Y18669D01*
X21950Y18694D01*
X22018Y18642D01*
X22131Y18595D01*
X22252Y18579D01*
X22373Y18595D01*
X22486Y18642D01*
X22583Y18716D01*
X22657Y18813D01*
X22704Y18926D01*
X22720Y19047D01*
X22704Y19168D01*
X22657Y19281D01*
X22583Y19378D01*
X22486Y19453D01*
X22373Y19499D01*
X22252Y19515D01*
X22131Y19499D01*
X22018Y19453D01*
X21950Y19401D01*
X21900Y19425D01*
Y19669D01*
X21950Y19694D01*
X22018Y19642D01*
X22131Y19595D01*
X22252Y19579D01*
X22373Y19595D01*
X22486Y19642D01*
X22583Y19716D01*
X22657Y19813D01*
X22704Y19926D01*
X22720Y20047D01*
X22704Y20168D01*
X22657Y20281D01*
X22583Y20378D01*
X22486Y20453D01*
X22373Y20499D01*
X22252Y20515D01*
X22131Y20499D01*
X22018Y20453D01*
X21950Y20401D01*
X21900Y20425D01*
Y20669D01*
X21950Y20694D01*
X22018Y20642D01*
X22131Y20595D01*
X22202Y20586D01*
Y21047D01*
Y21509D01*
X22131Y21499D01*
X22018Y21453D01*
X21950Y21401D01*
X21900Y21425D01*
Y21669D01*
X21950Y21694D01*
X22018Y21642D01*
X22131Y21595D01*
X22252Y21579D01*
X22373Y21595D01*
X22486Y21642D01*
X22583Y21716D01*
X22657Y21813D01*
X22704Y21926D01*
X22720Y22047D01*
X22704Y22168D01*
X22657Y22281D01*
X22583Y22378D01*
X22486Y22453D01*
X22373Y22499D01*
X22252Y22515D01*
X22131Y22499D01*
X22018Y22453D01*
X21950Y22401D01*
X21900Y22425D01*
Y22669D01*
X21950Y22694D01*
X22018Y22642D01*
X22131Y22595D01*
X22252Y22579D01*
X22373Y22595D01*
X22486Y22642D01*
X22583Y22716D01*
X22657Y22813D01*
X22704Y22926D01*
X22720Y23047D01*
X22704Y23168D01*
X22657Y23281D01*
X22583Y23378D01*
X22486Y23453D01*
X22373Y23499D01*
X22252Y23515D01*
X22131Y23499D01*
X22018Y23453D01*
X21950Y23401D01*
X21900Y23425D01*
Y23669D01*
X21950Y23694D01*
X22018Y23642D01*
X22131Y23595D01*
X22252Y23579D01*
X22373Y23595D01*
X22486Y23642D01*
X22583Y23716D01*
X22657Y23813D01*
X22704Y23926D01*
X22720Y24047D01*
X22704Y24168D01*
X22657Y24281D01*
X22583Y24378D01*
X22486Y24453D01*
X22373Y24499D01*
X22252Y24515D01*
X22131Y24499D01*
X22018Y24453D01*
X21950Y24401D01*
X21900Y24425D01*
Y24669D01*
X21950Y24694D01*
X22018Y24642D01*
X22131Y24595D01*
X22252Y24579D01*
X22373Y24595D01*
X22486Y24642D01*
X22583Y24716D01*
X22657Y24813D01*
X22704Y24926D01*
X22720Y25047D01*
X22704Y25168D01*
X22657Y25281D01*
X22583Y25378D01*
X22486Y25453D01*
X22373Y25499D01*
X22252Y25515D01*
X22131Y25499D01*
X22018Y25453D01*
X21950Y25401D01*
X21900Y25425D01*
Y25479D01*
X22050Y25629D01*
X22131Y25595D01*
X22252Y25579D01*
X22373Y25595D01*
X22486Y25642D01*
X22583Y25716D01*
X22657Y25813D01*
X22704Y25926D01*
X22720Y26047D01*
X22704Y26168D01*
X22657Y26281D01*
X22583Y26378D01*
X22486Y26453D01*
X22373Y26499D01*
X22252Y26515D01*
X22131Y26499D01*
X22018Y26453D01*
X21950Y26401D01*
X21900Y26425D01*
Y26669D01*
X21950Y26694D01*
X22018Y26642D01*
X22131Y26595D01*
X22202Y26586D01*
Y27047D01*
X22252D01*
Y27097D01*
X22714D01*
X22704Y27168D01*
X22688Y27208D01*
X22715Y27250D01*
X22779D01*
X22779Y27250D01*
Y27250D01*
X22811Y27216D01*
X22816Y27208D01*
X22800Y27168D01*
X22784Y27047D01*
X22800Y26926D01*
X22847Y26813D01*
X22921Y26716D01*
X23018Y26642D01*
X23131Y26595D01*
X23252Y26579D01*
X23373Y26595D01*
X23486Y26642D01*
X23583Y26716D01*
X23657Y26813D01*
X23704Y26926D01*
X23720Y27047D01*
X23704Y27168D01*
X23657Y27281D01*
X23583Y27378D01*
X23486Y27453D01*
X23373Y27499D01*
X23252Y27515D01*
X23131Y27499D01*
X23018Y27453D01*
X22921Y27378D01*
X22887Y27334D01*
X22823Y27327D01*
X22800Y27347D01*
Y27640D01*
X22802Y27650D01*
X22800Y27660D01*
Y27804D01*
X22823Y27808D01*
X22850Y27809D01*
X22921Y27716D01*
X23018Y27642D01*
X23131Y27595D01*
X23252Y27579D01*
X23373Y27595D01*
X23486Y27642D01*
X23583Y27716D01*
X23657Y27813D01*
X23704Y27926D01*
X23720Y28047D01*
X23704Y28168D01*
X23657Y28281D01*
X23583Y28378D01*
X23486Y28453D01*
X23373Y28499D01*
X23252Y28515D01*
X23131Y28499D01*
X23018Y28453D01*
X22921Y28378D01*
X22850Y28286D01*
X22823Y28286D01*
X22800Y28291D01*
Y28700D01*
X22716D01*
Y29511D01*
X21788D01*
Y28700D01*
X20962D01*
X20934Y28742D01*
X20941Y28759D01*
X20953Y28850D01*
X20941Y28941D01*
X20931Y28965D01*
X21408Y29442D01*
X21441Y29491D01*
X21453Y29550D01*
Y30285D01*
X21477Y30294D01*
X21550Y30350D01*
X21606Y30423D01*
X21641Y30509D01*
X21653Y30600D01*
X21641Y30691D01*
X21606Y30777D01*
X21550Y30850D01*
X21477Y30906D01*
X21391Y30941D01*
X21300Y30953D01*
D02*
G37*
G36*
X24750Y28996D02*
X24709Y28991D01*
X24623Y28956D01*
X24550Y28900D01*
X24494Y28827D01*
X24459Y28741D01*
X24454Y28700D01*
X24750D01*
Y28996D01*
D02*
G37*
G36*
X23252Y29515D02*
X23131Y29499D01*
X23018Y29453D01*
X22921Y29378D01*
X22847Y29281D01*
X22800Y29168D01*
X22784Y29047D01*
X22800Y28926D01*
X22847Y28813D01*
X22921Y28716D01*
X23018Y28642D01*
X23131Y28595D01*
X23252Y28579D01*
X23373Y28595D01*
X23486Y28642D01*
X23583Y28716D01*
X23657Y28813D01*
X23704Y28926D01*
X23720Y29047D01*
X23704Y29168D01*
X23657Y29281D01*
X23583Y29378D01*
X23486Y29453D01*
X23373Y29499D01*
X23252Y29515D01*
D02*
G37*
G36*
X4252D02*
X4131Y29499D01*
X4018Y29453D01*
X3921Y29378D01*
X3847Y29281D01*
X3800Y29168D01*
X3784Y29047D01*
X3800Y28926D01*
X3847Y28813D01*
X3921Y28716D01*
X4018Y28642D01*
X4131Y28595D01*
X4252Y28579D01*
X4373Y28595D01*
X4486Y28642D01*
X4583Y28716D01*
X4657Y28813D01*
X4704Y28926D01*
X4720Y29047D01*
X4704Y29168D01*
X4657Y29281D01*
X4583Y29378D01*
X4486Y29453D01*
X4373Y29499D01*
X4252Y29515D01*
D02*
G37*
G36*
X25146Y28600D02*
X24850D01*
Y28304D01*
X24891Y28309D01*
X24977Y28344D01*
X25050Y28400D01*
X25106Y28473D01*
X25141Y28559D01*
X25146Y28600D01*
D02*
G37*
G36*
X24750D02*
X24454D01*
X24459Y28559D01*
X24494Y28473D01*
X24550Y28400D01*
X24623Y28344D01*
X24709Y28309D01*
X24750Y28304D01*
Y28600D01*
D02*
G37*
G36*
X22714Y26997D02*
X22302D01*
Y26586D01*
X22373Y26595D01*
X22486Y26642D01*
X22583Y26716D01*
X22657Y26813D01*
X22704Y26926D01*
X22714Y26997D01*
D02*
G37*
G36*
X23252Y26515D02*
X23131Y26499D01*
X23018Y26453D01*
X22921Y26378D01*
X22847Y26281D01*
X22800Y26168D01*
X22784Y26047D01*
X22800Y25926D01*
X22847Y25813D01*
X22921Y25716D01*
X23018Y25642D01*
X23131Y25595D01*
X23252Y25579D01*
X23373Y25595D01*
X23486Y25642D01*
X23583Y25716D01*
X23657Y25813D01*
X23704Y25926D01*
X23720Y26047D01*
X23704Y26168D01*
X23657Y26281D01*
X23583Y26378D01*
X23486Y26453D01*
X23373Y26499D01*
X23252Y26515D01*
D02*
G37*
G36*
Y25515D02*
X23131Y25499D01*
X23018Y25453D01*
X22921Y25378D01*
X22847Y25281D01*
X22800Y25168D01*
X22784Y25047D01*
X22800Y24926D01*
X22847Y24813D01*
X22921Y24716D01*
X23018Y24642D01*
X23131Y24595D01*
X23252Y24579D01*
X23373Y24595D01*
X23486Y24642D01*
X23583Y24716D01*
X23657Y24813D01*
X23704Y24926D01*
X23720Y25047D01*
X23704Y25168D01*
X23657Y25281D01*
X23583Y25378D01*
X23486Y25453D01*
X23373Y25499D01*
X23252Y25515D01*
D02*
G37*
G36*
Y24515D02*
X23131Y24499D01*
X23018Y24453D01*
X22921Y24378D01*
X22847Y24281D01*
X22800Y24168D01*
X22784Y24047D01*
X22800Y23926D01*
X22847Y23813D01*
X22921Y23716D01*
X23018Y23642D01*
X23131Y23595D01*
X23252Y23579D01*
X23373Y23595D01*
X23486Y23642D01*
X23583Y23716D01*
X23657Y23813D01*
X23704Y23926D01*
X23720Y24047D01*
X23704Y24168D01*
X23657Y24281D01*
X23583Y24378D01*
X23486Y24453D01*
X23373Y24499D01*
X23252Y24515D01*
D02*
G37*
G36*
X25250Y24653D02*
X25159Y24641D01*
X25073Y24606D01*
X25000Y24550D01*
X24944Y24477D01*
X24909Y24391D01*
X24897Y24300D01*
X24909Y24209D01*
X24944Y24123D01*
X25000Y24050D01*
X25073Y23994D01*
X25159Y23959D01*
X25166Y23958D01*
X25257Y23868D01*
X25241Y23820D01*
X25209Y23816D01*
X25123Y23781D01*
X25050Y23725D01*
X24994Y23652D01*
X24959Y23566D01*
X24952Y23516D01*
X24563Y23127D01*
X23710D01*
X23704Y23168D01*
X23657Y23281D01*
X23583Y23378D01*
X23486Y23453D01*
X23373Y23499D01*
X23252Y23515D01*
X23131Y23499D01*
X23018Y23453D01*
X22921Y23378D01*
X22847Y23281D01*
X22800Y23168D01*
X22784Y23047D01*
X22800Y22926D01*
X22847Y22813D01*
X22921Y22716D01*
X23018Y22642D01*
X23131Y22595D01*
X23252Y22579D01*
X23373Y22595D01*
X23486Y22642D01*
X23583Y22716D01*
X23657Y22813D01*
X23661Y22821D01*
X24626D01*
X24685Y22832D01*
X24735Y22865D01*
X25075Y23206D01*
X25123Y23169D01*
X25209Y23134D01*
X25219Y23133D01*
X25235Y23085D01*
X24350Y22200D01*
X23691D01*
X23657Y22281D01*
X23583Y22378D01*
X23486Y22453D01*
X23373Y22499D01*
X23252Y22515D01*
X23131Y22499D01*
X23018Y22453D01*
X22921Y22378D01*
X22847Y22281D01*
X22800Y22168D01*
X22784Y22047D01*
X22800Y21926D01*
X22847Y21813D01*
X22921Y21716D01*
X23018Y21642D01*
X23131Y21595D01*
X23252Y21579D01*
X23373Y21595D01*
X23486Y21642D01*
X23583Y21716D01*
X23657Y21813D01*
X23691Y21894D01*
X24413D01*
X24471Y21906D01*
X24521Y21939D01*
X25514Y22932D01*
X25524Y22934D01*
X25574Y22967D01*
X25808Y23201D01*
X25841Y23251D01*
X25853Y23309D01*
Y23641D01*
X25841Y23699D01*
X25808Y23749D01*
X25503Y24054D01*
X25556Y24123D01*
X25591Y24209D01*
X25603Y24300D01*
X25591Y24391D01*
X25556Y24477D01*
X25500Y24550D01*
X25427Y24606D01*
X25341Y24641D01*
X25250Y24653D01*
D02*
G37*
G36*
X4252Y23515D02*
X4131Y23499D01*
X4018Y23453D01*
X3921Y23378D01*
X3847Y23281D01*
X3800Y23168D01*
X3784Y23047D01*
X3800Y22926D01*
X3847Y22813D01*
X3921Y22716D01*
X4018Y22642D01*
X4131Y22595D01*
X4252Y22579D01*
X4373Y22595D01*
X4486Y22642D01*
X4583Y22716D01*
X4657Y22813D01*
X4704Y22926D01*
X4720Y23047D01*
X4704Y23168D01*
X4657Y23281D01*
X4583Y23378D01*
X4486Y23453D01*
X4373Y23499D01*
X4252Y23515D01*
D02*
G37*
G36*
X5202Y22509D02*
X5131Y22499D01*
X5018Y22453D01*
X4921Y22378D01*
X4847Y22281D01*
X4800Y22168D01*
X4790Y22097D01*
X5202D01*
Y22509D01*
D02*
G37*
G36*
Y21997D02*
X4790D01*
X4800Y21926D01*
X4847Y21813D01*
X4921Y21716D01*
X5018Y21642D01*
X5131Y21595D01*
X5202Y21586D01*
Y21997D01*
D02*
G37*
G36*
X4252Y22515D02*
X4131Y22499D01*
X4018Y22453D01*
X3921Y22378D01*
X3847Y22281D01*
X3800Y22168D01*
X3784Y22047D01*
X3800Y21926D01*
X3847Y21813D01*
X3921Y21716D01*
X4018Y21642D01*
X4131Y21595D01*
X4252Y21579D01*
X4373Y21595D01*
X4486Y21642D01*
X4583Y21716D01*
X4657Y21813D01*
X4704Y21926D01*
X4720Y22047D01*
X4704Y22168D01*
X4657Y22281D01*
X4583Y22378D01*
X4486Y22453D01*
X4373Y22499D01*
X4252Y22515D01*
D02*
G37*
G36*
X22302Y21509D02*
Y21097D01*
X22714D01*
X22704Y21168D01*
X22657Y21281D01*
X22583Y21378D01*
X22486Y21453D01*
X22373Y21499D01*
X22302Y21509D01*
D02*
G37*
G36*
X22714Y20997D02*
X22302D01*
Y20586D01*
X22373Y20595D01*
X22486Y20642D01*
X22583Y20716D01*
X22657Y20813D01*
X22704Y20926D01*
X22714Y20997D01*
D02*
G37*
G36*
X23252Y21515D02*
X23131Y21499D01*
X23018Y21453D01*
X22921Y21378D01*
X22847Y21281D01*
X22800Y21168D01*
X22784Y21047D01*
X22800Y20926D01*
X22847Y20813D01*
X22921Y20716D01*
X23018Y20642D01*
X23131Y20595D01*
X23252Y20579D01*
X23373Y20595D01*
X23486Y20642D01*
X23583Y20716D01*
X23657Y20813D01*
X23704Y20926D01*
X23720Y21047D01*
X23704Y21168D01*
X23657Y21281D01*
X23583Y21378D01*
X23486Y21453D01*
X23373Y21499D01*
X23252Y21515D01*
D02*
G37*
G36*
X4252D02*
X4131Y21499D01*
X4018Y21453D01*
X3921Y21378D01*
X3847Y21281D01*
X3800Y21168D01*
X3784Y21047D01*
X3800Y20926D01*
X3847Y20813D01*
X3921Y20716D01*
X4018Y20642D01*
X4131Y20595D01*
X4252Y20579D01*
X4373Y20595D01*
X4486Y20642D01*
X4583Y20716D01*
X4657Y20813D01*
X4704Y20926D01*
X4720Y21047D01*
X4704Y21168D01*
X4657Y21281D01*
X4583Y21378D01*
X4486Y21453D01*
X4373Y21499D01*
X4252Y21515D01*
D02*
G37*
G36*
X23252Y20515D02*
X23131Y20499D01*
X23018Y20453D01*
X22921Y20378D01*
X22847Y20281D01*
X22800Y20168D01*
X22784Y20047D01*
X22800Y19926D01*
X22847Y19813D01*
X22921Y19716D01*
X23018Y19642D01*
X23131Y19595D01*
X23252Y19579D01*
X23373Y19595D01*
X23486Y19642D01*
X23583Y19716D01*
X23657Y19813D01*
X23704Y19926D01*
X23720Y20047D01*
X23704Y20168D01*
X23657Y20281D01*
X23583Y20378D01*
X23486Y20453D01*
X23373Y20499D01*
X23252Y20515D01*
D02*
G37*
G36*
X4252D02*
X4131Y20499D01*
X4018Y20453D01*
X3921Y20378D01*
X3847Y20281D01*
X3800Y20168D01*
X3784Y20047D01*
X3800Y19926D01*
X3847Y19813D01*
X3921Y19716D01*
X4018Y19642D01*
X4131Y19595D01*
X4252Y19579D01*
X4373Y19595D01*
X4486Y19642D01*
X4583Y19716D01*
X4657Y19813D01*
X4704Y19926D01*
X4720Y20047D01*
X4704Y20168D01*
X4657Y20281D01*
X4583Y20378D01*
X4486Y20453D01*
X4373Y20499D01*
X4252Y20515D01*
D02*
G37*
G36*
X23302Y19509D02*
Y19097D01*
X23714D01*
X23704Y19168D01*
X23657Y19281D01*
X23583Y19378D01*
X23486Y19453D01*
X23373Y19499D01*
X23302Y19509D01*
D02*
G37*
G36*
X23202D02*
X23131Y19499D01*
X23018Y19453D01*
X22921Y19378D01*
X22847Y19281D01*
X22800Y19168D01*
X22790Y19097D01*
X23202D01*
Y19509D01*
D02*
G37*
G36*
Y18997D02*
X22790D01*
X22800Y18926D01*
X22847Y18813D01*
X22921Y18716D01*
X23018Y18642D01*
X23131Y18595D01*
X23202Y18586D01*
Y18997D01*
D02*
G37*
G36*
X23714D02*
X23302D01*
Y18586D01*
X23373Y18595D01*
X23486Y18642D01*
X23583Y18716D01*
X23657Y18813D01*
X23704Y18926D01*
X23714Y18997D01*
D02*
G37*
G36*
X4252Y19515D02*
X4131Y19499D01*
X4018Y19453D01*
X3921Y19378D01*
X3847Y19281D01*
X3800Y19168D01*
X3784Y19047D01*
X3800Y18926D01*
X3847Y18813D01*
X3921Y18716D01*
X4018Y18642D01*
X4131Y18595D01*
X4252Y18579D01*
X4373Y18595D01*
X4486Y18642D01*
X4583Y18716D01*
X4657Y18813D01*
X4704Y18926D01*
X4720Y19047D01*
X4704Y19168D01*
X4657Y19281D01*
X4583Y19378D01*
X4486Y19453D01*
X4373Y19499D01*
X4252Y19515D01*
D02*
G37*
G36*
X23252Y18515D02*
X23131Y18499D01*
X23018Y18453D01*
X22921Y18378D01*
X22847Y18281D01*
X22800Y18168D01*
X22784Y18047D01*
X22800Y17926D01*
X22847Y17813D01*
X22921Y17716D01*
X23018Y17642D01*
X23131Y17595D01*
X23252Y17579D01*
X23373Y17595D01*
X23486Y17642D01*
X23583Y17716D01*
X23657Y17813D01*
X23704Y17926D01*
X23720Y18047D01*
X23704Y18168D01*
X23657Y18281D01*
X23583Y18378D01*
X23486Y18453D01*
X23373Y18499D01*
X23252Y18515D01*
D02*
G37*
G36*
X4252D02*
X4131Y18499D01*
X4018Y18453D01*
X3921Y18378D01*
X3847Y18281D01*
X3800Y18168D01*
X3784Y18047D01*
X3800Y17926D01*
X3847Y17813D01*
X3921Y17716D01*
X4018Y17642D01*
X4131Y17595D01*
X4252Y17579D01*
X4373Y17595D01*
X4486Y17642D01*
X4583Y17716D01*
X4657Y17813D01*
X4704Y17926D01*
X4720Y18047D01*
X4704Y18168D01*
X4657Y18281D01*
X4583Y18378D01*
X4486Y18453D01*
X4373Y18499D01*
X4252Y18515D01*
D02*
G37*
G36*
X23252Y17515D02*
X23131Y17499D01*
X23018Y17453D01*
X22921Y17378D01*
X22847Y17281D01*
X22800Y17168D01*
X22784Y17047D01*
X22800Y16926D01*
X22847Y16813D01*
X22921Y16716D01*
X23018Y16642D01*
X23131Y16595D01*
X23252Y16579D01*
X23373Y16595D01*
X23486Y16642D01*
X23583Y16716D01*
X23657Y16813D01*
X23704Y16926D01*
X23720Y17047D01*
X23704Y17168D01*
X23657Y17281D01*
X23583Y17378D01*
X23486Y17453D01*
X23373Y17499D01*
X23252Y17515D01*
D02*
G37*
G36*
X4252D02*
X4131Y17499D01*
X4018Y17453D01*
X3921Y17378D01*
X3847Y17281D01*
X3800Y17168D01*
X3784Y17047D01*
X3800Y16926D01*
X3847Y16813D01*
X3921Y16716D01*
X4018Y16642D01*
X4131Y16595D01*
X4252Y16579D01*
X4373Y16595D01*
X4486Y16642D01*
X4583Y16716D01*
X4657Y16813D01*
X4704Y16926D01*
X4720Y17047D01*
X4704Y17168D01*
X4657Y17281D01*
X4583Y17378D01*
X4486Y17453D01*
X4373Y17499D01*
X4252Y17515D01*
D02*
G37*
G36*
X4302Y16509D02*
Y16097D01*
X4714D01*
X4704Y16168D01*
X4657Y16281D01*
X4583Y16378D01*
X4486Y16453D01*
X4373Y16499D01*
X4302Y16509D01*
D02*
G37*
G36*
X4202D02*
X4131Y16499D01*
X4018Y16453D01*
X3921Y16378D01*
X3847Y16281D01*
X3800Y16168D01*
X3790Y16097D01*
X4202D01*
Y16509D01*
D02*
G37*
G36*
X22302D02*
Y16097D01*
X22714D01*
X22704Y16168D01*
X22657Y16281D01*
X22583Y16378D01*
X22486Y16453D01*
X22373Y16499D01*
X22302Y16509D01*
D02*
G37*
G36*
X22202D02*
X22131Y16499D01*
X22018Y16453D01*
X21921Y16378D01*
X21847Y16281D01*
X21800Y16168D01*
X21790Y16097D01*
X22202D01*
Y16509D01*
D02*
G37*
G36*
Y15997D02*
X21790D01*
X21800Y15926D01*
X21847Y15813D01*
X21921Y15716D01*
X22018Y15642D01*
X22131Y15595D01*
X22202Y15586D01*
Y15997D01*
D02*
G37*
G36*
X4714Y15997D02*
X4302D01*
Y15586D01*
X4373Y15595D01*
X4486Y15642D01*
X4583Y15716D01*
X4657Y15813D01*
X4704Y15926D01*
X4714Y15997D01*
D02*
G37*
G36*
X4202D02*
X3790D01*
X3800Y15926D01*
X3847Y15813D01*
X3921Y15716D01*
X4018Y15642D01*
X4131Y15595D01*
X4202Y15586D01*
Y15997D01*
D02*
G37*
G36*
X22714Y15997D02*
X22302D01*
Y15586D01*
X22373Y15595D01*
X22486Y15642D01*
X22583Y15716D01*
X22657Y15813D01*
X22704Y15926D01*
X22714Y15997D01*
D02*
G37*
G36*
X23252Y16515D02*
X23131Y16499D01*
X23018Y16453D01*
X22921Y16378D01*
X22847Y16281D01*
X22800Y16168D01*
X22784Y16047D01*
X22800Y15926D01*
X22847Y15813D01*
X22921Y15716D01*
X23018Y15642D01*
X23131Y15595D01*
X23252Y15579D01*
X23373Y15595D01*
X23486Y15642D01*
X23583Y15716D01*
X23657Y15813D01*
X23704Y15926D01*
X23720Y16047D01*
X23704Y16168D01*
X23657Y16281D01*
X23583Y16378D01*
X23486Y16453D01*
X23373Y16499D01*
X23252Y16515D01*
D02*
G37*
G36*
Y15515D02*
X23131Y15499D01*
X23018Y15453D01*
X22921Y15378D01*
X22847Y15281D01*
X22800Y15168D01*
X22784Y15047D01*
X22800Y14926D01*
X22847Y14813D01*
X22921Y14716D01*
X23018Y14642D01*
X23131Y14595D01*
X23252Y14579D01*
X23373Y14595D01*
X23486Y14642D01*
X23583Y14716D01*
X23657Y14813D01*
X23704Y14926D01*
X23720Y15047D01*
X23704Y15168D01*
X23657Y15281D01*
X23583Y15378D01*
X23486Y15453D01*
X23373Y15499D01*
X23252Y15515D01*
D02*
G37*
G36*
X22252D02*
X22131Y15499D01*
X22018Y15453D01*
X21921Y15378D01*
X21847Y15281D01*
X21800Y15168D01*
X21784Y15047D01*
X21800Y14926D01*
X21847Y14813D01*
X21921Y14716D01*
X22018Y14642D01*
X22131Y14595D01*
X22252Y14579D01*
X22373Y14595D01*
X22486Y14642D01*
X22583Y14716D01*
X22657Y14813D01*
X22704Y14926D01*
X22720Y15047D01*
X22704Y15168D01*
X22657Y15281D01*
X22583Y15378D01*
X22486Y15453D01*
X22373Y15499D01*
X22252Y15515D01*
D02*
G37*
G36*
X4252D02*
X4131Y15499D01*
X4018Y15453D01*
X3921Y15378D01*
X3847Y15281D01*
X3800Y15168D01*
X3784Y15047D01*
X3800Y14926D01*
X3847Y14813D01*
X3921Y14716D01*
X4018Y14642D01*
X4131Y14595D01*
X4252Y14579D01*
X4373Y14595D01*
X4486Y14642D01*
X4583Y14716D01*
X4657Y14813D01*
X4704Y14926D01*
X4720Y15047D01*
X4704Y15168D01*
X4657Y15281D01*
X4583Y15378D01*
X4486Y15453D01*
X4373Y15499D01*
X4252Y15515D01*
D02*
G37*
G36*
X20000Y14053D02*
X19992Y14052D01*
X19058D01*
X19050Y14053D01*
X19042Y14052D01*
X18800D01*
X18761Y14044D01*
X18728Y14022D01*
X18706Y13989D01*
X18698Y13950D01*
Y13708D01*
X18697Y13700D01*
X18698Y13692D01*
Y13450D01*
X18706Y13411D01*
X18728Y13378D01*
X18761Y13356D01*
X18800Y13348D01*
X19042D01*
X19050Y13347D01*
X19058Y13348D01*
X19992D01*
X20000Y13347D01*
X20008Y13348D01*
X20350D01*
X20389Y13356D01*
X20422Y13378D01*
X20444Y13411D01*
X20452Y13450D01*
Y13950D01*
X20444Y13989D01*
X20422Y14022D01*
X20389Y14044D01*
X20350Y14052D01*
X20008D01*
X20000Y14053D01*
D02*
G37*
G36*
X10400Y13953D02*
X10392Y13952D01*
X9458D01*
X9450Y13953D01*
X9442Y13952D01*
X9200D01*
X9161Y13944D01*
X9128Y13922D01*
X9106Y13889D01*
X9098Y13850D01*
Y13608D01*
X9097Y13600D01*
X9098Y13592D01*
Y13350D01*
X9106Y13311D01*
X9128Y13278D01*
X9161Y13256D01*
X9200Y13248D01*
X9442D01*
X9450Y13247D01*
X9458Y13248D01*
X10392D01*
X10400Y13247D01*
X10408Y13248D01*
X10750D01*
X10789Y13256D01*
X10822Y13278D01*
X10844Y13311D01*
X10852Y13350D01*
Y13850D01*
X10844Y13889D01*
X10822Y13922D01*
X10789Y13944D01*
X10750Y13952D01*
X10408D01*
X10400Y13953D01*
D02*
G37*
G36*
X23252Y14515D02*
X23131Y14499D01*
X23018Y14453D01*
X22921Y14378D01*
X22847Y14281D01*
X22800Y14168D01*
X22784Y14047D01*
X22800Y13926D01*
X22847Y13813D01*
X22921Y13716D01*
X23018Y13642D01*
X23131Y13595D01*
X23252Y13579D01*
X23373Y13595D01*
X23486Y13642D01*
X23583Y13716D01*
X23657Y13813D01*
X23704Y13926D01*
X23720Y14047D01*
X23704Y14168D01*
X23657Y14281D01*
X23583Y14378D01*
X23486Y14453D01*
X23373Y14499D01*
X23252Y14515D01*
D02*
G37*
G36*
X22252D02*
X22131Y14499D01*
X22018Y14453D01*
X21921Y14378D01*
X21847Y14281D01*
X21800Y14168D01*
X21784Y14047D01*
X21800Y13926D01*
X21847Y13813D01*
X21921Y13716D01*
X22018Y13642D01*
X22131Y13595D01*
X22252Y13579D01*
X22373Y13595D01*
X22486Y13642D01*
X22583Y13716D01*
X22657Y13813D01*
X22704Y13926D01*
X22720Y14047D01*
X22704Y14168D01*
X22657Y14281D01*
X22583Y14378D01*
X22486Y14453D01*
X22373Y14499D01*
X22252Y14515D01*
D02*
G37*
G36*
X4252D02*
X4131Y14499D01*
X4018Y14453D01*
X3921Y14378D01*
X3847Y14281D01*
X3800Y14168D01*
X3784Y14047D01*
X3800Y13926D01*
X3847Y13813D01*
X3921Y13716D01*
X4018Y13642D01*
X4131Y13595D01*
X4252Y13579D01*
X4373Y13595D01*
X4486Y13642D01*
X4583Y13716D01*
X4657Y13813D01*
X4704Y13926D01*
X4720Y14047D01*
X4704Y14168D01*
X4657Y14281D01*
X4583Y14378D01*
X4486Y14453D01*
X4373Y14499D01*
X4252Y14515D01*
D02*
G37*
G36*
X23252Y13515D02*
X23131Y13499D01*
X23018Y13453D01*
X22921Y13378D01*
X22847Y13281D01*
X22800Y13168D01*
X22784Y13047D01*
X22800Y12926D01*
X22847Y12813D01*
X22921Y12716D01*
X23018Y12642D01*
X23131Y12595D01*
X23252Y12579D01*
X23373Y12595D01*
X23486Y12642D01*
X23583Y12716D01*
X23657Y12813D01*
X23704Y12926D01*
X23720Y13047D01*
X23704Y13168D01*
X23657Y13281D01*
X23583Y13378D01*
X23486Y13453D01*
X23373Y13499D01*
X23252Y13515D01*
D02*
G37*
G36*
X22252D02*
X22131Y13499D01*
X22018Y13453D01*
X21921Y13378D01*
X21847Y13281D01*
X21800Y13168D01*
X21784Y13047D01*
X21800Y12926D01*
X21847Y12813D01*
X21921Y12716D01*
X22018Y12642D01*
X22131Y12595D01*
X22252Y12579D01*
X22373Y12595D01*
X22486Y12642D01*
X22583Y12716D01*
X22657Y12813D01*
X22704Y12926D01*
X22720Y13047D01*
X22704Y13168D01*
X22657Y13281D01*
X22583Y13378D01*
X22486Y13453D01*
X22373Y13499D01*
X22252Y13515D01*
D02*
G37*
G36*
X4252D02*
X4131Y13499D01*
X4018Y13453D01*
X3921Y13378D01*
X3847Y13281D01*
X3800Y13168D01*
X3784Y13047D01*
X3800Y12926D01*
X3847Y12813D01*
X3921Y12716D01*
X4018Y12642D01*
X4131Y12595D01*
X4252Y12579D01*
X4373Y12595D01*
X4486Y12642D01*
X4583Y12716D01*
X4657Y12813D01*
X4704Y12926D01*
X4720Y13047D01*
X4704Y13168D01*
X4657Y13281D01*
X4583Y13378D01*
X4486Y13453D01*
X4373Y13499D01*
X4252Y13515D01*
D02*
G37*
G36*
X3200Y12696D02*
Y12400D01*
X3496D01*
X3491Y12441D01*
X3456Y12527D01*
X3400Y12600D01*
X3327Y12656D01*
X3241Y12691D01*
X3200Y12696D01*
D02*
G37*
G36*
X3100D02*
X3059Y12691D01*
X2973Y12656D01*
X2900Y12600D01*
X2844Y12527D01*
X2809Y12441D01*
X2804Y12400D01*
X3100D01*
Y12696D01*
D02*
G37*
G36*
X3496Y12300D02*
X3200D01*
Y12004D01*
X3241Y12009D01*
X3327Y12044D01*
X3400Y12100D01*
X3456Y12173D01*
X3491Y12259D01*
X3496Y12300D01*
D02*
G37*
G36*
X3100D02*
X2804D01*
X2809Y12259D01*
X2844Y12173D01*
X2900Y12100D01*
X2973Y12044D01*
X3059Y12009D01*
X3100Y12004D01*
Y12300D01*
D02*
G37*
G36*
X22350Y11646D02*
Y11350D01*
X22646D01*
X22641Y11391D01*
X22606Y11477D01*
X22550Y11550D01*
X22477Y11606D01*
X22391Y11641D01*
X22350Y11646D01*
D02*
G37*
G36*
X22250D02*
X22209Y11641D01*
X22123Y11606D01*
X22050Y11550D01*
X21994Y11477D01*
X21959Y11391D01*
X21954Y11350D01*
X22250D01*
Y11646D01*
D02*
G37*
G36*
X20500D02*
Y11350D01*
X20796D01*
X20791Y11391D01*
X20756Y11477D01*
X20700Y11550D01*
X20627Y11606D01*
X20541Y11641D01*
X20500Y11646D01*
D02*
G37*
G36*
X20400D02*
X20359Y11641D01*
X20273Y11606D01*
X20200Y11550D01*
X20144Y11477D01*
X20109Y11391D01*
X20104Y11350D01*
X20400D01*
Y11646D01*
D02*
G37*
G36*
X18600D02*
Y11350D01*
X18896D01*
X18891Y11391D01*
X18856Y11477D01*
X18800Y11550D01*
X18727Y11606D01*
X18641Y11641D01*
X18600Y11646D01*
D02*
G37*
G36*
X18500D02*
X18459Y11641D01*
X18373Y11606D01*
X18300Y11550D01*
X18244Y11477D01*
X18209Y11391D01*
X18204Y11350D01*
X18500D01*
Y11646D01*
D02*
G37*
G36*
X16700D02*
Y11350D01*
X16996D01*
X16991Y11391D01*
X16956Y11477D01*
X16900Y11550D01*
X16827Y11606D01*
X16741Y11641D01*
X16700Y11646D01*
D02*
G37*
G36*
X16600D02*
X16559Y11641D01*
X16473Y11606D01*
X16400Y11550D01*
X16344Y11477D01*
X16309Y11391D01*
X16304Y11350D01*
X16600D01*
Y11646D01*
D02*
G37*
G36*
X22646Y11250D02*
X22350D01*
Y10954D01*
X22391Y10959D01*
X22477Y10994D01*
X22550Y11050D01*
X22606Y11123D01*
X22641Y11209D01*
X22646Y11250D01*
D02*
G37*
G36*
X22250D02*
X21954D01*
X21959Y11209D01*
X21994Y11123D01*
X22050Y11050D01*
X22123Y10994D01*
X22209Y10959D01*
X22250Y10954D01*
Y11250D01*
D02*
G37*
G36*
X20796D02*
X20500D01*
Y10954D01*
X20541Y10959D01*
X20627Y10994D01*
X20700Y11050D01*
X20756Y11123D01*
X20791Y11209D01*
X20796Y11250D01*
D02*
G37*
G36*
X20400D02*
X20104D01*
X20109Y11209D01*
X20144Y11123D01*
X20200Y11050D01*
X20273Y10994D01*
X20359Y10959D01*
X20400Y10954D01*
Y11250D01*
D02*
G37*
G36*
X18896D02*
X18600D01*
Y10954D01*
X18641Y10959D01*
X18727Y10994D01*
X18800Y11050D01*
X18856Y11123D01*
X18891Y11209D01*
X18896Y11250D01*
D02*
G37*
G36*
X18500D02*
X18204D01*
X18209Y11209D01*
X18244Y11123D01*
X18300Y11050D01*
X18373Y10994D01*
X18459Y10959D01*
X18500Y10954D01*
Y11250D01*
D02*
G37*
G36*
X16996D02*
X16700D01*
Y10954D01*
X16741Y10959D01*
X16827Y10994D01*
X16900Y11050D01*
X16956Y11123D01*
X16991Y11209D01*
X16996Y11250D01*
D02*
G37*
G36*
X16600D02*
X16304D01*
X16309Y11209D01*
X16344Y11123D01*
X16400Y11050D01*
X16473Y10994D01*
X16559Y10959D01*
X16600Y10954D01*
Y11250D01*
D02*
G37*
G36*
X3650Y9146D02*
Y8850D01*
X3946D01*
X3941Y8891D01*
X3906Y8977D01*
X3850Y9050D01*
X3777Y9106D01*
X3691Y9141D01*
X3650Y9146D01*
D02*
G37*
G36*
X3550D02*
X3509Y9141D01*
X3423Y9106D01*
X3350Y9050D01*
X3294Y8977D01*
X3259Y8891D01*
X3254Y8850D01*
X3550D01*
Y9146D01*
D02*
G37*
G36*
X3946Y8750D02*
X3650D01*
Y8454D01*
X3691Y8459D01*
X3777Y8494D01*
X3850Y8550D01*
X3906Y8623D01*
X3941Y8709D01*
X3946Y8750D01*
D02*
G37*
G36*
X3550D02*
X3254D01*
X3259Y8709D01*
X3294Y8623D01*
X3350Y8550D01*
X3423Y8494D01*
X3509Y8459D01*
X3550Y8454D01*
Y8750D01*
D02*
G37*
G36*
X650Y8021D02*
Y7725D01*
X946D01*
X941Y7766D01*
X906Y7851D01*
X850Y7924D01*
X777Y7981D01*
X691Y8016D01*
X650Y8021D01*
D02*
G37*
G36*
X550D02*
X509Y8016D01*
X423Y7981D01*
X350Y7924D01*
X294Y7851D01*
X259Y7766D01*
X254Y7725D01*
X550D01*
Y8021D01*
D02*
G37*
%LPD*%
G36*
X13350Y28000D02*
X13400Y27950D01*
X13950Y28500D01*
X20577D01*
X20600Y28497D01*
X20623Y28500D01*
X21985D01*
X22015Y28455D01*
X22014Y28450D01*
X21921Y28378D01*
X21847Y28281D01*
X21800Y28168D01*
X21790Y28097D01*
X22252D01*
Y28047D01*
X22302D01*
Y27586D01*
X22373Y27595D01*
X22486Y27642D01*
X22583Y27716D01*
X22603Y27742D01*
X22650Y27726D01*
Y27700D01*
X22700Y27650D01*
X22550Y27500D01*
X22369D01*
X22252Y27515D01*
X22135Y27500D01*
X21750D01*
Y25762D01*
X21542Y25553D01*
X21509Y25504D01*
X21497Y25445D01*
Y24813D01*
X21330Y24646D01*
X21287Y24674D01*
X21291Y24683D01*
X21296Y24724D01*
X21000D01*
Y24428D01*
X21041Y24433D01*
X21050Y24437D01*
X21078Y24395D01*
X20487Y23803D01*
X15465D01*
X15456Y23827D01*
X15400Y23900D01*
X15327Y23956D01*
X15241Y23991D01*
X15150Y24003D01*
X15059Y23991D01*
X14973Y23956D01*
X14900Y23900D01*
X14844Y23827D01*
X14809Y23741D01*
X14797Y23650D01*
X14809Y23559D01*
X14844Y23473D01*
X14900Y23400D01*
X14973Y23344D01*
X15059Y23309D01*
X15150Y23297D01*
X15241Y23309D01*
X15327Y23344D01*
X15400Y23400D01*
X15456Y23473D01*
X15465Y23497D01*
X20550D01*
X20609Y23509D01*
X20658Y23542D01*
X21704Y24588D01*
X21750Y24568D01*
Y16765D01*
X21704Y16746D01*
X21500Y16950D01*
X6519D01*
Y18933D01*
X6507Y18992D01*
X6474Y19041D01*
X5671Y19845D01*
X5704Y19926D01*
X5720Y20047D01*
X5704Y20168D01*
X5688Y20207D01*
X5695Y20222D01*
X5711Y20229D01*
X5753Y20231D01*
X6442Y19542D01*
X6491Y19509D01*
X6550Y19497D01*
X7885D01*
X7894Y19473D01*
X7950Y19400D01*
X8023Y19344D01*
X8109Y19309D01*
X8200Y19297D01*
X8291Y19309D01*
X8377Y19344D01*
X8450Y19400D01*
X8506Y19473D01*
X8541Y19559D01*
X8553Y19650D01*
X8541Y19741D01*
X8506Y19827D01*
X8450Y19900D01*
X8377Y19956D01*
X8291Y19991D01*
X8200Y20003D01*
X8109Y19991D01*
X8023Y19956D01*
X7950Y19900D01*
X7894Y19827D01*
X7885Y19803D01*
X6613D01*
X6003Y20413D01*
Y20615D01*
X6049Y20635D01*
X6475Y20208D01*
X6525Y20175D01*
X6584Y20163D01*
X11828D01*
X11844Y20123D01*
X11900Y20050D01*
X11973Y19994D01*
X12059Y19959D01*
X12150Y19947D01*
X12241Y19959D01*
X12327Y19994D01*
X12400Y20050D01*
X12456Y20123D01*
X12491Y20209D01*
X12503Y20300D01*
X12491Y20391D01*
X12456Y20477D01*
X12400Y20550D01*
X12327Y20606D01*
X12241Y20641D01*
X12150Y20653D01*
X12059Y20641D01*
X11973Y20606D01*
X11900Y20550D01*
X11844Y20477D01*
X11841Y20469D01*
X6647D01*
X6203Y20913D01*
Y21265D01*
X6249Y21285D01*
X6592Y20942D01*
X6641Y20909D01*
X6700Y20897D01*
X15785D01*
X15794Y20873D01*
X15850Y20800D01*
X15923Y20744D01*
X16009Y20709D01*
X16100Y20697D01*
X16191Y20709D01*
X16277Y20744D01*
X16350Y20800D01*
X16406Y20873D01*
X16441Y20959D01*
X16453Y21050D01*
X16441Y21141D01*
X16406Y21227D01*
X16350Y21300D01*
X16277Y21356D01*
X16191Y21391D01*
X16100Y21403D01*
X16009Y21391D01*
X15923Y21356D01*
X15850Y21300D01*
X15794Y21227D01*
X15785Y21203D01*
X6763D01*
X6403Y21563D01*
Y21915D01*
X6449Y21935D01*
X6842Y21542D01*
X6891Y21509D01*
X6950Y21497D01*
X19785D01*
X19794Y21473D01*
X19850Y21400D01*
X19923Y21344D01*
X20009Y21309D01*
X20100Y21297D01*
X20191Y21309D01*
X20277Y21344D01*
X20350Y21400D01*
X20406Y21473D01*
X20441Y21559D01*
X20453Y21650D01*
X20441Y21741D01*
X20406Y21827D01*
X20350Y21900D01*
X20277Y21956D01*
X20191Y21991D01*
X20100Y22003D01*
X20009Y21991D01*
X19923Y21956D01*
X19850Y21900D01*
X19794Y21827D01*
X19785Y21803D01*
X7013D01*
X6603Y22213D01*
Y27449D01*
X6591Y27507D01*
X6558Y27557D01*
X6313Y27801D01*
X6337Y27849D01*
X6350Y27847D01*
X6441Y27859D01*
X6527Y27894D01*
X6600Y27950D01*
X6656Y28023D01*
X6665Y28047D01*
X6837D01*
X10769Y24115D01*
X10759Y24091D01*
X10747Y24000D01*
X10759Y23909D01*
X10794Y23823D01*
X10850Y23750D01*
X10923Y23694D01*
X11009Y23659D01*
X11100Y23647D01*
X11191Y23659D01*
X11277Y23694D01*
X11350Y23750D01*
X11406Y23823D01*
X11441Y23909D01*
X11453Y24000D01*
X11441Y24091D01*
X11406Y24177D01*
X11350Y24250D01*
X11277Y24306D01*
X11191Y24341D01*
X11100Y24353D01*
X11009Y24341D01*
X10985Y24331D01*
X7008Y28308D01*
X6959Y28341D01*
X6900Y28353D01*
X6665D01*
X6656Y28377D01*
X6600Y28450D01*
X6527Y28506D01*
X6441Y28541D01*
X6350Y28553D01*
X6259Y28541D01*
X6173Y28506D01*
X6100Y28450D01*
X6044Y28377D01*
X6009Y28291D01*
X5997Y28200D01*
X5999Y28187D01*
X5951Y28163D01*
X5729Y28385D01*
X5745Y30600D01*
X5988D01*
X6012Y30550D01*
X5994Y30527D01*
X5959Y30441D01*
X5954Y30400D01*
X6646D01*
X6641Y30441D01*
X6606Y30527D01*
X6588Y30550D01*
X6612Y30600D01*
X7888D01*
X7912Y30550D01*
X7894Y30527D01*
X7859Y30441D01*
X7854Y30400D01*
X8546D01*
X8541Y30441D01*
X8506Y30527D01*
X8488Y30550D01*
X8512Y30600D01*
X9788D01*
X9812Y30550D01*
X9794Y30527D01*
X9759Y30441D01*
X9754Y30400D01*
X10446D01*
X10441Y30441D01*
X10406Y30527D01*
X10388Y30550D01*
X10412Y30600D01*
X11738D01*
X11762Y30550D01*
X11744Y30527D01*
X11709Y30441D01*
X11704Y30400D01*
X12396D01*
X12391Y30441D01*
X12356Y30527D01*
X12338Y30550D01*
X12362Y30600D01*
X13350D01*
X13350Y28000D01*
D02*
G37*
G36*
X6213Y18870D02*
Y18368D01*
X6167Y18348D01*
X5671Y18845D01*
X5704Y18926D01*
X5720Y19047D01*
X5704Y19168D01*
X5666Y19261D01*
X5667Y19351D01*
X5713Y19370D01*
X6213Y18870D01*
D02*
G37*
G36*
X17294Y12273D02*
X17348Y12203D01*
X17346Y12186D01*
X17334Y12153D01*
X6781D01*
X6683Y12251D01*
X6702Y12297D01*
X17285D01*
X17294Y12273D01*
D02*
G37*
%LPC*%
G36*
X12396Y30300D02*
X12100D01*
Y30004D01*
X12141Y30009D01*
X12227Y30044D01*
X12300Y30100D01*
X12356Y30173D01*
X12391Y30259D01*
X12396Y30300D01*
D02*
G37*
G36*
X12000D02*
X11704D01*
X11709Y30259D01*
X11744Y30173D01*
X11800Y30100D01*
X11873Y30044D01*
X11959Y30009D01*
X12000Y30004D01*
Y30300D01*
D02*
G37*
G36*
X10446D02*
X10150D01*
Y30004D01*
X10191Y30009D01*
X10277Y30044D01*
X10350Y30100D01*
X10406Y30173D01*
X10441Y30259D01*
X10446Y30300D01*
D02*
G37*
G36*
X10050D02*
X9754D01*
X9759Y30259D01*
X9794Y30173D01*
X9850Y30100D01*
X9923Y30044D01*
X10009Y30009D01*
X10050Y30004D01*
Y30300D01*
D02*
G37*
G36*
X8546D02*
X8250D01*
Y30004D01*
X8291Y30009D01*
X8377Y30044D01*
X8450Y30100D01*
X8506Y30173D01*
X8541Y30259D01*
X8546Y30300D01*
D02*
G37*
G36*
X8150D02*
X7854D01*
X7859Y30259D01*
X7894Y30173D01*
X7950Y30100D01*
X8023Y30044D01*
X8109Y30009D01*
X8150Y30004D01*
Y30300D01*
D02*
G37*
G36*
X6646D02*
X6350D01*
Y30004D01*
X6391Y30009D01*
X6477Y30044D01*
X6550Y30100D01*
X6606Y30173D01*
X6641Y30259D01*
X6646Y30300D01*
D02*
G37*
G36*
X6250D02*
X5954D01*
X5959Y30259D01*
X5994Y30173D01*
X6050Y30100D01*
X6123Y30044D01*
X6209Y30009D01*
X6250Y30004D01*
Y30300D01*
D02*
G37*
G36*
X22202Y27997D02*
X21790D01*
X21800Y27926D01*
X21847Y27813D01*
X21921Y27716D01*
X22018Y27642D01*
X22131Y27595D01*
X22202Y27586D01*
Y27997D01*
D02*
G37*
G36*
X21000Y25121D02*
Y24824D01*
X21296D01*
X21291Y24866D01*
X21256Y24951D01*
X21200Y25024D01*
X21127Y25080D01*
X21041Y25115D01*
X21000Y25121D01*
D02*
G37*
G36*
X20900D02*
X20859Y25115D01*
X20773Y25080D01*
X20700Y25024D01*
X20644Y24951D01*
X20609Y24866D01*
X20604Y24824D01*
X20900D01*
Y25121D01*
D02*
G37*
G36*
X17050D02*
Y24824D01*
X17346D01*
X17341Y24866D01*
X17306Y24951D01*
X17250Y25024D01*
X17177Y25080D01*
X17091Y25115D01*
X17050Y25121D01*
D02*
G37*
G36*
X16950D02*
X16909Y25115D01*
X16823Y25080D01*
X16750Y25024D01*
X16694Y24951D01*
X16659Y24866D01*
X16654Y24824D01*
X16950D01*
Y25121D01*
D02*
G37*
G36*
X13100D02*
Y24824D01*
X13396D01*
X13391Y24866D01*
X13356Y24951D01*
X13300Y25024D01*
X13227Y25080D01*
X13141Y25115D01*
X13100Y25121D01*
D02*
G37*
G36*
X13000D02*
X12959Y25115D01*
X12873Y25080D01*
X12800Y25024D01*
X12744Y24951D01*
X12709Y24866D01*
X12704Y24824D01*
X13000D01*
Y25121D01*
D02*
G37*
G36*
X9150D02*
Y24824D01*
X9446D01*
X9441Y24866D01*
X9406Y24951D01*
X9350Y25024D01*
X9277Y25080D01*
X9191Y25115D01*
X9150Y25121D01*
D02*
G37*
G36*
X9050D02*
X9009Y25115D01*
X8923Y25080D01*
X8850Y25024D01*
X8794Y24951D01*
X8759Y24866D01*
X8754Y24824D01*
X9050D01*
Y25121D01*
D02*
G37*
G36*
X20900Y24724D02*
X20604D01*
X20609Y24683D01*
X20644Y24598D01*
X20700Y24525D01*
X20773Y24469D01*
X20859Y24433D01*
X20900Y24428D01*
Y24724D01*
D02*
G37*
G36*
X17346D02*
X17050D01*
Y24428D01*
X17091Y24433D01*
X17177Y24469D01*
X17250Y24525D01*
X17306Y24598D01*
X17341Y24683D01*
X17346Y24724D01*
D02*
G37*
G36*
X16950D02*
X16654D01*
X16659Y24683D01*
X16694Y24598D01*
X16750Y24525D01*
X16823Y24469D01*
X16909Y24433D01*
X16950Y24428D01*
Y24724D01*
D02*
G37*
G36*
X13396D02*
X13100D01*
Y24428D01*
X13141Y24433D01*
X13227Y24469D01*
X13300Y24525D01*
X13356Y24598D01*
X13391Y24683D01*
X13396Y24724D01*
D02*
G37*
G36*
X13000D02*
X12704D01*
X12709Y24683D01*
X12744Y24598D01*
X12800Y24525D01*
X12873Y24469D01*
X12959Y24433D01*
X13000Y24428D01*
Y24724D01*
D02*
G37*
G36*
X9446D02*
X9150D01*
Y24428D01*
X9191Y24433D01*
X9277Y24469D01*
X9350Y24525D01*
X9406Y24598D01*
X9441Y24683D01*
X9446Y24724D01*
D02*
G37*
G36*
X9050D02*
X8754D01*
X8759Y24683D01*
X8794Y24598D01*
X8850Y24525D01*
X8923Y24469D01*
X9009Y24433D01*
X9050Y24428D01*
Y24724D01*
D02*
G37*
G36*
X7300Y19096D02*
Y18800D01*
X7596D01*
X7591Y18841D01*
X7556Y18927D01*
X7500Y19000D01*
X7427Y19056D01*
X7341Y19091D01*
X7300Y19096D01*
D02*
G37*
G36*
X7200D02*
X7159Y19091D01*
X7073Y19056D01*
X7000Y19000D01*
X6944Y18927D01*
X6909Y18841D01*
X6904Y18800D01*
X7200D01*
Y19096D01*
D02*
G37*
G36*
X7596Y18700D02*
X7300D01*
Y18404D01*
X7341Y18409D01*
X7427Y18444D01*
X7500Y18500D01*
X7556Y18573D01*
X7591Y18659D01*
X7596Y18700D01*
D02*
G37*
G36*
X7200D02*
X6904D01*
X6909Y18659D01*
X6944Y18573D01*
X7000Y18500D01*
X7073Y18444D01*
X7159Y18409D01*
X7200Y18404D01*
Y18700D01*
D02*
G37*
G36*
X14450Y18022D02*
Y17726D01*
X14746D01*
X14741Y17767D01*
X14706Y17852D01*
X14650Y17925D01*
X14577Y17981D01*
X14491Y18017D01*
X14450Y18022D01*
D02*
G37*
G36*
X14350D02*
X14309Y18017D01*
X14223Y17981D01*
X14150Y17925D01*
X14094Y17852D01*
X14059Y17767D01*
X14054Y17726D01*
X14350D01*
Y18022D01*
D02*
G37*
G36*
X10450D02*
Y17726D01*
X10746D01*
X10741Y17767D01*
X10706Y17852D01*
X10650Y17925D01*
X10577Y17981D01*
X10491Y18017D01*
X10450Y18022D01*
D02*
G37*
G36*
X10350D02*
X10309Y18017D01*
X10223Y17981D01*
X10150Y17925D01*
X10094Y17852D01*
X10059Y17767D01*
X10054Y17726D01*
X10350D01*
Y18022D01*
D02*
G37*
G36*
X18400Y17972D02*
Y17676D01*
X18696D01*
X18691Y17717D01*
X18656Y17802D01*
X18600Y17875D01*
X18527Y17931D01*
X18441Y17967D01*
X18400Y17972D01*
D02*
G37*
G36*
X18300D02*
X18259Y17967D01*
X18173Y17931D01*
X18100Y17875D01*
X18044Y17802D01*
X18009Y17717D01*
X18004Y17676D01*
X18300D01*
Y17972D01*
D02*
G37*
G36*
X14746Y17626D02*
X14450D01*
Y17329D01*
X14491Y17335D01*
X14577Y17370D01*
X14650Y17426D01*
X14706Y17499D01*
X14741Y17584D01*
X14746Y17626D01*
D02*
G37*
G36*
X14350D02*
X14054D01*
X14059Y17584D01*
X14094Y17499D01*
X14150Y17426D01*
X14223Y17370D01*
X14309Y17335D01*
X14350Y17329D01*
Y17626D01*
D02*
G37*
G36*
X10746D02*
X10450D01*
Y17329D01*
X10491Y17335D01*
X10577Y17370D01*
X10650Y17426D01*
X10706Y17499D01*
X10741Y17584D01*
X10746Y17626D01*
D02*
G37*
G36*
X10350D02*
X10054D01*
X10059Y17584D01*
X10094Y17499D01*
X10150Y17426D01*
X10223Y17370D01*
X10309Y17335D01*
X10350Y17329D01*
Y17626D01*
D02*
G37*
G36*
X18696Y17576D02*
X18400D01*
Y17279D01*
X18441Y17285D01*
X18527Y17320D01*
X18600Y17376D01*
X18656Y17449D01*
X18691Y17534D01*
X18696Y17576D01*
D02*
G37*
G36*
X18300D02*
X18004D01*
X18009Y17534D01*
X18044Y17449D01*
X18100Y17376D01*
X18173Y17320D01*
X18259Y17285D01*
X18300Y17279D01*
Y17576D01*
D02*
G37*
G36*
X19200Y41849D02*
X19123Y41839D01*
X19050Y41809D01*
X18988Y41762D01*
X18975Y41744D01*
X18925D01*
X18912Y41762D01*
X18850Y41809D01*
X18777Y41839D01*
X18750Y41843D01*
Y41550D01*
Y41257D01*
X18777Y41261D01*
X18850Y41291D01*
X18912Y41338D01*
X18925Y41356D01*
X18975D01*
X18988Y41338D01*
X19050Y41291D01*
X19097Y41271D01*
Y37058D01*
X19052Y37036D01*
X19027Y37056D01*
X18941Y37091D01*
X18850Y37103D01*
X18759Y37091D01*
X18673Y37056D01*
X18600Y37000D01*
X18544Y36927D01*
X18509Y36841D01*
X18497Y36750D01*
X18509Y36659D01*
X18544Y36573D01*
X18600Y36500D01*
X18673Y36444D01*
X18759Y36409D01*
X18850Y36397D01*
X18941Y36409D01*
X19027Y36444D01*
X19052Y36464D01*
X19097Y36442D01*
Y36313D01*
X18837Y36053D01*
X18300D01*
X18241Y36041D01*
X18192Y36008D01*
X17865Y35681D01*
X17841Y35691D01*
X17750Y35703D01*
X17659Y35691D01*
X17573Y35656D01*
X17500Y35600D01*
X17444Y35527D01*
X17409Y35441D01*
X17397Y35350D01*
X17409Y35259D01*
X17444Y35173D01*
X17500Y35100D01*
X17573Y35044D01*
X17659Y35009D01*
X17750Y34997D01*
X17841Y35009D01*
X17927Y35044D01*
X18000Y35100D01*
X18056Y35173D01*
X18091Y35259D01*
X18103Y35350D01*
X18091Y35441D01*
X18081Y35465D01*
X18363Y35747D01*
X18900D01*
X18959Y35759D01*
X19008Y35792D01*
X19358Y36142D01*
X19391Y36191D01*
X19403Y36250D01*
Y41203D01*
X19403Y41253D01*
X19547D01*
Y35715D01*
X19523Y35706D01*
X19450Y35650D01*
X19394Y35577D01*
X19359Y35491D01*
X19347Y35400D01*
X19359Y35309D01*
X19394Y35223D01*
X19450Y35150D01*
X19523Y35094D01*
X19609Y35059D01*
X19700Y35047D01*
X19791Y35059D01*
X19877Y35094D01*
X19950Y35150D01*
X20006Y35223D01*
X20041Y35309D01*
X20053Y35400D01*
X20041Y35491D01*
X20006Y35577D01*
X19950Y35650D01*
X19877Y35706D01*
X19853Y35715D01*
Y41253D01*
X19997D01*
Y41847D01*
X19403D01*
Y41825D01*
X19358Y41803D01*
X19350Y41809D01*
X19277Y41839D01*
X19200Y41849D01*
D02*
G37*
G36*
X16300D02*
X16223Y41839D01*
X16150Y41809D01*
X16088Y41762D01*
X16075Y41744D01*
X16025D01*
X16012Y41762D01*
X15950Y41809D01*
X15877Y41839D01*
X15850Y41843D01*
Y41550D01*
Y41257D01*
X15877Y41261D01*
X15950Y41291D01*
X16012Y41338D01*
X16025Y41356D01*
X16075D01*
X16088Y41338D01*
X16150Y41291D01*
X16223Y41261D01*
X16300Y41251D01*
X16377Y41261D01*
X16450Y41291D01*
X16458Y41297D01*
X16503Y41275D01*
Y41253D01*
X17097D01*
Y41847D01*
X16503D01*
Y41825D01*
X16458Y41803D01*
X16450Y41809D01*
X16377Y41839D01*
X16300Y41849D01*
D02*
G37*
G36*
X5150Y42248D02*
Y41600D01*
X5798D01*
X5790Y41687D01*
X5750Y41819D01*
X5685Y41941D01*
X5597Y42047D01*
X5491Y42135D01*
X5369Y42200D01*
X5237Y42240D01*
X5150Y42248D01*
D02*
G37*
G36*
X5050D02*
X4963Y42240D01*
X4831Y42200D01*
X4709Y42135D01*
X4603Y42047D01*
X4515Y41941D01*
X4450Y41819D01*
X4410Y41687D01*
X4402Y41600D01*
X5050D01*
Y42248D01*
D02*
G37*
G36*
X26336Y41643D02*
Y41400D01*
X26579D01*
X26575Y41427D01*
X26546Y41500D01*
X26498Y41562D01*
X26436Y41609D01*
X26364Y41639D01*
X26336Y41643D01*
D02*
G37*
G36*
X7836Y42300D02*
X7744Y42288D01*
X7659Y42253D01*
X7586Y42197D01*
X7530Y42124D01*
X7495Y42038D01*
X7483Y41947D01*
X7495Y41856D01*
X7530Y41771D01*
X7586Y41697D01*
X7659Y41641D01*
X7744Y41606D01*
X7836Y41594D01*
X7927Y41606D01*
X8012Y41641D01*
X8085Y41697D01*
X8141Y41771D01*
X8151Y41794D01*
X8352D01*
X8375Y41744D01*
X8341Y41700D01*
X8311Y41627D01*
X8301Y41550D01*
X8311Y41473D01*
X8341Y41400D01*
X8388Y41338D01*
X8447Y41293D01*
Y36845D01*
X7415Y35813D01*
X7391Y35823D01*
X7300Y35835D01*
X7209Y35823D01*
X7123Y35788D01*
X7050Y35732D01*
X6994Y35658D01*
X6959Y35573D01*
X6947Y35482D01*
X6959Y35391D01*
X6994Y35305D01*
X7050Y35232D01*
X7123Y35176D01*
X7209Y35141D01*
X7300Y35129D01*
X7391Y35141D01*
X7477Y35176D01*
X7550Y35232D01*
X7606Y35305D01*
X7641Y35391D01*
X7653Y35482D01*
X7641Y35573D01*
X7631Y35597D01*
X8708Y36674D01*
X8741Y36723D01*
X8753Y36782D01*
Y41293D01*
X8812Y41338D01*
X8825Y41356D01*
X8875D01*
X8888Y41338D01*
X8947Y41293D01*
Y35727D01*
X8894Y35658D01*
X8859Y35573D01*
X8847Y35482D01*
X8859Y35391D01*
X8894Y35305D01*
X8950Y35232D01*
X9023Y35176D01*
X9109Y35141D01*
X9200Y35129D01*
X9291Y35141D01*
X9377Y35176D01*
X9450Y35232D01*
X9506Y35305D01*
X9541Y35391D01*
X9553Y35482D01*
X9541Y35573D01*
X9506Y35658D01*
X9450Y35732D01*
X9377Y35788D01*
X9291Y35823D01*
X9253Y35828D01*
Y38334D01*
X9286Y38346D01*
X9303Y38348D01*
X9373Y38294D01*
X9459Y38259D01*
X9550Y38247D01*
X9641Y38259D01*
X9727Y38294D01*
X9800Y38350D01*
X9856Y38423D01*
X9891Y38509D01*
X9897Y38555D01*
X9947Y38551D01*
Y36482D01*
X9959Y36423D01*
X9992Y36374D01*
X10769Y35597D01*
X10759Y35573D01*
X10747Y35482D01*
X10759Y35391D01*
X10794Y35305D01*
X10850Y35232D01*
X10923Y35176D01*
X11009Y35141D01*
X11100Y35129D01*
X11191Y35141D01*
X11277Y35176D01*
X11350Y35232D01*
X11406Y35305D01*
X11441Y35391D01*
X11453Y35482D01*
X11441Y35573D01*
X11406Y35658D01*
X11350Y35732D01*
X11277Y35788D01*
X11191Y35823D01*
X11100Y35835D01*
X11009Y35823D01*
X10985Y35813D01*
X10253Y36545D01*
Y40375D01*
X10303Y40388D01*
X10350Y40326D01*
X10423Y40270D01*
X10509Y40235D01*
X10550Y40229D01*
Y40576D01*
Y40922D01*
X10509Y40917D01*
X10423Y40881D01*
X10350Y40825D01*
X10303Y40763D01*
X10253Y40776D01*
Y41244D01*
X10256Y41246D01*
X10303Y41253D01*
Y41253D01*
X10681D01*
X12297Y39637D01*
Y36082D01*
X12309Y36023D01*
X12342Y35974D01*
X12719Y35597D01*
X12709Y35573D01*
X12697Y35482D01*
X12709Y35391D01*
X12744Y35305D01*
X12800Y35232D01*
X12873Y35176D01*
X12959Y35141D01*
X13050Y35129D01*
X13141Y35141D01*
X13227Y35176D01*
X13300Y35232D01*
X13356Y35305D01*
X13391Y35391D01*
X13403Y35482D01*
X13391Y35573D01*
X13356Y35658D01*
X13300Y35732D01*
X13227Y35788D01*
X13167Y35812D01*
X13159Y35869D01*
X13200Y35900D01*
X13217Y35901D01*
X13669Y35449D01*
X13659Y35426D01*
X13647Y35334D01*
X13659Y35243D01*
X13694Y35158D01*
X13750Y35085D01*
X13823Y35029D01*
X13909Y34993D01*
X14000Y34981D01*
X14091Y34993D01*
X14177Y35029D01*
X14250Y35085D01*
X14306Y35158D01*
X14341Y35243D01*
X14353Y35334D01*
X14341Y35426D01*
X14306Y35511D01*
X14250Y35584D01*
X14177Y35640D01*
X14091Y35675D01*
X14000Y35687D01*
X13909Y35675D01*
X13885Y35666D01*
X13593Y35957D01*
X13609Y36005D01*
X13641Y36009D01*
X13727Y36044D01*
X13800Y36100D01*
X13856Y36173D01*
X13891Y36259D01*
X13903Y36350D01*
X13891Y36441D01*
X13881Y36465D01*
X18120Y40704D01*
X18163Y40676D01*
X18159Y40667D01*
X18154Y40626D01*
X18450D01*
Y40922D01*
X18409Y40917D01*
X18376Y40903D01*
X18346Y40936D01*
X18342Y40943D01*
X18353Y41000D01*
Y41293D01*
X18412Y41338D01*
X18425Y41356D01*
X18475D01*
X18488Y41338D01*
X18550Y41291D01*
X18623Y41261D01*
X18650Y41257D01*
Y41550D01*
Y41843D01*
X18623Y41839D01*
X18550Y41809D01*
X18488Y41762D01*
X18475Y41744D01*
X18425D01*
X18412Y41762D01*
X18350Y41809D01*
X18277Y41839D01*
X18200Y41849D01*
X18123Y41839D01*
X18050Y41809D01*
X17988Y41762D01*
X17975Y41744D01*
X17925D01*
X17912Y41762D01*
X17850Y41809D01*
X17777Y41839D01*
X17700Y41849D01*
X17623Y41839D01*
X17550Y41809D01*
X17488Y41762D01*
X17441Y41700D01*
X17411Y41627D01*
X17401Y41550D01*
X17410Y41477D01*
X12842Y36908D01*
X12809Y36859D01*
X12797Y36800D01*
Y36465D01*
X12773Y36456D01*
X12700Y36400D01*
X12653Y36338D01*
X12603Y36351D01*
Y39700D01*
X12591Y39759D01*
X12558Y39808D01*
X10897Y41469D01*
Y41794D01*
X14552D01*
X14575Y41744D01*
X14541Y41700D01*
X14511Y41627D01*
X14501Y41550D01*
X14511Y41473D01*
X14541Y41400D01*
X14588Y41338D01*
X14650Y41291D01*
X14723Y41261D01*
X14800Y41251D01*
X14877Y41261D01*
X14950Y41291D01*
X15012Y41338D01*
X15025Y41356D01*
X15075D01*
X15088Y41338D01*
X15150Y41291D01*
X15223Y41261D01*
X15300Y41251D01*
X15377Y41261D01*
X15450Y41291D01*
X15512Y41338D01*
X15525Y41356D01*
X15575D01*
X15588Y41338D01*
X15650Y41291D01*
X15723Y41261D01*
X15750Y41257D01*
Y41550D01*
Y41843D01*
X15723Y41839D01*
X15650Y41809D01*
X15588Y41762D01*
X15575Y41744D01*
X15525D01*
X15512Y41762D01*
X15450Y41809D01*
X15377Y41839D01*
X15300Y41849D01*
X15223Y41839D01*
X15150Y41809D01*
X15088Y41762D01*
X15075Y41744D01*
X15025D01*
X15012Y41762D01*
X14950Y41809D01*
X14897Y41831D01*
Y41859D01*
X14885Y41918D01*
X14852Y41967D01*
X14764Y42055D01*
X14715Y42088D01*
X14656Y42100D01*
X8151D01*
X8141Y42124D01*
X8085Y42197D01*
X8012Y42253D01*
X7927Y42288D01*
X7836Y42300D01*
D02*
G37*
G36*
X26579Y41300D02*
X26336D01*
Y41057D01*
X26364Y41061D01*
X26436Y41091D01*
X26498Y41138D01*
X26546Y41200D01*
X26575Y41273D01*
X26579Y41300D01*
D02*
G37*
G36*
X25336Y41953D02*
X24630D01*
X24572Y41941D01*
X24522Y41908D01*
X24328Y41714D01*
X24295Y41664D01*
X24283Y41606D01*
Y40916D01*
X24250Y40904D01*
X24233Y40902D01*
X24163Y40956D01*
X24078Y40991D01*
X24036Y40996D01*
Y40650D01*
Y40304D01*
X24078Y40309D01*
X24163Y40344D01*
X24233Y40398D01*
X24250Y40396D01*
X24283Y40384D01*
Y37565D01*
X24260Y37556D01*
X24187Y37500D01*
X24130Y37427D01*
X24095Y37341D01*
X24083Y37250D01*
X24095Y37159D01*
X24130Y37073D01*
X24187Y37000D01*
X24260Y36944D01*
X24345Y36909D01*
X24436Y36897D01*
X24528Y36909D01*
X24613Y36944D01*
X24686Y37000D01*
X24742Y37073D01*
X24777Y37159D01*
X24789Y37250D01*
X24777Y37341D01*
X24742Y37427D01*
X24686Y37500D01*
X24613Y37556D01*
X24589Y37565D01*
Y41053D01*
X25083D01*
X25108Y41014D01*
Y37026D01*
X25060Y37006D01*
X24987Y36950D01*
X24931Y36877D01*
X24895Y36791D01*
X24883Y36700D01*
X24895Y36609D01*
X24931Y36523D01*
X24987Y36450D01*
X25060Y36394D01*
X25145Y36359D01*
X25236Y36347D01*
X25328Y36359D01*
X25413Y36394D01*
X25486Y36450D01*
X25542Y36523D01*
X25577Y36609D01*
X25589Y36700D01*
X25577Y36791D01*
X25542Y36877D01*
X25486Y36950D01*
X25414Y37005D01*
Y41082D01*
X25436Y41091D01*
X25498Y41138D01*
X25511Y41156D01*
X25561D01*
X25575Y41138D01*
X25637Y41091D01*
X25709Y41061D01*
X25786Y41051D01*
X25864Y41061D01*
X25936Y41091D01*
X25998Y41138D01*
X26011Y41156D01*
X26061D01*
X26075Y41138D01*
X26137Y41091D01*
X26209Y41061D01*
X26236Y41057D01*
Y41350D01*
Y41643D01*
X26209Y41639D01*
X26137Y41609D01*
X26075Y41562D01*
X26061Y41544D01*
X26011D01*
X25998Y41562D01*
X25936Y41609D01*
X25864Y41639D01*
X25786Y41649D01*
X25713Y41640D01*
X25444Y41908D01*
X25395Y41941D01*
X25336Y41953D01*
D02*
G37*
G36*
X5798Y41500D02*
X5150D01*
Y40852D01*
X5237Y40860D01*
X5369Y40900D01*
X5491Y40965D01*
X5597Y41053D01*
X5685Y41159D01*
X5750Y41281D01*
X5790Y41413D01*
X5798Y41500D01*
D02*
G37*
G36*
X5050D02*
X4402D01*
X4410Y41413D01*
X4450Y41281D01*
X4515Y41159D01*
X4603Y41053D01*
X4709Y40965D01*
X4831Y40900D01*
X4963Y40860D01*
X5050Y40852D01*
Y41500D01*
D02*
G37*
G36*
X3550Y42253D02*
X3413Y42240D01*
X3281Y42200D01*
X3159Y42135D01*
X3053Y42047D01*
X2965Y41941D01*
X2900Y41819D01*
X2860Y41687D01*
X2847Y41550D01*
X2860Y41413D01*
X2900Y41281D01*
X2965Y41159D01*
X3053Y41053D01*
X3159Y40965D01*
X3281Y40900D01*
X3413Y40860D01*
X3550Y40847D01*
X3687Y40860D01*
X3819Y40900D01*
X3941Y40965D01*
X4047Y41053D01*
X4135Y41159D01*
X4200Y41281D01*
X4240Y41413D01*
X4253Y41550D01*
X4240Y41687D01*
X4200Y41819D01*
X4135Y41941D01*
X4047Y42047D01*
X3941Y42135D01*
X3819Y42200D01*
X3687Y42240D01*
X3550Y42253D01*
D02*
G37*
G36*
X23936Y40996D02*
X23895Y40991D01*
X23810Y40956D01*
X23737Y40900D01*
X23681Y40827D01*
X23645Y40741D01*
X23640Y40700D01*
X23936D01*
Y40996D01*
D02*
G37*
G36*
X18550Y40922D02*
Y40626D01*
X18846D01*
X18841Y40667D01*
X18806Y40752D01*
X18750Y40825D01*
X18677Y40881D01*
X18591Y40917D01*
X18550Y40922D01*
D02*
G37*
G36*
X14600D02*
Y40626D01*
X14896D01*
X14891Y40667D01*
X14856Y40752D01*
X14800Y40825D01*
X14727Y40881D01*
X14641Y40917D01*
X14600Y40922D01*
D02*
G37*
G36*
X14500D02*
X14459Y40917D01*
X14373Y40881D01*
X14300Y40825D01*
X14244Y40752D01*
X14209Y40667D01*
X14204Y40626D01*
X14500D01*
Y40922D01*
D02*
G37*
G36*
X10650D02*
Y40626D01*
X10946D01*
X10941Y40667D01*
X10906Y40752D01*
X10850Y40825D01*
X10777Y40881D01*
X10691Y40917D01*
X10650Y40922D01*
D02*
G37*
G36*
X6600Y42253D02*
X6463Y42240D01*
X6331Y42200D01*
X6209Y42135D01*
X6103Y42047D01*
X6015Y41941D01*
X5950Y41819D01*
X5910Y41687D01*
X5897Y41550D01*
X5910Y41413D01*
X5950Y41281D01*
X6015Y41159D01*
X6103Y41053D01*
X6209Y40965D01*
X6331Y40900D01*
X6398Y40880D01*
X6407Y40830D01*
X6400Y40825D01*
X6344Y40752D01*
X6309Y40667D01*
X6304Y40626D01*
X6996D01*
X6991Y40667D01*
X6956Y40752D01*
X6900Y40825D01*
X6870Y40848D01*
X6869Y40875D01*
X6878Y40905D01*
X6991Y40965D01*
X7097Y41053D01*
X7185Y41159D01*
X7250Y41281D01*
X7290Y41413D01*
X7303Y41550D01*
X7290Y41687D01*
X7250Y41819D01*
X7185Y41941D01*
X7097Y42047D01*
X6991Y42135D01*
X6869Y42200D01*
X6737Y42240D01*
X6600Y42253D01*
D02*
G37*
G36*
X900Y40762D02*
Y40400D01*
X1262D01*
X1254Y40458D01*
X1212Y40559D01*
X1146Y40646D01*
X1059Y40712D01*
X958Y40754D01*
X900Y40762D01*
D02*
G37*
G36*
X800D02*
X742Y40754D01*
X641Y40712D01*
X554Y40646D01*
X488Y40559D01*
X446Y40458D01*
X438Y40400D01*
X800D01*
Y40762D01*
D02*
G37*
G36*
X23936Y40600D02*
X23640D01*
X23645Y40559D01*
X23681Y40473D01*
X23737Y40400D01*
X23810Y40344D01*
X23895Y40309D01*
X23936Y40304D01*
Y40600D01*
D02*
G37*
G36*
X18846Y40526D02*
X18550D01*
Y40229D01*
X18591Y40235D01*
X18677Y40270D01*
X18750Y40326D01*
X18806Y40399D01*
X18841Y40484D01*
X18846Y40526D01*
D02*
G37*
G36*
X18450D02*
X18154D01*
X18159Y40484D01*
X18194Y40399D01*
X18250Y40326D01*
X18323Y40270D01*
X18409Y40235D01*
X18450Y40229D01*
Y40526D01*
D02*
G37*
G36*
X14896D02*
X14600D01*
Y40229D01*
X14641Y40235D01*
X14727Y40270D01*
X14800Y40326D01*
X14856Y40399D01*
X14891Y40484D01*
X14896Y40526D01*
D02*
G37*
G36*
X14500D02*
X14204D01*
X14209Y40484D01*
X14244Y40399D01*
X14300Y40326D01*
X14373Y40270D01*
X14459Y40235D01*
X14500Y40229D01*
Y40526D01*
D02*
G37*
G36*
X10946D02*
X10650D01*
Y40229D01*
X10691Y40235D01*
X10777Y40270D01*
X10850Y40326D01*
X10906Y40399D01*
X10941Y40484D01*
X10946Y40526D01*
D02*
G37*
G36*
X6996D02*
X6700D01*
Y40229D01*
X6741Y40235D01*
X6827Y40270D01*
X6900Y40326D01*
X6956Y40399D01*
X6991Y40484D01*
X6996Y40526D01*
D02*
G37*
G36*
X6600D02*
X6304D01*
X6309Y40484D01*
X6344Y40399D01*
X6400Y40326D01*
X6473Y40270D01*
X6559Y40235D01*
X6600Y40229D01*
Y40526D01*
D02*
G37*
G36*
X1262Y40300D02*
X900D01*
Y39938D01*
X958Y39946D01*
X1059Y39988D01*
X1146Y40054D01*
X1212Y40141D01*
X1254Y40242D01*
X1262Y40300D01*
D02*
G37*
G36*
X800D02*
X438D01*
X446Y40242D01*
X488Y40141D01*
X554Y40054D01*
X641Y39988D01*
X742Y39946D01*
X800Y39938D01*
Y40300D01*
D02*
G37*
G36*
X21478Y38962D02*
X21386Y38950D01*
X21301Y38915D01*
X21228Y38859D01*
X21172Y38786D01*
X21137Y38700D01*
X21125Y38609D01*
X21137Y38518D01*
X21172Y38433D01*
X21228Y38359D01*
X21301Y38303D01*
X21386Y38268D01*
X21478Y38256D01*
X21569Y38268D01*
X21654Y38303D01*
X21727Y38359D01*
X21783Y38433D01*
X21819Y38518D01*
X21831Y38609D01*
X21819Y38700D01*
X21783Y38786D01*
X21727Y38859D01*
X21654Y38915D01*
X21569Y38950D01*
X21478Y38962D01*
D02*
G37*
G36*
X17450Y38953D02*
X17359Y38941D01*
X17273Y38906D01*
X17200Y38850D01*
X17144Y38777D01*
X17109Y38691D01*
X17097Y38600D01*
X17109Y38509D01*
X17144Y38423D01*
X17200Y38350D01*
X17273Y38294D01*
X17359Y38259D01*
X17450Y38247D01*
X17541Y38259D01*
X17627Y38294D01*
X17700Y38350D01*
X17756Y38423D01*
X17791Y38509D01*
X17803Y38600D01*
X17791Y38691D01*
X17756Y38777D01*
X17700Y38850D01*
X17627Y38906D01*
X17541Y38941D01*
X17450Y38953D01*
D02*
G37*
G36*
X13500D02*
X13409Y38941D01*
X13323Y38906D01*
X13250Y38850D01*
X13194Y38777D01*
X13159Y38691D01*
X13147Y38600D01*
X13159Y38509D01*
X13194Y38423D01*
X13250Y38350D01*
X13323Y38294D01*
X13409Y38259D01*
X13500Y38247D01*
X13591Y38259D01*
X13677Y38294D01*
X13750Y38350D01*
X13806Y38423D01*
X13841Y38509D01*
X13853Y38600D01*
X13841Y38691D01*
X13806Y38777D01*
X13750Y38850D01*
X13677Y38906D01*
X13591Y38941D01*
X13500Y38953D01*
D02*
G37*
G36*
X14900Y37103D02*
X14809Y37091D01*
X14723Y37056D01*
X14650Y37000D01*
X14594Y36927D01*
X14559Y36841D01*
X14547Y36750D01*
X14559Y36659D01*
X14594Y36573D01*
X14650Y36500D01*
X14723Y36444D01*
X14809Y36409D01*
X14900Y36397D01*
X14991Y36409D01*
X15077Y36444D01*
X15150Y36500D01*
X15206Y36573D01*
X15241Y36659D01*
X15253Y36750D01*
X15241Y36841D01*
X15206Y36927D01*
X15150Y37000D01*
X15077Y37056D01*
X14991Y37091D01*
X14900Y37103D01*
D02*
G37*
G36*
X10950D02*
X10859Y37091D01*
X10773Y37056D01*
X10700Y37000D01*
X10644Y36927D01*
X10609Y36841D01*
X10597Y36750D01*
X10609Y36659D01*
X10644Y36573D01*
X10700Y36500D01*
X10773Y36444D01*
X10859Y36409D01*
X10950Y36397D01*
X11041Y36409D01*
X11127Y36444D01*
X11200Y36500D01*
X11256Y36573D01*
X11291Y36659D01*
X11303Y36750D01*
X11291Y36841D01*
X11256Y36927D01*
X11200Y37000D01*
X11127Y37056D01*
X11041Y37091D01*
X10950Y37103D01*
D02*
G37*
G36*
X7000D02*
X6909Y37091D01*
X6823Y37056D01*
X6750Y37000D01*
X6694Y36927D01*
X6659Y36841D01*
X6647Y36750D01*
X6659Y36659D01*
X6694Y36573D01*
X6750Y36500D01*
X6823Y36444D01*
X6909Y36409D01*
X7000Y36397D01*
X7091Y36409D01*
X7177Y36444D01*
X7250Y36500D01*
X7306Y36573D01*
X7341Y36659D01*
X7353Y36750D01*
X7341Y36841D01*
X7306Y36927D01*
X7250Y37000D01*
X7177Y37056D01*
X7091Y37091D01*
X7000Y37103D01*
D02*
G37*
G36*
X20750Y35346D02*
Y35050D01*
X21046D01*
X21041Y35091D01*
X21006Y35177D01*
X20950Y35250D01*
X20877Y35306D01*
X20791Y35341D01*
X20750Y35346D01*
D02*
G37*
G36*
X20650D02*
X20609Y35341D01*
X20523Y35306D01*
X20450Y35250D01*
X20394Y35177D01*
X20359Y35091D01*
X20354Y35050D01*
X20650D01*
Y35346D01*
D02*
G37*
G36*
X18850D02*
Y35050D01*
X19146D01*
X19141Y35091D01*
X19106Y35177D01*
X19050Y35250D01*
X18977Y35306D01*
X18891Y35341D01*
X18850Y35346D01*
D02*
G37*
G36*
X18750D02*
X18709Y35341D01*
X18623Y35306D01*
X18550Y35250D01*
X18494Y35177D01*
X18459Y35091D01*
X18454Y35050D01*
X18750D01*
Y35346D01*
D02*
G37*
G36*
X16950D02*
Y35050D01*
X17246D01*
X17241Y35091D01*
X17206Y35177D01*
X17150Y35250D01*
X17077Y35306D01*
X16991Y35341D01*
X16950Y35346D01*
D02*
G37*
G36*
X16850D02*
X16809Y35341D01*
X16723Y35306D01*
X16650Y35250D01*
X16594Y35177D01*
X16559Y35091D01*
X16554Y35050D01*
X16850D01*
Y35346D01*
D02*
G37*
G36*
X15050D02*
Y35050D01*
X15346D01*
X15341Y35091D01*
X15306Y35177D01*
X15250Y35250D01*
X15177Y35306D01*
X15091Y35341D01*
X15050Y35346D01*
D02*
G37*
G36*
X14950D02*
X14909Y35341D01*
X14823Y35306D01*
X14750Y35250D01*
X14694Y35177D01*
X14659Y35091D01*
X14654Y35050D01*
X14950D01*
Y35346D01*
D02*
G37*
G36*
X21046Y34950D02*
X20750D01*
Y34654D01*
X20791Y34659D01*
X20877Y34694D01*
X20950Y34750D01*
X21006Y34823D01*
X21041Y34909D01*
X21046Y34950D01*
D02*
G37*
G36*
X20650D02*
X20354D01*
X20359Y34909D01*
X20394Y34823D01*
X20450Y34750D01*
X20523Y34694D01*
X20609Y34659D01*
X20650Y34654D01*
Y34950D01*
D02*
G37*
G36*
X19146D02*
X18850D01*
Y34654D01*
X18891Y34659D01*
X18977Y34694D01*
X19050Y34750D01*
X19106Y34823D01*
X19141Y34909D01*
X19146Y34950D01*
D02*
G37*
G36*
X18750D02*
X18454D01*
X18459Y34909D01*
X18494Y34823D01*
X18550Y34750D01*
X18623Y34694D01*
X18709Y34659D01*
X18750Y34654D01*
Y34950D01*
D02*
G37*
G36*
X17246D02*
X16950D01*
Y34654D01*
X16991Y34659D01*
X17077Y34694D01*
X17150Y34750D01*
X17206Y34823D01*
X17241Y34909D01*
X17246Y34950D01*
D02*
G37*
G36*
X16850D02*
X16554D01*
X16559Y34909D01*
X16594Y34823D01*
X16650Y34750D01*
X16723Y34694D01*
X16809Y34659D01*
X16850Y34654D01*
Y34950D01*
D02*
G37*
G36*
X15346D02*
X15050D01*
Y34654D01*
X15091Y34659D01*
X15177Y34694D01*
X15250Y34750D01*
X15306Y34823D01*
X15341Y34909D01*
X15346Y34950D01*
D02*
G37*
G36*
X14950D02*
X14654D01*
X14659Y34909D01*
X14694Y34823D01*
X14750Y34750D01*
X14823Y34694D01*
X14909Y34659D01*
X14950Y34654D01*
Y34950D01*
D02*
G37*
G36*
X12100Y34596D02*
Y34300D01*
X12396D01*
X12391Y34341D01*
X12356Y34427D01*
X12300Y34500D01*
X12227Y34556D01*
X12141Y34591D01*
X12100Y34596D01*
D02*
G37*
G36*
X12000D02*
X11959Y34591D01*
X11873Y34556D01*
X11800Y34500D01*
X11744Y34427D01*
X11709Y34341D01*
X11704Y34300D01*
X12000D01*
Y34596D01*
D02*
G37*
G36*
X10150D02*
Y34300D01*
X10446D01*
X10441Y34341D01*
X10406Y34427D01*
X10350Y34500D01*
X10277Y34556D01*
X10191Y34591D01*
X10150Y34596D01*
D02*
G37*
G36*
X10050D02*
X10009Y34591D01*
X9923Y34556D01*
X9850Y34500D01*
X9794Y34427D01*
X9759Y34341D01*
X9754Y34300D01*
X10050D01*
Y34596D01*
D02*
G37*
G36*
X8250D02*
Y34300D01*
X8546D01*
X8541Y34341D01*
X8506Y34427D01*
X8450Y34500D01*
X8377Y34556D01*
X8291Y34591D01*
X8250Y34596D01*
D02*
G37*
G36*
X8150D02*
X8109Y34591D01*
X8023Y34556D01*
X7950Y34500D01*
X7894Y34427D01*
X7859Y34341D01*
X7854Y34300D01*
X8150D01*
Y34596D01*
D02*
G37*
G36*
X6350D02*
Y34300D01*
X6646D01*
X6641Y34341D01*
X6606Y34427D01*
X6550Y34500D01*
X6477Y34556D01*
X6391Y34591D01*
X6350Y34596D01*
D02*
G37*
G36*
X26336Y34226D02*
Y33983D01*
X26579D01*
X26575Y34011D01*
X26546Y34083D01*
X26498Y34145D01*
X26436Y34192D01*
X26364Y34222D01*
X26336Y34226D01*
D02*
G37*
G36*
X12396Y34200D02*
X12100D01*
Y33904D01*
X12141Y33909D01*
X12227Y33944D01*
X12300Y34000D01*
X12356Y34073D01*
X12391Y34159D01*
X12396Y34200D01*
D02*
G37*
G36*
X12000D02*
X11704D01*
X11709Y34159D01*
X11744Y34073D01*
X11800Y34000D01*
X11873Y33944D01*
X11959Y33909D01*
X12000Y33904D01*
Y34200D01*
D02*
G37*
G36*
X10446D02*
X10150D01*
Y33904D01*
X10191Y33909D01*
X10277Y33944D01*
X10350Y34000D01*
X10406Y34073D01*
X10441Y34159D01*
X10446Y34200D01*
D02*
G37*
G36*
X10050D02*
X9754D01*
X9759Y34159D01*
X9794Y34073D01*
X9850Y34000D01*
X9923Y33944D01*
X10009Y33909D01*
X10050Y33904D01*
Y34200D01*
D02*
G37*
G36*
X8546D02*
X8250D01*
Y33904D01*
X8291Y33909D01*
X8377Y33944D01*
X8450Y34000D01*
X8506Y34073D01*
X8541Y34159D01*
X8546Y34200D01*
D02*
G37*
G36*
X8150D02*
X7854D01*
X7859Y34159D01*
X7894Y34073D01*
X7950Y34000D01*
X8023Y33944D01*
X8109Y33909D01*
X8150Y33904D01*
Y34200D01*
D02*
G37*
G36*
X6646D02*
X6350D01*
Y33904D01*
X6391Y33909D01*
X6477Y33944D01*
X6550Y34000D01*
X6606Y34073D01*
X6641Y34159D01*
X6646Y34200D01*
D02*
G37*
G36*
X26836Y33981D02*
X26795Y33975D01*
X26710Y33940D01*
X26637Y33884D01*
X26628Y33873D01*
X26603Y33883D01*
X26336D01*
Y33640D01*
X26364Y33644D01*
X26436Y33674D01*
X26494Y33718D01*
X26510Y33714D01*
X26541Y33696D01*
X26540Y33684D01*
X26836D01*
Y33981D01*
D02*
G37*
G36*
X26936D02*
Y33684D01*
X27233D01*
X27227Y33726D01*
X27192Y33811D01*
X27136Y33884D01*
X27063Y33940D01*
X26978Y33975D01*
X26936Y33981D01*
D02*
G37*
G36*
X24236Y36836D02*
X24145Y36824D01*
X24060Y36789D01*
X23987Y36733D01*
X23930Y36660D01*
X23895Y36574D01*
X23883Y36483D01*
X23895Y36392D01*
X23930Y36307D01*
X23987Y36233D01*
X24060Y36177D01*
X24145Y36142D01*
X24236Y36130D01*
X24328Y36142D01*
X24351Y36152D01*
X25133Y35370D01*
Y34239D01*
X25130Y34237D01*
X25083Y34230D01*
Y34230D01*
X24489D01*
Y33636D01*
X25083D01*
Y33658D01*
X25128Y33680D01*
X25137Y33674D01*
X25209Y33644D01*
X25286Y33634D01*
X25364Y33644D01*
X25436Y33674D01*
X25498Y33721D01*
X25511Y33739D01*
X25561D01*
X25575Y33721D01*
X25637Y33674D01*
X25709Y33644D01*
X25786Y33634D01*
X25864Y33644D01*
X25936Y33674D01*
X25998Y33721D01*
X26011Y33739D01*
X26061D01*
X26075Y33721D01*
X26137Y33674D01*
X26209Y33644D01*
X26236Y33640D01*
Y33933D01*
Y34226D01*
X26209Y34222D01*
X26137Y34192D01*
X26075Y34145D01*
X26061Y34127D01*
X26011D01*
X25998Y34145D01*
X25936Y34192D01*
X25864Y34222D01*
X25786Y34232D01*
X25709Y34222D01*
X25637Y34192D01*
X25575Y34145D01*
X25561Y34127D01*
X25511D01*
X25498Y34145D01*
X25439Y34190D01*
Y35433D01*
X25428Y35492D01*
X25394Y35541D01*
X24567Y36368D01*
X24577Y36392D01*
X24589Y36483D01*
X24577Y36574D01*
X24542Y36660D01*
X24486Y36733D01*
X24413Y36789D01*
X24328Y36824D01*
X24236Y36836D01*
D02*
G37*
G36*
X27233Y33584D02*
X26936D01*
Y33288D01*
X26978Y33293D01*
X27063Y33329D01*
X27136Y33385D01*
X27192Y33458D01*
X27227Y33543D01*
X27233Y33584D01*
D02*
G37*
G36*
X26836D02*
X26540D01*
X26545Y33543D01*
X26581Y33458D01*
X26637Y33385D01*
X26710Y33329D01*
X26795Y33293D01*
X26836Y33288D01*
Y33584D01*
D02*
G37*
G36*
X22350Y7746D02*
Y7450D01*
X22646D01*
X22641Y7491D01*
X22606Y7577D01*
X22550Y7650D01*
X22477Y7706D01*
X22391Y7741D01*
X22350Y7746D01*
D02*
G37*
G36*
X22250D02*
X22209Y7741D01*
X22123Y7706D01*
X22050Y7650D01*
X21994Y7577D01*
X21959Y7491D01*
X21954Y7450D01*
X22250D01*
Y7746D01*
D02*
G37*
G36*
X20500D02*
Y7450D01*
X20796D01*
X20791Y7491D01*
X20756Y7577D01*
X20700Y7650D01*
X20627Y7706D01*
X20541Y7741D01*
X20500Y7746D01*
D02*
G37*
G36*
X20400D02*
X20359Y7741D01*
X20273Y7706D01*
X20200Y7650D01*
X20144Y7577D01*
X20109Y7491D01*
X20104Y7450D01*
X20400D01*
Y7746D01*
D02*
G37*
G36*
X18600D02*
Y7450D01*
X18896D01*
X18891Y7491D01*
X18856Y7577D01*
X18800Y7650D01*
X18727Y7706D01*
X18641Y7741D01*
X18600Y7746D01*
D02*
G37*
G36*
X18500D02*
X18459Y7741D01*
X18373Y7706D01*
X18300Y7650D01*
X18244Y7577D01*
X18209Y7491D01*
X18204Y7450D01*
X18500D01*
Y7746D01*
D02*
G37*
G36*
X16700D02*
Y7450D01*
X16996D01*
X16991Y7491D01*
X16956Y7577D01*
X16900Y7650D01*
X16827Y7706D01*
X16741Y7741D01*
X16700Y7746D01*
D02*
G37*
G36*
X16600D02*
X16559Y7741D01*
X16473Y7706D01*
X16400Y7650D01*
X16344Y7577D01*
X16309Y7491D01*
X16304Y7450D01*
X16600D01*
Y7746D01*
D02*
G37*
G36*
X22646Y7350D02*
X22350D01*
Y7054D01*
X22391Y7059D01*
X22477Y7094D01*
X22550Y7150D01*
X22606Y7223D01*
X22641Y7309D01*
X22646Y7350D01*
D02*
G37*
G36*
X22250D02*
X21954D01*
X21959Y7309D01*
X21994Y7223D01*
X22050Y7150D01*
X22123Y7094D01*
X22209Y7059D01*
X22250Y7054D01*
Y7350D01*
D02*
G37*
G36*
X20796D02*
X20500D01*
Y7054D01*
X20541Y7059D01*
X20627Y7094D01*
X20700Y7150D01*
X20756Y7223D01*
X20791Y7309D01*
X20796Y7350D01*
D02*
G37*
G36*
X20400D02*
X20104D01*
X20109Y7309D01*
X20144Y7223D01*
X20200Y7150D01*
X20273Y7094D01*
X20359Y7059D01*
X20400Y7054D01*
Y7350D01*
D02*
G37*
G36*
X18896D02*
X18600D01*
Y7054D01*
X18641Y7059D01*
X18727Y7094D01*
X18800Y7150D01*
X18856Y7223D01*
X18891Y7309D01*
X18896Y7350D01*
D02*
G37*
G36*
X18500D02*
X18204D01*
X18209Y7309D01*
X18244Y7223D01*
X18300Y7150D01*
X18373Y7094D01*
X18459Y7059D01*
X18500Y7054D01*
Y7350D01*
D02*
G37*
G36*
X16996D02*
X16700D01*
Y7054D01*
X16741Y7059D01*
X16827Y7094D01*
X16900Y7150D01*
X16956Y7223D01*
X16991Y7309D01*
X16996Y7350D01*
D02*
G37*
G36*
X16600D02*
X16304D01*
X16309Y7309D01*
X16344Y7223D01*
X16400Y7150D01*
X16473Y7094D01*
X16559Y7059D01*
X16600Y7054D01*
Y7350D01*
D02*
G37*
G36*
X11450Y3546D02*
Y3250D01*
X11746D01*
X11741Y3291D01*
X11706Y3377D01*
X11650Y3450D01*
X11577Y3506D01*
X11491Y3541D01*
X11450Y3546D01*
D02*
G37*
G36*
X11350D02*
X11309Y3541D01*
X11223Y3506D01*
X11150Y3450D01*
X11094Y3377D01*
X11059Y3291D01*
X11054Y3250D01*
X11350D01*
Y3546D01*
D02*
G37*
G36*
X9550D02*
Y3250D01*
X9846D01*
X9841Y3291D01*
X9806Y3377D01*
X9750Y3450D01*
X9677Y3506D01*
X9591Y3541D01*
X9550Y3546D01*
D02*
G37*
G36*
X9450D02*
X9409Y3541D01*
X9323Y3506D01*
X9250Y3450D01*
X9194Y3377D01*
X9159Y3291D01*
X9154Y3250D01*
X9450D01*
Y3546D01*
D02*
G37*
G36*
X7650D02*
Y3250D01*
X7946D01*
X7941Y3291D01*
X7906Y3377D01*
X7850Y3450D01*
X7777Y3506D01*
X7691Y3541D01*
X7650Y3546D01*
D02*
G37*
G36*
X7550D02*
X7509Y3541D01*
X7423Y3506D01*
X7350Y3450D01*
X7294Y3377D01*
X7259Y3291D01*
X7254Y3250D01*
X7550D01*
Y3546D01*
D02*
G37*
G36*
X5750D02*
Y3250D01*
X6046D01*
X6041Y3291D01*
X6006Y3377D01*
X5950Y3450D01*
X5877Y3506D01*
X5791Y3541D01*
X5750Y3546D01*
D02*
G37*
G36*
X5650D02*
X5609Y3541D01*
X5523Y3506D01*
X5450Y3450D01*
X5394Y3377D01*
X5359Y3291D01*
X5354Y3250D01*
X5650D01*
Y3546D01*
D02*
G37*
G36*
X11746Y3150D02*
X11450D01*
Y2854D01*
X11491Y2859D01*
X11577Y2894D01*
X11650Y2950D01*
X11706Y3023D01*
X11741Y3109D01*
X11746Y3150D01*
D02*
G37*
G36*
X11350D02*
X11054D01*
X11059Y3109D01*
X11094Y3023D01*
X11150Y2950D01*
X11223Y2894D01*
X11309Y2859D01*
X11350Y2854D01*
Y3150D01*
D02*
G37*
G36*
X9846D02*
X9550D01*
Y2854D01*
X9591Y2859D01*
X9677Y2894D01*
X9750Y2950D01*
X9806Y3023D01*
X9841Y3109D01*
X9846Y3150D01*
D02*
G37*
G36*
X9450D02*
X9154D01*
X9159Y3109D01*
X9194Y3023D01*
X9250Y2950D01*
X9323Y2894D01*
X9409Y2859D01*
X9450Y2854D01*
Y3150D01*
D02*
G37*
G36*
X7946D02*
X7650D01*
Y2854D01*
X7691Y2859D01*
X7777Y2894D01*
X7850Y2950D01*
X7906Y3023D01*
X7941Y3109D01*
X7946Y3150D01*
D02*
G37*
G36*
X7550D02*
X7254D01*
X7259Y3109D01*
X7294Y3023D01*
X7350Y2950D01*
X7423Y2894D01*
X7509Y2859D01*
X7550Y2854D01*
Y3150D01*
D02*
G37*
G36*
X6046D02*
X5750D01*
Y2854D01*
X5791Y2859D01*
X5877Y2894D01*
X5950Y2950D01*
X6006Y3023D01*
X6041Y3109D01*
X6046Y3150D01*
D02*
G37*
G36*
X5650D02*
X5354D01*
X5359Y3109D01*
X5394Y3023D01*
X5450Y2950D01*
X5523Y2894D01*
X5609Y2859D01*
X5650Y2854D01*
Y3150D01*
D02*
G37*
G36*
X26800Y2596D02*
Y2300D01*
X27096D01*
X27091Y2341D01*
X27056Y2427D01*
X27000Y2500D01*
X26927Y2556D01*
X26841Y2591D01*
X26800Y2596D01*
D02*
G37*
G36*
X26700D02*
X26659Y2591D01*
X26573Y2556D01*
X26500Y2500D01*
X26444Y2427D01*
X26409Y2341D01*
X26404Y2300D01*
X26700D01*
Y2596D01*
D02*
G37*
G36*
X22850D02*
Y2300D01*
X23146D01*
X23141Y2341D01*
X23106Y2427D01*
X23050Y2500D01*
X22977Y2556D01*
X22891Y2591D01*
X22850Y2596D01*
D02*
G37*
G36*
X22750D02*
X22709Y2591D01*
X22623Y2556D01*
X22550Y2500D01*
X22494Y2427D01*
X22459Y2341D01*
X22454Y2300D01*
X22750D01*
Y2596D01*
D02*
G37*
G36*
X18900D02*
Y2300D01*
X19196D01*
X19191Y2341D01*
X19156Y2427D01*
X19100Y2500D01*
X19027Y2556D01*
X18941Y2591D01*
X18900Y2596D01*
D02*
G37*
G36*
X18800D02*
X18759Y2591D01*
X18673Y2556D01*
X18600Y2500D01*
X18544Y2427D01*
X18509Y2341D01*
X18504Y2300D01*
X18800D01*
Y2596D01*
D02*
G37*
G36*
X14950D02*
Y2300D01*
X15246D01*
X15241Y2341D01*
X15206Y2427D01*
X15150Y2500D01*
X15077Y2556D01*
X14991Y2591D01*
X14950Y2596D01*
D02*
G37*
G36*
X14850D02*
X14809Y2591D01*
X14723Y2556D01*
X14650Y2500D01*
X14594Y2427D01*
X14559Y2341D01*
X14554Y2300D01*
X14850D01*
Y2596D01*
D02*
G37*
G36*
X27096Y2200D02*
X26800D01*
Y1904D01*
X26841Y1909D01*
X26927Y1944D01*
X27000Y2000D01*
X27056Y2073D01*
X27091Y2159D01*
X27096Y2200D01*
D02*
G37*
G36*
X26700D02*
X26404D01*
X26409Y2159D01*
X26444Y2073D01*
X26500Y2000D01*
X26573Y1944D01*
X26659Y1909D01*
X26700Y1904D01*
Y2200D01*
D02*
G37*
G36*
X23146D02*
X22850D01*
Y1904D01*
X22891Y1909D01*
X22977Y1944D01*
X23050Y2000D01*
X23106Y2073D01*
X23141Y2159D01*
X23146Y2200D01*
D02*
G37*
G36*
X22750D02*
X22454D01*
X22459Y2159D01*
X22494Y2073D01*
X22550Y2000D01*
X22623Y1944D01*
X22709Y1909D01*
X22750Y1904D01*
Y2200D01*
D02*
G37*
G36*
X19196D02*
X18900D01*
Y1904D01*
X18941Y1909D01*
X19027Y1944D01*
X19100Y2000D01*
X19156Y2073D01*
X19191Y2159D01*
X19196Y2200D01*
D02*
G37*
G36*
X18800D02*
X18504D01*
X18509Y2159D01*
X18544Y2073D01*
X18600Y2000D01*
X18673Y1944D01*
X18759Y1909D01*
X18800Y1904D01*
Y2200D01*
D02*
G37*
G36*
X15246D02*
X14950D01*
Y1904D01*
X14991Y1909D01*
X15077Y1944D01*
X15150Y2000D01*
X15206Y2073D01*
X15241Y2159D01*
X15246Y2200D01*
D02*
G37*
G36*
X14850D02*
X14554D01*
X14559Y2159D01*
X14594Y2073D01*
X14650Y2000D01*
X14723Y1944D01*
X14809Y1909D01*
X14850Y1904D01*
Y2200D01*
D02*
G37*
G36*
X2550Y1149D02*
X2473Y1139D01*
X2400Y1109D01*
X2338Y1062D01*
X2325Y1044D01*
X2275D01*
X2262Y1062D01*
X2200Y1109D01*
X2127Y1139D01*
X2050Y1149D01*
X1973Y1139D01*
X1900Y1109D01*
X1892Y1103D01*
X1847Y1125D01*
Y1147D01*
X1600D01*
Y850D01*
Y553D01*
X1847D01*
Y575D01*
X1892Y597D01*
X1900Y591D01*
X1973Y561D01*
X2050Y551D01*
X2127Y561D01*
X2200Y591D01*
X2262Y638D01*
X2275Y656D01*
X2325D01*
X2338Y638D01*
X2400Y591D01*
X2473Y561D01*
X2550Y551D01*
X2627Y561D01*
X2700Y591D01*
X2762Y638D01*
X2809Y700D01*
X2839Y773D01*
X2849Y850D01*
X2839Y927D01*
X2809Y1000D01*
X2762Y1062D01*
X2700Y1109D01*
X2627Y1139D01*
X2550Y1149D01*
D02*
G37*
G36*
X20100Y1099D02*
X20023Y1089D01*
X19950Y1059D01*
X19888Y1012D01*
X19875Y994D01*
X19825D01*
X19812Y1012D01*
X19750Y1059D01*
X19677Y1089D01*
X19650Y1093D01*
Y800D01*
Y507D01*
X19677Y511D01*
X19750Y541D01*
X19812Y588D01*
X19825Y606D01*
X19875D01*
X19888Y588D01*
X19950Y541D01*
X20023Y511D01*
X20100Y501D01*
X20177Y511D01*
X20250Y541D01*
X20258Y547D01*
X20303Y525D01*
Y503D01*
X20897D01*
Y1097D01*
X20303D01*
Y1075D01*
X20258Y1053D01*
X20250Y1059D01*
X20177Y1089D01*
X20100Y1099D01*
D02*
G37*
G36*
X19100D02*
X19023Y1089D01*
X18950Y1059D01*
X18888Y1012D01*
X18875Y994D01*
X18825D01*
X18812Y1012D01*
X18750Y1059D01*
X18677Y1089D01*
X18600Y1099D01*
X18523Y1089D01*
X18450Y1059D01*
X18388Y1012D01*
X18341Y950D01*
X18311Y877D01*
X18301Y800D01*
X18311Y723D01*
X18341Y650D01*
X18388Y588D01*
X18450Y541D01*
X18523Y511D01*
X18600Y501D01*
X18677Y511D01*
X18750Y541D01*
X18812Y588D01*
X18825Y606D01*
X18875D01*
X18888Y588D01*
X18950Y541D01*
X19023Y511D01*
X19100Y501D01*
X19177Y511D01*
X19250Y541D01*
X19312Y588D01*
X19325Y606D01*
X19375D01*
X19388Y588D01*
X19450Y541D01*
X19523Y511D01*
X19550Y507D01*
Y800D01*
Y1093D01*
X19523Y1089D01*
X19450Y1059D01*
X19388Y1012D01*
X19375Y994D01*
X19325D01*
X19312Y1012D01*
X19250Y1059D01*
X19177Y1089D01*
X19100Y1099D01*
D02*
G37*
G36*
X8450D02*
X8373Y1089D01*
X8300Y1059D01*
X8238Y1012D01*
X8225Y994D01*
X8175D01*
X8162Y1012D01*
X8100Y1059D01*
X8027Y1089D01*
X8000Y1093D01*
Y800D01*
Y507D01*
X8027Y511D01*
X8100Y541D01*
X8162Y588D01*
X8175Y606D01*
X8225D01*
X8238Y588D01*
X8300Y541D01*
X8373Y511D01*
X8450Y501D01*
X8527Y511D01*
X8600Y541D01*
X8608Y547D01*
X8653Y525D01*
Y503D01*
X9247D01*
Y1097D01*
X8653D01*
Y1075D01*
X8608Y1053D01*
X8600Y1059D01*
X8527Y1089D01*
X8450Y1099D01*
D02*
G37*
G36*
X7450D02*
X7373Y1089D01*
X7300Y1059D01*
X7238Y1012D01*
X7225Y994D01*
X7175D01*
X7162Y1012D01*
X7100Y1059D01*
X7027Y1089D01*
X6950Y1099D01*
X6873Y1089D01*
X6800Y1059D01*
X6738Y1012D01*
X6691Y950D01*
X6661Y877D01*
X6651Y800D01*
X6661Y723D01*
X6691Y650D01*
X6738Y588D01*
X6800Y541D01*
X6873Y511D01*
X6950Y501D01*
X7027Y511D01*
X7100Y541D01*
X7162Y588D01*
X7175Y606D01*
X7225D01*
X7238Y588D01*
X7300Y541D01*
X7373Y511D01*
X7450Y501D01*
X7527Y511D01*
X7600Y541D01*
X7662Y588D01*
X7675Y606D01*
X7725D01*
X7738Y588D01*
X7800Y541D01*
X7873Y511D01*
X7900Y507D01*
Y800D01*
Y1093D01*
X7873Y1089D01*
X7800Y1059D01*
X7738Y1012D01*
X7725Y994D01*
X7675D01*
X7662Y1012D01*
X7600Y1059D01*
X7527Y1089D01*
X7450Y1099D01*
D02*
G37*
G36*
X12600Y1598D02*
Y950D01*
X13248D01*
X13240Y1037D01*
X13200Y1169D01*
X13135Y1291D01*
X13047Y1397D01*
X12941Y1485D01*
X12819Y1550D01*
X12687Y1590D01*
X12600Y1598D01*
D02*
G37*
G36*
X12500D02*
X12413Y1590D01*
X12281Y1550D01*
X12159Y1485D01*
X12053Y1397D01*
X11965Y1291D01*
X11900Y1169D01*
X11860Y1037D01*
X11852Y950D01*
X12500D01*
Y1598D01*
D02*
G37*
G36*
X1500Y1147D02*
X1253D01*
Y900D01*
X1500D01*
Y1147D01*
D02*
G37*
G36*
X3650Y1096D02*
Y800D01*
X3946D01*
X3941Y841D01*
X3906Y927D01*
X3850Y1000D01*
X3777Y1056D01*
X3691Y1091D01*
X3650Y1096D01*
D02*
G37*
G36*
X3550D02*
X3509Y1091D01*
X3423Y1056D01*
X3350Y1000D01*
X3294Y927D01*
X3259Y841D01*
X3254Y800D01*
X3550D01*
Y1096D01*
D02*
G37*
G36*
X1500Y800D02*
X1253D01*
Y553D01*
X1500D01*
Y800D01*
D02*
G37*
G36*
X3946Y700D02*
X3650D01*
Y404D01*
X3691Y409D01*
X3777Y444D01*
X3850Y500D01*
X3906Y573D01*
X3941Y659D01*
X3946Y700D01*
D02*
G37*
G36*
X3550D02*
X3254D01*
X3259Y659D01*
X3294Y573D01*
X3350Y500D01*
X3423Y444D01*
X3509Y409D01*
X3550Y404D01*
Y700D01*
D02*
G37*
G36*
X13248Y850D02*
X12600D01*
Y202D01*
X12687Y210D01*
X12819Y250D01*
X12941Y315D01*
X13047Y403D01*
X13135Y509D01*
X13200Y631D01*
X13240Y763D01*
X13248Y850D01*
D02*
G37*
G36*
X12500D02*
X11852D01*
X11860Y763D01*
X11900Y631D01*
X11965Y509D01*
X12053Y403D01*
X12159Y315D01*
X12281Y250D01*
X12413Y210D01*
X12500Y202D01*
Y850D01*
D02*
G37*
G36*
X14050Y1603D02*
X13913Y1590D01*
X13781Y1550D01*
X13659Y1485D01*
X13553Y1397D01*
X13465Y1291D01*
X13400Y1169D01*
X13360Y1037D01*
X13347Y900D01*
X13360Y763D01*
X13400Y631D01*
X13465Y509D01*
X13553Y403D01*
X13659Y315D01*
X13781Y250D01*
X13913Y210D01*
X14050Y197D01*
X14187Y210D01*
X14319Y250D01*
X14441Y315D01*
X14547Y403D01*
X14635Y509D01*
X14700Y631D01*
X14740Y763D01*
X14753Y900D01*
X14740Y1037D01*
X14700Y1169D01*
X14635Y1291D01*
X14547Y1397D01*
X14441Y1485D01*
X14319Y1550D01*
X14187Y1590D01*
X14050Y1603D01*
D02*
G37*
G36*
X11000D02*
X10863Y1590D01*
X10731Y1550D01*
X10609Y1485D01*
X10503Y1397D01*
X10415Y1291D01*
X10350Y1169D01*
X10310Y1037D01*
X10297Y900D01*
X10310Y763D01*
X10350Y631D01*
X10415Y509D01*
X10503Y403D01*
X10609Y315D01*
X10731Y250D01*
X10863Y210D01*
X11000Y197D01*
X11137Y210D01*
X11269Y250D01*
X11391Y315D01*
X11497Y403D01*
X11585Y509D01*
X11650Y631D01*
X11690Y763D01*
X11703Y900D01*
X11690Y1037D01*
X11650Y1169D01*
X11585Y1291D01*
X11497Y1397D01*
X11391Y1485D01*
X11269Y1550D01*
X11137Y1590D01*
X11000Y1603D01*
D02*
G37*
%LPD*%
G36*
X9650Y41257D02*
X9677Y41261D01*
X9750Y41291D01*
X9812Y41338D01*
X9825Y41356D01*
X9875D01*
X9888Y41338D01*
X9947Y41293D01*
Y38649D01*
X9897Y38645D01*
X9891Y38691D01*
X9856Y38777D01*
X9800Y38850D01*
X9727Y38906D01*
X9641Y38941D01*
X9550Y38953D01*
X9459Y38941D01*
X9373Y38906D01*
X9303Y38852D01*
X9286Y38854D01*
X9253Y38866D01*
Y41293D01*
X9312Y41338D01*
X9325Y41356D01*
X9375D01*
X9388Y41338D01*
X9450Y41291D01*
X9523Y41261D01*
X9550Y41257D01*
Y41550D01*
X9650D01*
Y41257D01*
D02*
G37*
D12*
X6717Y12000D02*
X22700D01*
X5766Y12951D02*
X6717Y12000D01*
X22700D02*
X22800Y11900D01*
X20600Y28850D02*
X21300Y29550D01*
Y30600D01*
X21650Y24750D02*
Y25445D01*
X22252Y26047D01*
X20550Y23650D02*
X21650Y24750D01*
X15150Y23650D02*
X20550D01*
X20700Y13050D02*
X20750Y13100D01*
X16650Y13050D02*
X20700D01*
X6900Y28200D02*
X11100Y24000D01*
X6350Y28200D02*
X6900D01*
X24800Y28750D02*
X25800Y29750D01*
X24800Y28650D02*
Y28750D01*
X14656Y41947D02*
X14744Y41859D01*
X7836Y41947D02*
X14656D01*
X14744Y41606D02*
Y41859D01*
Y41606D02*
X14800Y41550D01*
X6950Y21650D02*
X20100D01*
X6450Y22150D02*
X6950Y21650D01*
X6450Y22150D02*
Y27449D01*
X6584Y20316D02*
X12134D01*
X6050Y20850D02*
X6584Y20316D01*
X6050Y20850D02*
Y27283D01*
X6250Y21500D02*
X6700Y21050D01*
X16100D01*
X6250Y21500D02*
Y27366D01*
X5599Y28300D02*
X6450Y27449D01*
X3689Y28300D02*
X5599D01*
X3150Y27761D02*
X3689Y28300D01*
X3150Y25149D02*
Y27761D01*
Y25149D02*
X4252Y24047D01*
X5516Y28100D02*
X6250Y27366D01*
X3772Y28100D02*
X5516D01*
X3350Y27678D02*
X3772Y28100D01*
X3350Y25949D02*
Y27678D01*
Y25949D02*
X4252Y25047D01*
X3855Y27900D02*
X5433D01*
X12134Y20316D02*
X12150Y20300D01*
X5800Y26584D02*
Y27250D01*
X5433Y27900D02*
X6050Y27283D01*
X5350Y27700D02*
X5800Y27250D01*
Y26584D02*
X5850Y26534D01*
X3550Y27595D02*
X3855Y27900D01*
X3550Y26200D02*
Y27595D01*
Y26200D02*
X3703Y26047D01*
X4252D01*
X6550Y19650D02*
X8200D01*
X5850Y20350D02*
X6550Y19650D01*
X5850Y20350D02*
Y26534D01*
X4905Y27700D02*
X5350D01*
X4252Y27047D02*
X4905Y27700D01*
X5252Y20047D02*
X6366Y18933D01*
Y13200D02*
Y18933D01*
Y13200D02*
X6716Y12850D01*
X16450D01*
X16650Y13050D01*
X17050Y12850D02*
X17766D01*
X16850Y12650D02*
X17050Y12850D01*
X6633Y12650D02*
X16850D01*
X6166Y13117D02*
X6633Y12650D01*
X6166Y13117D02*
Y18133D01*
X5252Y19047D02*
X6166Y18133D01*
X5966Y13034D02*
Y17333D01*
X5252Y18047D02*
X5966Y17333D01*
X17766Y12850D02*
X18216Y12400D01*
X19550D01*
X6550Y12450D02*
X17600D01*
X5966Y13034D02*
X6550Y12450D01*
X25250Y24091D02*
X25700Y23641D01*
X24413Y22047D02*
X25441Y23075D01*
X25466D01*
X25250Y24091D02*
Y24300D01*
X25700Y23309D02*
Y23641D01*
X25466Y23075D02*
X25700Y23309D01*
X25128Y23475D02*
X25300D01*
X24626Y22974D02*
X25128Y23475D01*
X23252Y22047D02*
X24413D01*
X23326Y22974D02*
X24626D01*
X23252Y23047D02*
X23326Y22974D01*
X12950Y36800D02*
X17700Y41550D01*
X12950Y36150D02*
Y36800D01*
X12450Y36082D02*
Y39700D01*
Y36082D02*
X13050Y35482D01*
X10600Y41550D02*
X12450Y39700D01*
X13150Y36184D02*
X14000Y35334D01*
X13550Y36350D02*
X18200Y41000D01*
Y41550D01*
X17750Y35350D02*
X18300Y35900D01*
X18900D01*
X19250Y36250D01*
Y41500D01*
X19200Y41550D02*
X19250Y41500D01*
X19700Y35400D02*
Y41550D01*
X10100Y36482D02*
Y41550D01*
Y36482D02*
X11100Y35482D01*
X9100Y35582D02*
Y41550D01*
Y35582D02*
X9200Y35482D01*
X8600Y36782D02*
Y41550D01*
X7300Y35482D02*
X8600Y36782D01*
X5766Y12951D02*
Y16533D01*
X5252Y17047D02*
X5766Y16533D01*
X24436Y37250D02*
Y41606D01*
Y37150D02*
Y37250D01*
Y41606D02*
X24630Y41800D01*
X25336D01*
X25786Y41350D01*
X25236Y36700D02*
X25261Y36725D01*
Y41325D01*
X25286Y41350D01*
Y33933D02*
Y35433D01*
X24236Y36483D02*
X25286Y35433D01*
X2700Y9150D02*
X3550Y10000D01*
X2700Y6859D02*
Y9150D01*
X2641Y6800D02*
X2700Y6859D01*
X2050Y6800D02*
X2641D01*
D57*
X17700Y41550D02*
D03*
X18200D02*
D03*
X18700D02*
D03*
X19200D02*
D03*
X10100D02*
D03*
X9600D02*
D03*
X9100D02*
D03*
X8600D02*
D03*
X20100Y800D02*
D03*
X19600D02*
D03*
X19100D02*
D03*
X18600D02*
D03*
X16300Y41550D02*
D03*
X15800D02*
D03*
X15300D02*
D03*
X14800D02*
D03*
X8450Y800D02*
D03*
X7950D02*
D03*
X7450D02*
D03*
X6950D02*
D03*
X26286Y41350D02*
D03*
X25786D02*
D03*
X25286D02*
D03*
X26286Y33933D02*
D03*
X25786D02*
D03*
X25286D02*
D03*
X2550Y850D02*
D03*
X2050D02*
D03*
D58*
X19700Y41550D02*
D03*
X10600D02*
D03*
X20600Y800D02*
D03*
X16800Y41550D02*
D03*
X8950Y800D02*
D03*
X24786Y41350D02*
D03*
Y33933D02*
D03*
X1550Y850D02*
D03*
D59*
X850Y40350D02*
D03*
Y39350D02*
D03*
Y38350D02*
D03*
Y37350D02*
D03*
D60*
X22252Y13047D02*
D03*
X23252D02*
D03*
X22252Y14047D02*
D03*
X23252Y20047D02*
D03*
Y21047D02*
D03*
Y24047D02*
D03*
Y25047D02*
D03*
Y28047D02*
D03*
Y27047D02*
D03*
Y26047D02*
D03*
Y23047D02*
D03*
Y22047D02*
D03*
Y19047D02*
D03*
Y18047D02*
D03*
Y17047D02*
D03*
Y16047D02*
D03*
Y15047D02*
D03*
X22252Y25047D02*
D03*
Y26047D02*
D03*
Y27047D02*
D03*
Y28047D02*
D03*
X23252Y29047D02*
D03*
X22252Y20047D02*
D03*
Y21047D02*
D03*
Y22047D02*
D03*
Y23047D02*
D03*
Y24047D02*
D03*
Y15047D02*
D03*
Y16047D02*
D03*
Y17047D02*
D03*
Y18047D02*
D03*
Y19047D02*
D03*
X23252Y14047D02*
D03*
X5252Y18047D02*
D03*
Y19047D02*
D03*
Y22047D02*
D03*
Y23047D02*
D03*
Y26047D02*
D03*
Y25047D02*
D03*
Y24047D02*
D03*
Y21047D02*
D03*
Y20047D02*
D03*
Y17047D02*
D03*
Y16047D02*
D03*
Y15047D02*
D03*
Y14047D02*
D03*
Y13047D02*
D03*
X4252Y23047D02*
D03*
Y24047D02*
D03*
Y25047D02*
D03*
Y26047D02*
D03*
X5252Y27047D02*
D03*
X4252Y18047D02*
D03*
Y19047D02*
D03*
Y20047D02*
D03*
Y21047D02*
D03*
Y22047D02*
D03*
Y13047D02*
D03*
Y14047D02*
D03*
Y15047D02*
D03*
Y16047D02*
D03*
Y17047D02*
D03*
X5252Y31047D02*
D03*
Y32047D02*
D03*
Y35047D02*
D03*
Y34047D02*
D03*
Y33047D02*
D03*
Y30047D02*
D03*
Y29047D02*
D03*
X4252Y32047D02*
D03*
Y33047D02*
D03*
Y34047D02*
D03*
Y35047D02*
D03*
X5252Y36047D02*
D03*
X4252Y29047D02*
D03*
Y30047D02*
D03*
Y31047D02*
D03*
D61*
X22252Y29047D02*
D03*
X4252Y27047D02*
D03*
Y36047D02*
D03*
D62*
X20000Y13700D02*
D03*
X19050D02*
D03*
X10400Y13600D02*
D03*
X9450D02*
D03*
X7050Y11600D02*
D03*
X8000D02*
D03*
X600Y7675D02*
D03*
X20600Y28850D02*
D03*
X21300Y30600D02*
D03*
X6650Y40576D02*
D03*
X15150Y23650D02*
D03*
X20750Y13100D02*
D03*
X11100Y24000D02*
D03*
X6350Y28200D02*
D03*
X25800Y29750D02*
D03*
X24800Y28650D02*
D03*
X7836Y41947D02*
D03*
X2318Y36870D02*
D03*
X20100Y21650D02*
D03*
X16100Y21050D02*
D03*
X12150Y20300D02*
D03*
X8200Y19650D02*
D03*
X7250Y18750D02*
D03*
X17600Y12450D02*
D03*
X25300Y23475D02*
D03*
X25250Y24300D02*
D03*
X12950Y36150D02*
D03*
X14000Y35334D02*
D03*
X13550Y36350D02*
D03*
X17750Y35350D02*
D03*
X19700Y35400D02*
D03*
X13050Y35482D02*
D03*
X11100D02*
D03*
X9200D02*
D03*
X7300D02*
D03*
X12050Y30350D02*
D03*
Y34250D02*
D03*
X8200Y30350D02*
D03*
Y34250D02*
D03*
X6300Y30350D02*
D03*
Y34250D02*
D03*
X11400Y3200D02*
D03*
X9500D02*
D03*
X7600D02*
D03*
X5700D02*
D03*
X20700Y35000D02*
D03*
Y31100D02*
D03*
X18800Y35000D02*
D03*
Y31100D02*
D03*
X16900Y35000D02*
D03*
Y31100D02*
D03*
X15000Y35000D02*
D03*
Y31100D02*
D03*
X22300Y7400D02*
D03*
Y11300D02*
D03*
X22800Y11900D02*
D03*
X20450Y7400D02*
D03*
Y11300D02*
D03*
X18550Y7400D02*
D03*
Y11300D02*
D03*
X16650Y7400D02*
D03*
Y11300D02*
D03*
X10600Y40576D02*
D03*
X14900Y2250D02*
D03*
X18850D02*
D03*
X22800D02*
D03*
X26750D02*
D03*
X7000Y36750D02*
D03*
X9550Y38600D02*
D03*
X10950Y36750D02*
D03*
X13500Y38600D02*
D03*
X14900Y36750D02*
D03*
X14550Y40576D02*
D03*
X17450Y38600D02*
D03*
X18850Y36750D02*
D03*
X18500Y40576D02*
D03*
X21478Y38609D02*
D03*
X10400Y17676D02*
D03*
X14400D02*
D03*
X18350Y17626D02*
D03*
X9100Y24774D02*
D03*
X13050D02*
D03*
X17000D02*
D03*
X19550Y12400D02*
D03*
X23986Y40650D02*
D03*
X26886Y33634D02*
D03*
X24436Y37250D02*
D03*
X25236Y36700D02*
D03*
X24236Y36483D02*
D03*
X20950Y24774D02*
D03*
X10100Y30350D02*
D03*
Y34250D02*
D03*
X3550Y10000D02*
D03*
X2050Y6800D02*
D03*
X3600Y750D02*
D03*
X3150Y12350D02*
D03*
X3600Y8800D02*
D03*
D63*
X11000Y900D02*
D03*
X12550D02*
D03*
X14050D02*
D03*
X6600Y41550D02*
D03*
X5100D02*
D03*
X3550D02*
D03*
D64*
X19575Y13700D02*
D03*
X9975Y13600D02*
D03*
X7575Y11600D02*
D03*
M02*
