G04*
G04 #@! TF.GenerationSoftware,Altium Limited,Altium Designer,19.1.7 (138)*
G04*
G04 Layer_Color=16711935*
%FSLAX24Y24*%
%MOIN*%
G70*
G01*
G75*
%ADD42C,0.0474*%
%ADD43R,0.0474X0.0474*%
%ADD44C,0.0710*%
%ADD45C,0.0768*%
%ADD46R,0.0768X0.0768*%
%ADD47C,0.0580*%
%ADD48C,0.1280*%
D42*
X17700Y41550D02*
D03*
X18200D02*
D03*
X18700D02*
D03*
X19200D02*
D03*
X10100D02*
D03*
X9600D02*
D03*
X9100D02*
D03*
X8600D02*
D03*
X20100Y800D02*
D03*
X19600D02*
D03*
X19100D02*
D03*
X18600D02*
D03*
X16300Y41550D02*
D03*
X15800D02*
D03*
X15300D02*
D03*
X14800D02*
D03*
X8450Y800D02*
D03*
X7950D02*
D03*
X7450D02*
D03*
X6950D02*
D03*
X26286Y41350D02*
D03*
X25786D02*
D03*
X25286D02*
D03*
X26286Y33933D02*
D03*
X25786D02*
D03*
X25286D02*
D03*
X2550Y850D02*
D03*
X2050D02*
D03*
D43*
X19700Y41550D02*
D03*
X10600D02*
D03*
X20600Y800D02*
D03*
X16800Y41550D02*
D03*
X8950Y800D02*
D03*
X24786Y41350D02*
D03*
Y33933D02*
D03*
X1550Y850D02*
D03*
D44*
X850Y40350D02*
D03*
Y39350D02*
D03*
Y38350D02*
D03*
Y37350D02*
D03*
D45*
X22252Y13047D02*
D03*
X23252D02*
D03*
X22252Y14047D02*
D03*
X23252Y20047D02*
D03*
Y21047D02*
D03*
Y24047D02*
D03*
Y25047D02*
D03*
Y28047D02*
D03*
Y27047D02*
D03*
Y26047D02*
D03*
Y23047D02*
D03*
Y22047D02*
D03*
Y19047D02*
D03*
Y18047D02*
D03*
Y17047D02*
D03*
Y16047D02*
D03*
Y15047D02*
D03*
X22252Y25047D02*
D03*
Y26047D02*
D03*
Y27047D02*
D03*
Y28047D02*
D03*
X23252Y29047D02*
D03*
X22252Y20047D02*
D03*
Y21047D02*
D03*
Y22047D02*
D03*
Y23047D02*
D03*
Y24047D02*
D03*
Y15047D02*
D03*
Y16047D02*
D03*
Y17047D02*
D03*
Y18047D02*
D03*
Y19047D02*
D03*
X23252Y14047D02*
D03*
X5252Y18047D02*
D03*
Y19047D02*
D03*
Y22047D02*
D03*
Y23047D02*
D03*
Y26047D02*
D03*
Y25047D02*
D03*
Y24047D02*
D03*
Y21047D02*
D03*
Y20047D02*
D03*
Y17047D02*
D03*
Y16047D02*
D03*
Y15047D02*
D03*
Y14047D02*
D03*
Y13047D02*
D03*
X4252Y23047D02*
D03*
Y24047D02*
D03*
Y25047D02*
D03*
Y26047D02*
D03*
X5252Y27047D02*
D03*
X4252Y18047D02*
D03*
Y19047D02*
D03*
Y20047D02*
D03*
Y21047D02*
D03*
Y22047D02*
D03*
Y13047D02*
D03*
Y14047D02*
D03*
Y15047D02*
D03*
Y16047D02*
D03*
Y17047D02*
D03*
X5252Y31047D02*
D03*
Y32047D02*
D03*
Y35047D02*
D03*
Y34047D02*
D03*
Y33047D02*
D03*
Y30047D02*
D03*
Y29047D02*
D03*
X4252Y32047D02*
D03*
Y33047D02*
D03*
Y34047D02*
D03*
Y35047D02*
D03*
X5252Y36047D02*
D03*
X4252Y29047D02*
D03*
Y30047D02*
D03*
Y31047D02*
D03*
D46*
X22252Y29047D02*
D03*
X4252Y27047D02*
D03*
Y36047D02*
D03*
D47*
X20000Y13700D02*
D03*
X19050D02*
D03*
X10400Y13600D02*
D03*
X9450D02*
D03*
X7050Y11600D02*
D03*
X8000D02*
D03*
X600Y7675D02*
D03*
X20600Y28850D02*
D03*
X21300Y30600D02*
D03*
X6650Y40576D02*
D03*
X15150Y23650D02*
D03*
X20750Y13100D02*
D03*
X11100Y24000D02*
D03*
X6350Y28200D02*
D03*
X25800Y29750D02*
D03*
X24800Y28650D02*
D03*
X7836Y41947D02*
D03*
X2318Y36870D02*
D03*
X20100Y21650D02*
D03*
X16100Y21050D02*
D03*
X12150Y20300D02*
D03*
X8200Y19650D02*
D03*
X7250Y18750D02*
D03*
X17600Y12450D02*
D03*
X25300Y23475D02*
D03*
X25250Y24300D02*
D03*
X12950Y36150D02*
D03*
X14000Y35334D02*
D03*
X13550Y36350D02*
D03*
X17750Y35350D02*
D03*
X19700Y35400D02*
D03*
X13050Y35482D02*
D03*
X11100D02*
D03*
X9200D02*
D03*
X7300D02*
D03*
X12050Y30350D02*
D03*
Y34250D02*
D03*
X8200Y30350D02*
D03*
Y34250D02*
D03*
X6300Y30350D02*
D03*
Y34250D02*
D03*
X11400Y3200D02*
D03*
X9500D02*
D03*
X7600D02*
D03*
X5700D02*
D03*
X20700Y35000D02*
D03*
Y31100D02*
D03*
X18800Y35000D02*
D03*
Y31100D02*
D03*
X16900Y35000D02*
D03*
Y31100D02*
D03*
X15000Y35000D02*
D03*
Y31100D02*
D03*
X22300Y7400D02*
D03*
Y11300D02*
D03*
X22800Y11900D02*
D03*
X20450Y7400D02*
D03*
Y11300D02*
D03*
X18550Y7400D02*
D03*
Y11300D02*
D03*
X16650Y7400D02*
D03*
Y11300D02*
D03*
X10600Y40576D02*
D03*
X14900Y2250D02*
D03*
X18850D02*
D03*
X22800D02*
D03*
X26750D02*
D03*
X7000Y36750D02*
D03*
X9550Y38600D02*
D03*
X10950Y36750D02*
D03*
X13500Y38600D02*
D03*
X14900Y36750D02*
D03*
X14550Y40576D02*
D03*
X17450Y38600D02*
D03*
X18850Y36750D02*
D03*
X18500Y40576D02*
D03*
X21478Y38609D02*
D03*
X10400Y17676D02*
D03*
X14400D02*
D03*
X18350Y17626D02*
D03*
X9100Y24774D02*
D03*
X13050D02*
D03*
X17000D02*
D03*
X19550Y12400D02*
D03*
X23986Y40650D02*
D03*
X26886Y33634D02*
D03*
X24436Y37250D02*
D03*
X25236Y36700D02*
D03*
X24236Y36483D02*
D03*
X20950Y24774D02*
D03*
X10100Y30350D02*
D03*
Y34250D02*
D03*
X3550Y10000D02*
D03*
X2050Y6800D02*
D03*
X3600Y750D02*
D03*
X3150Y12350D02*
D03*
X3600Y8800D02*
D03*
D48*
X11000Y900D02*
D03*
X12550D02*
D03*
X14050D02*
D03*
X6600Y41550D02*
D03*
X5100D02*
D03*
X3550D02*
D03*
M02*
