G04*
G04 #@! TF.GenerationSoftware,Altium Limited,Altium Designer,19.1.7 (138)*
G04*
G04 Layer_Color=32768*
%FSLAX24Y24*%
%MOIN*%
G70*
G01*
G75*
%ADD16C,0.0039*%
%ADD67C,0.0020*%
D16*
X12320Y1721D02*
X14485D01*
X12320Y4674D02*
X14485D01*
X12320Y1721D02*
Y4674D01*
X14485Y1721D02*
Y4674D01*
X13403Y3001D02*
Y3394D01*
X13206Y3197D02*
X13599D01*
X16270Y1721D02*
X18435D01*
X16270Y4674D02*
X18435D01*
X16270Y1721D02*
Y4674D01*
X18435Y1721D02*
Y4674D01*
X17353Y3001D02*
Y3394D01*
X17156Y3197D02*
X17549D01*
X18765Y18155D02*
X20930D01*
X18765Y15202D02*
X20930D01*
Y18155D01*
X18765Y15202D02*
Y18155D01*
X19847Y16481D02*
Y16875D01*
X19651Y16678D02*
X20044D01*
X25536Y31636D02*
Y32030D01*
X25339Y31833D02*
X25733D01*
X2000Y8256D02*
Y8650D01*
X1803Y8451D02*
X2197D01*
X2465Y10306D02*
X3883D01*
X2465Y11999D02*
X3883D01*
X2465Y10306D02*
Y11999D01*
X3883Y10306D02*
Y11999D01*
X3174Y10956D02*
Y11350D01*
X2977Y11153D02*
X3371D01*
X175Y7309D02*
X4072D01*
X175Y2290D02*
X4072D01*
Y7309D01*
X175Y2290D02*
Y7309D01*
X3108Y5105D02*
Y5498D01*
X2911Y5302D02*
X3305D01*
X21106Y3197D02*
X21499D01*
X21303Y3001D02*
Y3394D01*
X22385Y1721D02*
Y4674D01*
X20220Y1721D02*
Y4674D01*
X22385D01*
X20220Y1721D02*
X22385D01*
X25056Y3197D02*
X25449D01*
X25253Y3001D02*
Y3394D01*
X26335Y1721D02*
Y4674D01*
X24170Y1721D02*
Y4674D01*
X26335D01*
X24170Y1721D02*
X26335D01*
X7951Y39628D02*
X8344D01*
X8147Y39431D02*
Y39825D01*
X7065Y38152D02*
Y41105D01*
X9230Y38152D02*
Y41105D01*
X7065Y38152D02*
X9230D01*
X7065Y41105D02*
X9230D01*
X11901Y39628D02*
X12294D01*
X12097Y39431D02*
Y39825D01*
X11015Y38152D02*
Y41105D01*
X13180Y38152D02*
Y41105D01*
X11015Y38152D02*
X13180D01*
X11015Y41105D02*
X13180D01*
X15851Y39628D02*
X16244D01*
X16047Y39431D02*
Y39825D01*
X14965Y38152D02*
Y41105D01*
X17130Y38152D02*
Y41105D01*
X14965Y38152D02*
X17130D01*
X14965Y41105D02*
X17130D01*
X19801Y39628D02*
X20194D01*
X19997Y39431D02*
Y39825D01*
X18915Y38152D02*
Y41105D01*
X21080Y38152D02*
Y41105D01*
X18915Y38152D02*
X21080D01*
X18915Y41105D02*
X21080D01*
X7751Y16754D02*
X8144D01*
X7947Y16557D02*
Y16951D01*
X6865Y15277D02*
Y18230D01*
X9030Y15277D02*
Y18230D01*
X6865Y15277D02*
X9030D01*
X6865Y18230D02*
X9030D01*
X11701Y16728D02*
X12094D01*
X11897Y16531D02*
Y16925D01*
X10815Y15252D02*
Y18205D01*
X12980Y15252D02*
Y18205D01*
X10815Y15252D02*
X12980D01*
X10815Y18205D02*
X12980D01*
X15701Y16728D02*
X16094D01*
X15897Y16531D02*
Y16925D01*
X14815Y15252D02*
Y18205D01*
X16980Y15252D02*
Y18205D01*
X14815Y15252D02*
X16980D01*
X14815Y18205D02*
X16980D01*
X7406Y25722D02*
X7799D01*
X7603Y25525D02*
Y25919D01*
X8685Y24245D02*
Y27198D01*
X6520Y24245D02*
Y27198D01*
X8685D01*
X6520Y24245D02*
X8685D01*
X11356Y25722D02*
X11749D01*
X11553Y25525D02*
Y25919D01*
X12635Y24245D02*
Y27198D01*
X10470Y24245D02*
Y27198D01*
X12635D01*
X10470Y24245D02*
X12635D01*
X15306Y25722D02*
X15699D01*
X15503Y25525D02*
Y25919D01*
X16585Y24245D02*
Y27198D01*
X14420Y24245D02*
Y27198D01*
X16585D01*
X14420Y24245D02*
X16585D01*
X19256Y25722D02*
X19649D01*
X19453Y25525D02*
Y25919D01*
X20535Y24245D02*
Y27198D01*
X18370Y24245D02*
Y27198D01*
X20535D01*
X18370Y24245D02*
X20535D01*
X24289Y37383D02*
X24683D01*
X24486Y37186D02*
Y37580D01*
D67*
X24454Y30357D02*
X26619D01*
X24454Y33309D02*
X26619D01*
X24454Y30357D02*
Y33309D01*
X26619Y30357D02*
Y33309D01*
X22321Y35041D02*
Y39726D01*
X26652Y35041D02*
Y39726D01*
X22321Y35041D02*
X26652D01*
X22321Y39726D02*
X26652D01*
M02*
