G04*
G04 #@! TF.GenerationSoftware,Altium Limited,Altium Designer,19.1.7 (138)*
G04*
G04 Layer_Color=16711935*
%FSLAX24Y24*%
%MOIN*%
G70*
G01*
G75*
%ADD16C,0.0039*%
%ADD65C,0.0050*%
D16*
X12989Y2784D02*
G03*
X12989Y2784I-197J0D01*
G01*
X16939D02*
G03*
X16939Y2784I-197J0D01*
G01*
X20655Y17092D02*
G03*
X20655Y17092I-197J0D01*
G01*
X25103Y31400D02*
G03*
X25103Y31400I-197J0D01*
G01*
X3876Y5676D02*
G03*
X3876Y5676I-197J0D01*
G01*
X20889Y2784D02*
G03*
X20889Y2784I-197J0D01*
G01*
X24839D02*
G03*
X24839Y2784I-197J0D01*
G01*
X8955Y40042D02*
G03*
X8955Y40042I-197J0D01*
G01*
X12905D02*
G03*
X12905Y40042I-197J0D01*
G01*
X16855D02*
G03*
X16855Y40042I-197J0D01*
G01*
X20805D02*
G03*
X20805Y40042I-197J0D01*
G01*
X8755Y17167D02*
G03*
X8755Y17167I-197J0D01*
G01*
X12705Y17142D02*
G03*
X12705Y17142I-197J0D01*
G01*
X16705D02*
G03*
X16705Y17142I-197J0D01*
G01*
X7189Y25308D02*
G03*
X7189Y25308I-197J0D01*
G01*
X11139D02*
G03*
X11139Y25308I-197J0D01*
G01*
X15089D02*
G03*
X15089Y25308I-197J0D01*
G01*
X19039D02*
G03*
X19039Y25308I-197J0D01*
G01*
X26394Y38523D02*
G03*
X26394Y38523I-197J0D01*
G01*
X12438Y2430D02*
X14367D01*
X12438Y3965D02*
X14367D01*
X12438Y2430D02*
Y3965D01*
X14367Y2430D02*
Y3965D01*
X16388Y2430D02*
X18317D01*
X16388Y3965D02*
X18317D01*
X16388Y2430D02*
Y3965D01*
X18317Y2430D02*
Y3965D01*
X18883Y17446D02*
X20812D01*
X18883Y15910D02*
X20812D01*
Y17446D01*
X18883Y15910D02*
Y17446D01*
X24552Y31046D02*
X26520D01*
X24552Y32620D02*
X26520D01*
X24552Y31046D02*
Y32620D01*
X26520Y31046D02*
Y32620D01*
X17849Y8445D02*
Y10259D01*
X16431Y8445D02*
X17849D01*
X16431D02*
Y10259D01*
X17849D01*
X19749Y8445D02*
Y10259D01*
X18332Y8445D02*
X19749D01*
X18332D02*
Y10259D01*
X19749D01*
X21649Y8445D02*
Y10259D01*
X20231Y8445D02*
X21649D01*
X20231D02*
Y10259D01*
X21649D01*
X23499Y8445D02*
Y10259D01*
X22081Y8445D02*
X23499D01*
X22081D02*
Y10259D01*
X23499D01*
X13801Y32141D02*
Y33955D01*
X15218D01*
Y32141D02*
Y33955D01*
X13801Y32141D02*
X15218D01*
X15701D02*
Y33955D01*
X17119D01*
Y32141D02*
Y33955D01*
X15701Y32141D02*
X17119D01*
X17601D02*
Y33955D01*
X19018D01*
Y32141D02*
Y33955D01*
X17601Y32141D02*
X19018D01*
X19501D02*
Y33955D01*
X20919D01*
Y32141D02*
Y33955D01*
X19501Y32141D02*
X20919D01*
X6401Y4241D02*
Y6055D01*
X7818D01*
Y4241D02*
Y6055D01*
X6401Y4241D02*
X7818D01*
X8301D02*
Y6055D01*
X9718D01*
Y4241D02*
Y6055D01*
X8301Y4241D02*
X9718D01*
X10201D02*
Y6055D01*
X11618D01*
Y4241D02*
Y6055D01*
X10201Y4241D02*
X11618D01*
X7499Y31395D02*
Y33209D01*
X6082Y31395D02*
X7499D01*
X6082D02*
Y33209D01*
X7499D01*
X9399Y31395D02*
Y33209D01*
X7982Y31395D02*
X9399D01*
X7982D02*
Y33209D01*
X9399D01*
X11299Y31395D02*
Y33209D01*
X9882Y31395D02*
X11299D01*
X9882D02*
Y33209D01*
X11299D01*
X13249Y31395D02*
Y33209D01*
X11832Y31395D02*
X13249D01*
X11832D02*
Y33209D01*
X13249D01*
X4501Y4241D02*
Y6055D01*
X5918D01*
Y4241D02*
Y6055D01*
X4501Y4241D02*
X5918D01*
X1675Y7825D02*
Y9100D01*
X2325D01*
Y7825D02*
Y9100D01*
X1675Y7825D02*
X2325D01*
X2564Y10818D02*
X3784D01*
X2564Y11487D02*
X3784D01*
X2564Y10818D02*
Y11487D01*
X3784Y10818D02*
Y11487D01*
X234Y6050D02*
X3974D01*
X234Y3550D02*
X3974D01*
Y6050D01*
X234Y3550D02*
Y6050D01*
X22267Y2430D02*
Y3965D01*
X20338Y2430D02*
Y3965D01*
X22267D01*
X20338Y2430D02*
X22267D01*
X26217D02*
Y3965D01*
X24288Y2430D02*
Y3965D01*
X26217D01*
X24288Y2430D02*
X26217D01*
X7183Y38860D02*
Y40396D01*
X9112Y38860D02*
Y40396D01*
X7183Y38860D02*
X9112D01*
X7183Y40396D02*
X9112D01*
X11133Y38860D02*
Y40396D01*
X13062Y38860D02*
Y40396D01*
X11133Y38860D02*
X13062D01*
X11133Y40396D02*
X13062D01*
X15083Y38860D02*
Y40396D01*
X17012Y38860D02*
Y40396D01*
X15083Y38860D02*
X17012D01*
X15083Y40396D02*
X17012D01*
X19033Y38860D02*
Y40396D01*
X20962Y38860D02*
Y40396D01*
X19033Y38860D02*
X20962D01*
X19033Y40396D02*
X20962D01*
X6983Y15986D02*
Y17521D01*
X8912Y15986D02*
Y17521D01*
X6983Y15986D02*
X8912D01*
X6983Y17521D02*
X8912D01*
X10933Y15960D02*
Y17496D01*
X12862Y15960D02*
Y17496D01*
X10933Y15960D02*
X12862D01*
X10933Y17496D02*
X12862D01*
X14933Y15960D02*
Y17496D01*
X16862Y15960D02*
Y17496D01*
X14933Y15960D02*
X16862D01*
X14933Y17496D02*
X16862D01*
X8567Y24954D02*
Y26490D01*
X6638Y24954D02*
Y26490D01*
X8567D01*
X6638Y24954D02*
X8567D01*
X12517D02*
Y26490D01*
X10588Y24954D02*
Y26490D01*
X12517D01*
X10588Y24954D02*
X12517D01*
X16467D02*
Y26490D01*
X14538Y24954D02*
Y26490D01*
X16467D01*
X14538Y24954D02*
X16467D01*
X20417D02*
Y26490D01*
X18488Y24954D02*
Y26490D01*
X20417D01*
X18488Y24954D02*
X20417D01*
X22421Y35889D02*
Y38877D01*
X26551Y35889D02*
Y38877D01*
X22421Y35889D02*
X26551D01*
X22421Y38877D02*
X26551D01*
D65*
X0Y42497D02*
X27531Y42497D01*
Y69D02*
Y42504D01*
X0Y50D02*
X27531Y47D01*
X-28Y50D02*
Y42500D01*
M02*
