M48
;Layer_Color=9474304
;FILE_FORMAT=2:4
INCH,LZ
;TYPE=PLATED
T1F00S00C0.0236
T2F00S00C0.0280
T3F00S00C0.0315
T4F00S00C0.0433
T5F00S00C0.0787
%
T01
X00155Y00085
X00205
X00255
X00695Y0008
X00745
X00795
X00845
X00895
X0186
X0191
X0196
X0201
X0206
X0153Y04155
X0148
X0106
X0101
X0096
X0091
X0086
X0158
X0163
X0168
X0177
X0182
X0187
X0192
X0197
X024786Y04135
X025286
X025786
X026286
Y033933
X025786
X025286
X024786
T02
X0036Y00075
X0057Y0032
X0076
X0095
X0114
X0149Y00225
X0104Y0136
X00945
X008Y0116
X00705
X00315Y01235
X00355Y01
X0036Y0088
X00205Y0068
X0006Y007675
X01665Y0074
X01855
X02045
X0223
Y0113
X0228Y0119
X02045Y0113
X01855
X01665
X0176Y01245
X01955Y0124
X02Y0137
X01905
X02075Y0131
X01885Y00225
X0228
X02675
X0253Y023475
X02525Y0243
X02095Y024774
X017
X0161Y02105
X0201Y02165
X01835Y017626
X0206Y02885
X0207Y0311
X0213Y0306
X0188Y0311
X0169
X0258Y02975
X0248Y02865
X015Y0311
X01205Y03035
X0101
X0082
X0063
X00635Y0282
X0091Y024774
X0111Y024
X01305Y024774
X01515Y02365
X01215Y0203
X0104Y017676
X0144
X0082Y01965
X00725Y01875
X0082Y03425
X0063
X0073Y035482
X007Y03675
X0092Y035482
X0111
X01095Y03675
X01295Y03615
X01305Y035482
X014Y035334
X015Y035
X0149Y03675
X01355Y03635
X0135Y0386
X01455Y040576
X0106
X00955Y0386
X00665Y040576
X007836Y041947
X0101Y03425
X01205
X002318Y03687
X0169Y035
X01775Y03535
X0188Y035
X0197Y0354
X0207Y035
X01885Y03675
X01745Y0386
X0185Y040576
X021478Y038609
X024436Y03725
X024236Y036483
X025236Y0367
X026886Y033634
X023986Y04065
T03
X00085Y03735
Y03835
Y03935
Y04035
T04
X004252Y013047
X005252
Y014047
Y015047
X004252
Y014047
X022252
Y013047
X023252
Y014047
Y015047
X022252
Y016047
X023252
Y017047
Y018047
Y019047
Y020047
Y021047
Y022047
Y023047
Y024047
Y025047
Y026047
Y027047
Y028047
X022252
Y029047
X023252
X022252Y027047
Y026047
Y025047
Y024047
Y023047
Y022047
Y021047
Y020047
Y019047
Y018047
Y017047
X005252
Y018047
Y019047
Y020047
Y021047
Y022047
Y023047
Y024047
Y025047
Y026047
X004252
Y027047
X005252
Y029047
Y030047
Y031047
X004252
Y030047
Y029047
Y025047
Y024047
Y023047
Y022047
Y021047
Y020047
Y019047
Y018047
Y017047
Y016047
X005252
Y032047
Y033047
Y034047
Y035047
X004252
Y036047
X005252
X004252Y034047
Y033047
Y032047
T05
X011Y0009
X01255
X01405
X0066Y04155
X0051
X00355
M30
