G04*
G04 #@! TF.GenerationSoftware,Altium Limited,Altium Designer,19.1.7 (138)*
G04*
G04 Layer_Color=0*
%FSLAX24Y24*%
%MOIN*%
G70*
G01*
G75*
%ADD66C,0.0004*%
D66*
X2704Y37116D02*
X3196D01*
X2704Y36230D02*
Y37116D01*
Y36230D02*
X3196D01*
Y37116D01*
X23093Y40296D02*
X23979D01*
Y39804D02*
Y40296D01*
X23093Y39804D02*
X23979D01*
X23093D02*
Y40296D01*
X24093D02*
X24979D01*
Y39804D02*
Y40296D01*
X24093Y39804D02*
X24979D01*
X24093D02*
Y40296D01*
X25593Y39804D02*
X26479D01*
X25593D02*
Y40296D01*
X26479D01*
Y39804D02*
Y40296D01*
X23915Y41844D02*
X24368D01*
Y42356D01*
X23305D02*
X24368D01*
X23305Y41844D02*
Y42356D01*
Y41844D02*
X23915D01*
X24590Y29357D02*
X25082D01*
Y30243D01*
X24590D02*
X25082D01*
X24590Y29357D02*
Y30243D01*
X26640Y33302D02*
X27132D01*
X26640Y32416D02*
Y33302D01*
Y32416D02*
X27132D01*
Y33302D01*
X25643Y34879D02*
X26529D01*
Y34387D02*
Y34879D01*
X25643Y34387D02*
X26529D01*
X25643D02*
Y34879D01*
X3507Y36358D02*
Y36988D01*
X3193Y36358D02*
X3507D01*
X3193D02*
Y36988D01*
X3507D01*
X17394Y12067D02*
X17906D01*
X17394Y11181D02*
Y12067D01*
Y11181D02*
X17906D01*
Y12067D01*
X19294D02*
X19806D01*
X19294Y11181D02*
Y12067D01*
Y11181D02*
X19806D01*
Y12067D01*
X21194D02*
X21706D01*
X21194Y11181D02*
Y12067D01*
Y11181D02*
X21706D01*
Y12067D01*
X23044D02*
X23556D01*
X23044Y11181D02*
Y12067D01*
Y11181D02*
X23556D01*
Y12067D01*
X13744Y30333D02*
X14256D01*
Y31219D01*
X13744D02*
X14256D01*
X13744Y30333D02*
Y31219D01*
X15644Y30333D02*
X16156D01*
Y31219D01*
X15644D02*
X16156D01*
X15644Y30333D02*
Y31219D01*
X17544Y30333D02*
X18056D01*
Y31219D01*
X17544D02*
X18056D01*
X17544Y30333D02*
Y31219D01*
X19444Y30333D02*
X19956D01*
Y31219D01*
X19444D02*
X19956D01*
X19444Y30333D02*
Y31219D01*
X6344Y2433D02*
X6856D01*
Y3318D01*
X6344D02*
X6856D01*
X6344Y2433D02*
Y3318D01*
X8244Y2433D02*
X8756D01*
Y3318D01*
X8244D02*
X8756D01*
X8244Y2433D02*
Y3318D01*
X10144Y2433D02*
X10656D01*
Y3318D01*
X10144D02*
X10656D01*
X10144Y2433D02*
Y3318D01*
X7044Y35017D02*
X7556D01*
X7044Y34132D02*
Y35017D01*
Y34132D02*
X7556D01*
Y35017D01*
X8944D02*
X9456D01*
X8944Y34132D02*
Y35017D01*
Y34132D02*
X9456D01*
Y35017D01*
X10844D02*
X11356D01*
X10844Y34132D02*
Y35017D01*
Y34132D02*
X11356D01*
Y35017D01*
X12794D02*
X13306D01*
X12794Y34132D02*
Y35017D01*
Y34132D02*
X13306D01*
Y35017D01*
X4444Y2433D02*
X4956D01*
Y3318D01*
X4444D02*
X4956D01*
X4444Y2433D02*
Y3318D01*
X2454Y7597D02*
X2946D01*
Y8483D01*
X2454D02*
X2946D01*
X2454Y7597D02*
Y8483D01*
X2393Y10194D02*
Y10706D01*
X1507D02*
X2393D01*
X1507Y10194D02*
Y10706D01*
Y10194D02*
X2393D01*
X3304Y8443D02*
X3796D01*
X3304Y7557D02*
Y8443D01*
Y7557D02*
X3796D01*
Y8443D01*
X1054Y8493D02*
X1546D01*
X1054Y7607D02*
Y8493D01*
Y7607D02*
X1546D01*
Y8493D01*
X3354Y1107D02*
X3846D01*
Y1993D01*
X3354D02*
X3846D01*
X3354Y1107D02*
Y1993D01*
X21689Y29734D02*
X23815D01*
Y12356D02*
Y29734D01*
X22094Y12356D02*
X23815D01*
X21689D02*
X22094D01*
X21689D02*
Y29734D01*
X3689Y27734D02*
X5815D01*
Y12360D02*
Y27734D01*
X5717Y12360D02*
X5815D01*
X3689D02*
X5717D01*
X3689D02*
Y27734D01*
Y36734D02*
X5815D01*
Y28354D02*
Y36734D01*
X4640Y28354D02*
X5815D01*
X3689D02*
X4640D01*
X3689D02*
Y36734D01*
X14644Y5768D02*
X15156D01*
X14644Y4883D02*
Y5768D01*
Y4883D02*
X15156D01*
Y5768D01*
X13444D02*
X13956D01*
X13444Y4883D02*
Y5768D01*
Y4883D02*
X13956D01*
Y5768D01*
X18594D02*
X19106D01*
X18594Y4883D02*
Y5768D01*
Y4883D02*
X19106D01*
Y5768D01*
X17394D02*
X17906D01*
X17394Y4883D02*
Y5768D01*
Y4883D02*
X17906D01*
Y5768D01*
X22544D02*
X23056D01*
X22544Y4883D02*
Y5768D01*
Y4883D02*
X23056D01*
Y5768D01*
X21344D02*
X21856D01*
X21344Y4883D02*
Y5768D01*
Y4883D02*
X21856D01*
Y5768D01*
X26494D02*
X27006D01*
X26494Y4883D02*
Y5768D01*
Y4883D02*
X27006D01*
Y5768D01*
X25294D02*
X25806D01*
X25294Y4883D02*
Y5768D01*
Y4883D02*
X25806D01*
Y5768D01*
X6394Y37057D02*
X6906D01*
Y37943D01*
X6394D02*
X6906D01*
X6394Y37057D02*
Y37943D01*
X7594Y37057D02*
X8106D01*
Y37943D01*
X7594D02*
X8106D01*
X7594Y37057D02*
Y37943D01*
X10344Y37057D02*
X10856D01*
Y37943D01*
X10344D02*
X10856D01*
X10344Y37057D02*
Y37943D01*
X11544Y37057D02*
X12056D01*
Y37943D01*
X11544D02*
X12056D01*
X11544Y37057D02*
Y37943D01*
X14294Y37057D02*
X14806D01*
Y37943D01*
X14294D02*
X14806D01*
X14294Y37057D02*
Y37943D01*
X15494Y37057D02*
X16006D01*
Y37943D01*
X15494D02*
X16006D01*
X15494Y37057D02*
Y37943D01*
X18244Y37057D02*
X18756D01*
Y37943D01*
X18244D02*
X18756D01*
X18244Y37057D02*
Y37943D01*
X19444Y37057D02*
X19956D01*
Y37943D01*
X19444D02*
X19956D01*
X19444Y37057D02*
Y37943D01*
X6194Y14183D02*
X6706D01*
Y15069D01*
X6194D02*
X6706D01*
X6194Y14183D02*
Y15069D01*
X7394Y14183D02*
X7906D01*
Y15069D01*
X7394D02*
X7906D01*
X7394Y14183D02*
Y15069D01*
X10144Y14157D02*
X10656D01*
Y15043D01*
X10144D02*
X10656D01*
X10144Y14157D02*
Y15043D01*
X11344Y14157D02*
X11856D01*
Y15043D01*
X11344D02*
X11856D01*
X11344Y14157D02*
Y15043D01*
X14144Y14157D02*
X14656D01*
Y15043D01*
X14144D02*
X14656D01*
X14144Y14157D02*
Y15043D01*
X15344Y14157D02*
X15856D01*
Y15043D01*
X15344D02*
X15856D01*
X15344Y14157D02*
Y15043D01*
X8844Y28293D02*
X9356D01*
X8844Y27407D02*
Y28293D01*
Y27407D02*
X9356D01*
Y28293D01*
X7644D02*
X8156D01*
X7644Y27407D02*
Y28293D01*
Y27407D02*
X8156D01*
Y28293D01*
X12794D02*
X13306D01*
X12794Y27407D02*
Y28293D01*
Y27407D02*
X13306D01*
Y28293D01*
X11594D02*
X12106D01*
X11594Y27407D02*
Y28293D01*
Y27407D02*
X12106D01*
Y28293D01*
X16744D02*
X17256D01*
X16744Y27407D02*
Y28293D01*
Y27407D02*
X17256D01*
Y28293D01*
X15544D02*
X16056D01*
X15544Y27407D02*
Y28293D01*
Y27407D02*
X16056D01*
Y28293D01*
X20694D02*
X21206D01*
X20694Y27407D02*
Y28293D01*
Y27407D02*
X21206D01*
Y28293D01*
X19494D02*
X20006D01*
X19494Y27407D02*
Y28293D01*
Y27407D02*
X20006D01*
Y28293D01*
X14664Y2857D02*
X15156D01*
Y3743D01*
X14664D02*
X15156D01*
X14664Y2857D02*
Y3743D01*
X12844Y4883D02*
X13356D01*
Y5768D01*
X12844D02*
X13356D01*
X12844Y4883D02*
Y5768D01*
X14044D02*
X14556D01*
X14044Y4883D02*
Y5768D01*
Y4883D02*
X14556D01*
Y5768D01*
X11744Y3733D02*
X12256D01*
X11744Y2847D02*
Y3733D01*
Y2847D02*
X12256D01*
Y3733D01*
X14644Y4769D02*
X15156D01*
X14644Y3883D02*
Y4769D01*
Y3883D02*
X15156D01*
Y4769D01*
X18614Y2857D02*
X19106D01*
Y3743D01*
X18614D02*
X19106D01*
X18614Y2857D02*
Y3743D01*
X16794Y4883D02*
X17306D01*
Y5768D01*
X16794D02*
X17306D01*
X16794Y4883D02*
Y5768D01*
X17994D02*
X18506D01*
X17994Y4883D02*
Y5768D01*
Y4883D02*
X18506D01*
Y5768D01*
X15694Y3733D02*
X16206D01*
X15694Y2847D02*
Y3733D01*
Y2847D02*
X16206D01*
Y3733D01*
X18594Y4769D02*
X19106D01*
X18594Y3883D02*
Y4769D01*
Y3883D02*
X19106D01*
Y4769D01*
X22564Y2857D02*
X23056D01*
Y3743D01*
X22564D02*
X23056D01*
X22564Y2857D02*
Y3743D01*
X20744Y4883D02*
X21256D01*
Y5768D01*
X20744D02*
X21256D01*
X20744Y4883D02*
Y5768D01*
X21944D02*
X22456D01*
X21944Y4883D02*
Y5768D01*
Y4883D02*
X22456D01*
Y5768D01*
X19644Y3733D02*
X20156D01*
X19644Y2847D02*
Y3733D01*
Y2847D02*
X20156D01*
Y3733D01*
X22544Y4769D02*
X23056D01*
X22544Y3883D02*
Y4769D01*
Y3883D02*
X23056D01*
Y4769D01*
X26514Y2857D02*
X27006D01*
Y3743D01*
X26514D02*
X27006D01*
X26514Y2857D02*
Y3743D01*
X24694Y4883D02*
X25206D01*
Y5768D01*
X24694D02*
X25206D01*
X24694Y4883D02*
Y5768D01*
X25894D02*
X26406D01*
X25894Y4883D02*
Y5768D01*
Y4883D02*
X26406D01*
Y5768D01*
X23594Y3733D02*
X24106D01*
X23594Y2847D02*
Y3733D01*
Y2847D02*
X24106D01*
Y3733D01*
X26494Y4769D02*
X27006D01*
X26494Y3883D02*
Y4769D01*
Y3883D02*
X27006D01*
Y4769D01*
X6394Y39969D02*
X6886D01*
X6394Y39083D02*
Y39969D01*
Y39083D02*
X6886D01*
Y39969D01*
X8194Y37943D02*
X8706D01*
X8194Y37057D02*
Y37943D01*
Y37057D02*
X8706D01*
Y37943D01*
X6994Y37057D02*
X7506D01*
Y37943D01*
X6994D02*
X7506D01*
X6994Y37057D02*
Y37943D01*
X9294Y39093D02*
X9806D01*
Y39978D01*
X9294D02*
X9806D01*
X9294Y39093D02*
Y39978D01*
X6394Y38057D02*
X6906D01*
Y38943D01*
X6394D02*
X6906D01*
X6394Y38057D02*
Y38943D01*
X10344Y39969D02*
X10836D01*
X10344Y39083D02*
Y39969D01*
Y39083D02*
X10836D01*
Y39969D01*
X12144Y37943D02*
X12656D01*
X12144Y37057D02*
Y37943D01*
Y37057D02*
X12656D01*
Y37943D01*
X10944Y37057D02*
X11456D01*
Y37943D01*
X10944D02*
X11456D01*
X10944Y37057D02*
Y37943D01*
X13244Y39093D02*
X13756D01*
Y39978D01*
X13244D02*
X13756D01*
X13244Y39093D02*
Y39978D01*
X10344Y38057D02*
X10856D01*
Y38943D01*
X10344D02*
X10856D01*
X10344Y38057D02*
Y38943D01*
X14294Y39969D02*
X14786D01*
X14294Y39083D02*
Y39969D01*
Y39083D02*
X14786D01*
Y39969D01*
X16094Y37943D02*
X16606D01*
X16094Y37057D02*
Y37943D01*
Y37057D02*
X16606D01*
Y37943D01*
X14894Y37057D02*
X15406D01*
Y37943D01*
X14894D02*
X15406D01*
X14894Y37057D02*
Y37943D01*
X17194Y39093D02*
X17706D01*
Y39978D01*
X17194D02*
X17706D01*
X17194Y39093D02*
Y39978D01*
X14294Y38057D02*
X14806D01*
Y38943D01*
X14294D02*
X14806D01*
X14294Y38057D02*
Y38943D01*
X18244Y39969D02*
X18736D01*
X18244Y39083D02*
Y39969D01*
Y39083D02*
X18736D01*
Y39969D01*
X20044Y37943D02*
X20556D01*
X20044Y37057D02*
Y37943D01*
Y37057D02*
X20556D01*
Y37943D01*
X18844Y37057D02*
X19356D01*
Y37943D01*
X18844D02*
X19356D01*
X18844Y37057D02*
Y37943D01*
X21144Y39093D02*
X21656D01*
Y39978D01*
X21144D02*
X21656D01*
X21144Y39093D02*
Y39978D01*
X18244Y38057D02*
X18756D01*
Y38943D01*
X18244D02*
X18756D01*
X18244Y38057D02*
Y38943D01*
X6194Y17094D02*
X6686D01*
X6194Y16208D02*
Y17094D01*
Y16208D02*
X6686D01*
Y17094D01*
X7994Y15069D02*
X8506D01*
X7994Y14183D02*
Y15069D01*
Y14183D02*
X8506D01*
Y15069D01*
X6794Y14183D02*
X7306D01*
Y15069D01*
X6794D02*
X7306D01*
X6794Y14183D02*
Y15069D01*
X9094Y16218D02*
X9606D01*
Y17104D01*
X9094D02*
X9606D01*
X9094Y16218D02*
Y17104D01*
X6194Y15183D02*
X6706D01*
Y16069D01*
X6194D02*
X6706D01*
X6194Y15183D02*
Y16069D01*
X10144Y17069D02*
X10636D01*
X10144Y16183D02*
Y17069D01*
Y16183D02*
X10636D01*
Y17069D01*
X11944Y15043D02*
X12456D01*
X11944Y14157D02*
Y15043D01*
Y14157D02*
X12456D01*
Y15043D01*
X10744Y14157D02*
X11256D01*
Y15043D01*
X10744D02*
X11256D01*
X10744Y14157D02*
Y15043D01*
X13044Y16193D02*
X13556D01*
Y17078D01*
X13044D02*
X13556D01*
X13044Y16193D02*
Y17078D01*
X10144Y15157D02*
X10656D01*
Y16043D01*
X10144D02*
X10656D01*
X10144Y15157D02*
Y16043D01*
X14144Y17069D02*
X14636D01*
X14144Y16183D02*
Y17069D01*
Y16183D02*
X14636D01*
Y17069D01*
X15944Y15043D02*
X16456D01*
X15944Y14157D02*
Y15043D01*
Y14157D02*
X16456D01*
Y15043D01*
X14744Y14157D02*
X15256D01*
Y15043D01*
X14744D02*
X15256D01*
X14744Y14157D02*
Y15043D01*
X17044Y16193D02*
X17556D01*
Y17078D01*
X17044D02*
X17556D01*
X17044Y16193D02*
Y17078D01*
X14144Y15157D02*
X14656D01*
Y16043D01*
X14144D02*
X14656D01*
X14144Y15157D02*
Y16043D01*
X8864Y25382D02*
X9356D01*
Y26267D01*
X8864D02*
X9356D01*
X8864Y25382D02*
Y26267D01*
X7044Y27407D02*
X7556D01*
Y28293D01*
X7044D02*
X7556D01*
X7044Y27407D02*
Y28293D01*
X8244D02*
X8756D01*
X8244Y27407D02*
Y28293D01*
Y27407D02*
X8756D01*
Y28293D01*
X5944Y26257D02*
X6456D01*
X5944Y25372D02*
Y26257D01*
Y25372D02*
X6456D01*
Y26257D01*
X8844Y27293D02*
X9356D01*
X8844Y26407D02*
Y27293D01*
Y26407D02*
X9356D01*
Y27293D01*
X12814Y25382D02*
X13306D01*
Y26267D01*
X12814D02*
X13306D01*
X12814Y25382D02*
Y26267D01*
X10994Y27407D02*
X11506D01*
Y28293D01*
X10994D02*
X11506D01*
X10994Y27407D02*
Y28293D01*
X12194D02*
X12706D01*
X12194Y27407D02*
Y28293D01*
Y27407D02*
X12706D01*
Y28293D01*
X9894Y26257D02*
X10406D01*
X9894Y25372D02*
Y26257D01*
Y25372D02*
X10406D01*
Y26257D01*
X12794Y27293D02*
X13306D01*
X12794Y26407D02*
Y27293D01*
Y26407D02*
X13306D01*
Y27293D01*
X16764Y25382D02*
X17256D01*
Y26267D01*
X16764D02*
X17256D01*
X16764Y25382D02*
Y26267D01*
X14944Y27407D02*
X15456D01*
Y28293D01*
X14944D02*
X15456D01*
X14944Y27407D02*
Y28293D01*
X16144D02*
X16656D01*
X16144Y27407D02*
Y28293D01*
Y27407D02*
X16656D01*
Y28293D01*
X13844Y26257D02*
X14356D01*
X13844Y25372D02*
Y26257D01*
Y25372D02*
X14356D01*
Y26257D01*
X16744Y27293D02*
X17256D01*
X16744Y26407D02*
Y27293D01*
Y26407D02*
X17256D01*
Y27293D01*
X20714Y25382D02*
X21206D01*
Y26267D01*
X20714D02*
X21206D01*
X20714Y25382D02*
Y26267D01*
X18894Y27407D02*
X19406D01*
Y28293D01*
X18894D02*
X19406D01*
X18894Y27407D02*
Y28293D01*
X20094D02*
X20606D01*
X20094Y27407D02*
Y28293D01*
Y27407D02*
X20606D01*
Y28293D01*
X17794Y26257D02*
X18306D01*
X17794Y25372D02*
Y26257D01*
Y25372D02*
X18306D01*
Y26257D01*
X20694Y27293D02*
X21206D01*
X20694Y26407D02*
Y27293D01*
Y26407D02*
X21206D01*
Y27293D01*
X20994Y16143D02*
X21506D01*
Y17028D01*
X20994D02*
X21506D01*
X20994Y16143D02*
Y17028D01*
X19894Y14993D02*
X20406D01*
X19894Y14107D02*
Y14993D01*
Y14107D02*
X20406D01*
Y14993D01*
X19294Y14107D02*
Y14993D01*
X19806D01*
Y14107D02*
Y14993D01*
X19294Y14107D02*
X19806D01*
X18694D02*
X19206D01*
Y14993D01*
X18694D02*
X19206D01*
X18694Y14107D02*
Y14993D01*
X18094Y14107D02*
Y14993D01*
X18606D01*
Y14107D02*
Y14993D01*
X18094Y14107D02*
X18606D01*
X18094Y17019D02*
X18586D01*
X18094Y16133D02*
Y17019D01*
Y16133D02*
X18586D01*
Y17019D01*
X18094Y15107D02*
X18606D01*
Y15993D01*
X18094D02*
X18606D01*
X18094Y15107D02*
Y15993D01*
M02*
