G04*
G04 #@! TF.GenerationSoftware,Altium Limited,Altium Designer,19.1.7 (138)*
G04*
G04 Layer_Color=255*
%FSLAX24Y24*%
%MOIN*%
G70*
G01*
G75*
%ADD19R,0.0350X0.0252*%
%ADD20O,0.0236X0.0866*%
%ADD21R,0.0252X0.0350*%
%ADD22R,0.0220X0.0201*%
%ADD23R,0.0394X0.0252*%
%ADD24R,0.0315X0.0551*%
%ADD25R,0.0236X0.0433*%
%ADD26R,0.0252X0.0394*%
%ADD27R,0.0236X0.0591*%
%ADD28R,0.0315X0.1181*%
%ADD29O,0.0236X0.0906*%
%ADD49C,0.0100*%
%ADD57C,0.0394*%
%ADD58R,0.0394X0.0394*%
%ADD59C,0.0630*%
%ADD60C,0.0728*%
%ADD61R,0.0728X0.0728*%
D19*
X2950Y36397D02*
D03*
Y36948D02*
D03*
X24836Y30076D02*
D03*
Y29524D02*
D03*
X26886Y32583D02*
D03*
Y33134D02*
D03*
X2700Y8316D02*
D03*
Y7765D02*
D03*
X3550Y7724D02*
D03*
Y8276D02*
D03*
X1300Y7774D02*
D03*
Y8326D02*
D03*
X3600Y1826D02*
D03*
Y1274D02*
D03*
X14910Y3576D02*
D03*
Y3024D02*
D03*
X18860Y3576D02*
D03*
Y3024D02*
D03*
X22810Y3576D02*
D03*
Y3024D02*
D03*
X26760Y3576D02*
D03*
Y3024D02*
D03*
X6640Y39250D02*
D03*
Y39801D02*
D03*
X10590Y39250D02*
D03*
Y39801D02*
D03*
X14540Y39250D02*
D03*
Y39801D02*
D03*
X18490Y39250D02*
D03*
Y39801D02*
D03*
X6440Y16376D02*
D03*
Y16927D02*
D03*
X10390Y16350D02*
D03*
Y16901D02*
D03*
X14390Y16350D02*
D03*
Y16901D02*
D03*
X9110Y26100D02*
D03*
Y25549D02*
D03*
X13060Y26100D02*
D03*
Y25549D02*
D03*
X17010Y26100D02*
D03*
Y25549D02*
D03*
X20960Y26100D02*
D03*
Y25549D02*
D03*
X18340Y16300D02*
D03*
Y16851D02*
D03*
D20*
X12653Y2253D02*
D03*
X13153D02*
D03*
X13653D02*
D03*
X14153D02*
D03*
X12653Y4142D02*
D03*
X13153D02*
D03*
X13653D02*
D03*
X14153D02*
D03*
X16603Y2253D02*
D03*
X17103D02*
D03*
X17603D02*
D03*
X18103D02*
D03*
X16603Y4142D02*
D03*
X17103D02*
D03*
X17603D02*
D03*
X18103D02*
D03*
X20597Y17623D02*
D03*
X20097D02*
D03*
X19597D02*
D03*
X19097D02*
D03*
X20597Y15733D02*
D03*
X20097D02*
D03*
X19597D02*
D03*
X19097D02*
D03*
X24786Y30888D02*
D03*
X25286D02*
D03*
X25786D02*
D03*
X26286D02*
D03*
X24786Y32778D02*
D03*
X25286D02*
D03*
X25786D02*
D03*
X26286D02*
D03*
X22053Y4142D02*
D03*
X21553D02*
D03*
X21053D02*
D03*
X20553D02*
D03*
X22053Y2253D02*
D03*
X21553D02*
D03*
X21053D02*
D03*
X20553D02*
D03*
X26003Y4142D02*
D03*
X25503D02*
D03*
X25003D02*
D03*
X24503D02*
D03*
X26003Y2253D02*
D03*
X25503D02*
D03*
X25003D02*
D03*
X24503D02*
D03*
X7397Y38683D02*
D03*
X7897D02*
D03*
X8397D02*
D03*
X8897D02*
D03*
X7397Y40573D02*
D03*
X7897D02*
D03*
X8397D02*
D03*
X8897D02*
D03*
X11347Y38683D02*
D03*
X11847D02*
D03*
X12347D02*
D03*
X12847D02*
D03*
X11347Y40573D02*
D03*
X11847D02*
D03*
X12347D02*
D03*
X12847D02*
D03*
X15297Y38683D02*
D03*
X15797D02*
D03*
X16297D02*
D03*
X16797D02*
D03*
X15297Y40573D02*
D03*
X15797D02*
D03*
X16297D02*
D03*
X16797D02*
D03*
X19247Y38683D02*
D03*
X19747D02*
D03*
X20247D02*
D03*
X20747D02*
D03*
X19247Y40573D02*
D03*
X19747D02*
D03*
X20247D02*
D03*
X20747D02*
D03*
X7197Y15809D02*
D03*
X7697D02*
D03*
X8197D02*
D03*
X8697D02*
D03*
X7197Y17699D02*
D03*
X7697D02*
D03*
X8197D02*
D03*
X8697D02*
D03*
X11147Y15783D02*
D03*
X11647D02*
D03*
X12147D02*
D03*
X12647D02*
D03*
X11147Y17673D02*
D03*
X11647D02*
D03*
X12147D02*
D03*
X12647D02*
D03*
X15147Y15783D02*
D03*
X15647D02*
D03*
X16147D02*
D03*
X16647D02*
D03*
X15147Y17673D02*
D03*
X15647D02*
D03*
X16147D02*
D03*
X16647D02*
D03*
X8353Y26667D02*
D03*
X7853D02*
D03*
X7353D02*
D03*
X6853D02*
D03*
X8353Y24777D02*
D03*
X7853D02*
D03*
X7353D02*
D03*
X6853D02*
D03*
X12303Y26667D02*
D03*
X11803D02*
D03*
X11303D02*
D03*
X10803D02*
D03*
X12303Y24777D02*
D03*
X11803D02*
D03*
X11303D02*
D03*
X10803D02*
D03*
X16253Y26667D02*
D03*
X15753D02*
D03*
X15253D02*
D03*
X14753D02*
D03*
X16253Y24777D02*
D03*
X15753D02*
D03*
X15253D02*
D03*
X14753D02*
D03*
X20203Y26667D02*
D03*
X19703D02*
D03*
X19203D02*
D03*
X18703D02*
D03*
X20203Y24777D02*
D03*
X19703D02*
D03*
X19203D02*
D03*
X18703D02*
D03*
D21*
X23261Y40050D02*
D03*
X23812D02*
D03*
X24261D02*
D03*
X24812D02*
D03*
X26312D02*
D03*
X25761D02*
D03*
X25811Y34633D02*
D03*
X26362D02*
D03*
D22*
X3350Y36850D02*
D03*
Y36496D02*
D03*
D23*
X17650Y11349D02*
D03*
Y11900D02*
D03*
X19550Y11349D02*
D03*
Y11900D02*
D03*
X21450Y11349D02*
D03*
Y11900D02*
D03*
X23300Y11349D02*
D03*
Y11900D02*
D03*
X14000Y31051D02*
D03*
Y30500D02*
D03*
X15900Y31051D02*
D03*
Y30500D02*
D03*
X17800Y31051D02*
D03*
Y30500D02*
D03*
X19700Y31051D02*
D03*
Y30500D02*
D03*
X6600Y3151D02*
D03*
Y2600D02*
D03*
X8500Y3151D02*
D03*
Y2600D02*
D03*
X10400Y3151D02*
D03*
Y2600D02*
D03*
X7300Y34299D02*
D03*
Y34850D02*
D03*
X9200Y34299D02*
D03*
Y34850D02*
D03*
X11100Y34299D02*
D03*
Y34850D02*
D03*
X13050Y34299D02*
D03*
Y34850D02*
D03*
X4700Y3151D02*
D03*
Y2600D02*
D03*
X14900Y5050D02*
D03*
Y5601D02*
D03*
X13700Y5050D02*
D03*
Y5601D02*
D03*
X18850Y5050D02*
D03*
Y5601D02*
D03*
X17650Y5050D02*
D03*
Y5601D02*
D03*
X22800Y5050D02*
D03*
Y5601D02*
D03*
X21600Y5050D02*
D03*
Y5601D02*
D03*
X26750Y5050D02*
D03*
Y5601D02*
D03*
X25550Y5050D02*
D03*
Y5601D02*
D03*
X6650Y37776D02*
D03*
Y37224D02*
D03*
X7850Y37776D02*
D03*
Y37224D02*
D03*
X10600Y37776D02*
D03*
Y37224D02*
D03*
X11800Y37776D02*
D03*
Y37224D02*
D03*
X14550Y37776D02*
D03*
Y37224D02*
D03*
X15750Y37776D02*
D03*
Y37224D02*
D03*
X18500Y37776D02*
D03*
Y37224D02*
D03*
X19700Y37776D02*
D03*
Y37224D02*
D03*
X6450Y14901D02*
D03*
Y14350D02*
D03*
X7650Y14901D02*
D03*
Y14350D02*
D03*
X10400Y14876D02*
D03*
Y14324D02*
D03*
X11600Y14876D02*
D03*
Y14324D02*
D03*
X14400Y14876D02*
D03*
Y14324D02*
D03*
X15600Y14876D02*
D03*
Y14324D02*
D03*
X9100Y27574D02*
D03*
Y28126D02*
D03*
X7900Y27574D02*
D03*
Y28126D02*
D03*
X13050Y27574D02*
D03*
Y28126D02*
D03*
X11850Y27574D02*
D03*
Y28126D02*
D03*
X17000Y27574D02*
D03*
Y28126D02*
D03*
X15800Y27574D02*
D03*
Y28126D02*
D03*
X20950Y27574D02*
D03*
Y28126D02*
D03*
X19750Y27574D02*
D03*
Y28126D02*
D03*
X13100Y5601D02*
D03*
Y5050D02*
D03*
X14300D02*
D03*
Y5601D02*
D03*
X12000Y3015D02*
D03*
Y3566D02*
D03*
X14900Y4050D02*
D03*
Y4601D02*
D03*
X17050Y5601D02*
D03*
Y5050D02*
D03*
X18250D02*
D03*
Y5601D02*
D03*
X15950Y3015D02*
D03*
Y3566D02*
D03*
X18850Y4050D02*
D03*
Y4601D02*
D03*
X21000Y5601D02*
D03*
Y5050D02*
D03*
X22200D02*
D03*
Y5601D02*
D03*
X19900Y3015D02*
D03*
Y3566D02*
D03*
X22800Y4050D02*
D03*
Y4601D02*
D03*
X24950Y5601D02*
D03*
Y5050D02*
D03*
X26150D02*
D03*
Y5601D02*
D03*
X23850Y3015D02*
D03*
Y3566D02*
D03*
X26750Y4050D02*
D03*
Y4601D02*
D03*
X8450Y37224D02*
D03*
Y37776D02*
D03*
X7250D02*
D03*
Y37224D02*
D03*
X9550Y39811D02*
D03*
Y39260D02*
D03*
X6650Y38776D02*
D03*
Y38224D02*
D03*
X12400Y37224D02*
D03*
Y37776D02*
D03*
X11200D02*
D03*
Y37224D02*
D03*
X13500Y39811D02*
D03*
Y39260D02*
D03*
X10600Y38776D02*
D03*
Y38224D02*
D03*
X16350Y37224D02*
D03*
Y37776D02*
D03*
X15150D02*
D03*
Y37224D02*
D03*
X17450Y39811D02*
D03*
Y39260D02*
D03*
X14550Y38776D02*
D03*
Y38224D02*
D03*
X20300Y37224D02*
D03*
Y37776D02*
D03*
X19100D02*
D03*
Y37224D02*
D03*
X21400Y39811D02*
D03*
Y39260D02*
D03*
X18500Y38776D02*
D03*
Y38224D02*
D03*
X8250Y14350D02*
D03*
Y14901D02*
D03*
X7050D02*
D03*
Y14350D02*
D03*
X9350Y16937D02*
D03*
Y16385D02*
D03*
X6450Y15901D02*
D03*
Y15350D02*
D03*
X12200Y14324D02*
D03*
Y14876D02*
D03*
X11000D02*
D03*
Y14324D02*
D03*
X13300Y16911D02*
D03*
Y16360D02*
D03*
X10400Y15876D02*
D03*
Y15324D02*
D03*
X16200Y14324D02*
D03*
Y14876D02*
D03*
X15000D02*
D03*
Y14324D02*
D03*
X17300Y16911D02*
D03*
Y16360D02*
D03*
X14400Y15876D02*
D03*
Y15324D02*
D03*
X7300Y28126D02*
D03*
Y27574D02*
D03*
X8500D02*
D03*
Y28126D02*
D03*
X6200Y25539D02*
D03*
Y26090D02*
D03*
X9100Y26574D02*
D03*
Y27126D02*
D03*
X11250Y28126D02*
D03*
Y27574D02*
D03*
X12450D02*
D03*
Y28126D02*
D03*
X10150Y25539D02*
D03*
Y26090D02*
D03*
X13050Y26574D02*
D03*
Y27126D02*
D03*
X15200Y28126D02*
D03*
Y27574D02*
D03*
X16400D02*
D03*
Y28126D02*
D03*
X14100Y25539D02*
D03*
Y26090D02*
D03*
X17000Y26574D02*
D03*
Y27126D02*
D03*
X19150Y28126D02*
D03*
Y27574D02*
D03*
X20350D02*
D03*
Y28126D02*
D03*
X18050Y25539D02*
D03*
Y26090D02*
D03*
X20950Y26574D02*
D03*
Y27126D02*
D03*
X21250Y16861D02*
D03*
Y16310D02*
D03*
X20150Y14274D02*
D03*
Y14826D02*
D03*
X19550Y14274D02*
D03*
Y14826D02*
D03*
X18950D02*
D03*
Y14274D02*
D03*
X18350D02*
D03*
Y14826D02*
D03*
Y15826D02*
D03*
Y15274D02*
D03*
D24*
X16650Y8032D02*
D03*
X17650D02*
D03*
X16650Y10650D02*
D03*
X17650D02*
D03*
X18550Y8032D02*
D03*
X19550D02*
D03*
X18550Y10650D02*
D03*
X19550D02*
D03*
X20450Y8032D02*
D03*
X21450D02*
D03*
X20450Y10650D02*
D03*
X21450D02*
D03*
X22300Y8032D02*
D03*
X23300D02*
D03*
X22300Y10650D02*
D03*
X23300D02*
D03*
X15000Y34368D02*
D03*
X14000D02*
D03*
X15000Y31750D02*
D03*
X14000D02*
D03*
X16900Y34368D02*
D03*
X15900D02*
D03*
X16900Y31750D02*
D03*
X15900D02*
D03*
X18800Y34368D02*
D03*
X17800D02*
D03*
X18800Y31750D02*
D03*
X17800D02*
D03*
X20700Y34368D02*
D03*
X19700D02*
D03*
X20700Y31750D02*
D03*
X19700D02*
D03*
X7600Y6468D02*
D03*
X6600D02*
D03*
X7600Y3850D02*
D03*
X6600D02*
D03*
X9500Y6468D02*
D03*
X8500D02*
D03*
X9500Y3850D02*
D03*
X8500D02*
D03*
X11400Y6468D02*
D03*
X10400D02*
D03*
X11400Y3850D02*
D03*
X10400D02*
D03*
X6300Y30982D02*
D03*
X7300D02*
D03*
X6300Y33600D02*
D03*
X7300D02*
D03*
X8200Y30982D02*
D03*
X9200D02*
D03*
X8200Y33600D02*
D03*
X9200D02*
D03*
X10100Y30982D02*
D03*
X11100D02*
D03*
X10100Y33600D02*
D03*
X11100D02*
D03*
X12050Y30982D02*
D03*
X13050D02*
D03*
X12050Y33600D02*
D03*
X13050D02*
D03*
X5700Y6468D02*
D03*
X4700D02*
D03*
X5700Y3850D02*
D03*
X4700D02*
D03*
D25*
X2197Y7918D02*
D03*
Y8974D02*
D03*
X1803Y8982D02*
D03*
Y7918D02*
D03*
D26*
X1674Y10450D02*
D03*
X2226D02*
D03*
D27*
X2800Y10700D02*
D03*
X3548D02*
D03*
X3174Y11606D02*
D03*
D28*
X3600Y6680D02*
D03*
X2600D02*
D03*
X1600D02*
D03*
X600D02*
D03*
Y2900D02*
D03*
X1600D02*
D03*
X2600D02*
D03*
X3600D02*
D03*
D29*
X22736Y35592D02*
D03*
X23236D02*
D03*
X23736D02*
D03*
X24236D02*
D03*
X24736D02*
D03*
X25236D02*
D03*
X25736D02*
D03*
X26236D02*
D03*
X22736Y39174D02*
D03*
X23236D02*
D03*
X23736D02*
D03*
X24236D02*
D03*
X24736D02*
D03*
X25236D02*
D03*
X25736D02*
D03*
X26236D02*
D03*
D49*
X24033Y42100D02*
D03*
X23600D02*
D03*
D57*
X17700Y41550D02*
D03*
X18200D02*
D03*
X18700D02*
D03*
X19200D02*
D03*
X10100D02*
D03*
X9600D02*
D03*
X9100D02*
D03*
X8600D02*
D03*
X20100Y800D02*
D03*
X19600D02*
D03*
X19100D02*
D03*
X18600D02*
D03*
X16300Y41550D02*
D03*
X15800D02*
D03*
X15300D02*
D03*
X14800D02*
D03*
X8450Y800D02*
D03*
X7950D02*
D03*
X7450D02*
D03*
X6950D02*
D03*
X26286Y41350D02*
D03*
X25786D02*
D03*
X25286D02*
D03*
X26286Y33933D02*
D03*
X25786D02*
D03*
X25286D02*
D03*
X2550Y850D02*
D03*
X2050D02*
D03*
D58*
X19700Y41550D02*
D03*
X10600D02*
D03*
X20600Y800D02*
D03*
X16800Y41550D02*
D03*
X8950Y800D02*
D03*
X24786Y41350D02*
D03*
Y33933D02*
D03*
X1550Y850D02*
D03*
D59*
X850Y40350D02*
D03*
Y39350D02*
D03*
Y38350D02*
D03*
Y37350D02*
D03*
D60*
X22252Y13047D02*
D03*
X23252D02*
D03*
X22252Y14047D02*
D03*
X23252Y20047D02*
D03*
Y21047D02*
D03*
Y24047D02*
D03*
Y25047D02*
D03*
Y28047D02*
D03*
Y27047D02*
D03*
Y26047D02*
D03*
Y23047D02*
D03*
Y22047D02*
D03*
Y19047D02*
D03*
Y18047D02*
D03*
Y17047D02*
D03*
Y16047D02*
D03*
Y15047D02*
D03*
X22252Y25047D02*
D03*
Y26047D02*
D03*
Y27047D02*
D03*
Y28047D02*
D03*
X23252Y29047D02*
D03*
X22252Y20047D02*
D03*
Y21047D02*
D03*
Y22047D02*
D03*
Y23047D02*
D03*
Y24047D02*
D03*
Y15047D02*
D03*
Y16047D02*
D03*
Y17047D02*
D03*
Y18047D02*
D03*
Y19047D02*
D03*
X23252Y14047D02*
D03*
X5252Y18047D02*
D03*
Y19047D02*
D03*
Y22047D02*
D03*
Y23047D02*
D03*
Y26047D02*
D03*
Y25047D02*
D03*
Y24047D02*
D03*
Y21047D02*
D03*
Y20047D02*
D03*
Y17047D02*
D03*
Y16047D02*
D03*
Y15047D02*
D03*
Y14047D02*
D03*
Y13047D02*
D03*
X4252Y23047D02*
D03*
Y24047D02*
D03*
Y25047D02*
D03*
Y26047D02*
D03*
X5252Y27047D02*
D03*
X4252Y18047D02*
D03*
Y19047D02*
D03*
Y20047D02*
D03*
Y21047D02*
D03*
Y22047D02*
D03*
Y13047D02*
D03*
Y14047D02*
D03*
Y15047D02*
D03*
Y16047D02*
D03*
Y17047D02*
D03*
X5252Y31047D02*
D03*
Y32047D02*
D03*
Y35047D02*
D03*
Y34047D02*
D03*
Y33047D02*
D03*
Y30047D02*
D03*
Y29047D02*
D03*
X4252Y32047D02*
D03*
Y33047D02*
D03*
Y34047D02*
D03*
Y35047D02*
D03*
X5252Y36047D02*
D03*
X4252Y29047D02*
D03*
Y30047D02*
D03*
Y31047D02*
D03*
D61*
X22252Y29047D02*
D03*
X4252Y27047D02*
D03*
Y36047D02*
D03*
M02*
